M48
;Layer_Color=9474304
;FILE_FORMAT=2:5
INCH,LZ
;TYPE=PLATED
T1F00S00C0.01300
T2F00S00C0.02756
T4F00S00C0.04000
T5F00S00C0.04331
T6F00S00C0.06299
%
T01
X0259Y0036
X0266
Y0045
X0259
X0237Y0107
Y0113
X0241896Y0200104
X0251Y0199
X0215Y0192
X0286Y019
Y0182
X01693Y0139
X0164152Y0139396
X0155Y0139
X015
X0152Y0125
Y01207
X0144Y0111
X0158Y0102
X0177Y0114
X0189Y0112
X019Y011785
X0173Y0126
X0168Y0133
X016
X021Y0096
X0088Y0116
X0083Y0121
X0064Y0124
Y0116
X0069Y0167
Y0173
X0042Y0326
X007Y0358
X01Y0338
X0112Y0304
X0096Y0278
X0104Y0244
X0103Y022
X0164Y0278
X0168Y0279
X0185Y028
Y0286
X0192Y0303
Y031025
X0202Y0304
Y0347
X0184Y0342
X0186Y0358
X0158Y0316
Y0292
X0150687
X0216
X0215Y0287
X022Y0286
Y0279
X0216Y0278
X0215905Y0271095
X0227Y0265
X0233
X0234Y0257
X0226
X022685Y0279
X0227Y0285
X022Y029485
Y030035
X0249Y0304
X0236Y034
Y0358
X028Y034
X0306Y0344
X0365Y0284
T02
X0204201Y0338078
X02105
X020735Y0342802
X021365
X0216799Y0338078
T04
X0335Y03
X0365
T05
X017Y00495
X018
X019
X027Y006
Y007
Y008
Y009
Y01
Y011
Y012
Y013
Y0146
Y0156
Y0166
Y0176
Y0186
Y0196
Y0206
X03
Y0196
Y0186
Y0176
Y0166
Y0156
Y0146
Y013
Y012
Y011
Y01
Y009
Y008
Y007
Y006
X019Y00595
X018
X017
X008Y006
Y007
Y008
Y009
Y01
Y011
Y013
Y014
Y015
Y016
Y017
Y018
Y019
Y02
X005
Y019
Y018
Y017
Y016
Y015
Y014
Y013
Y011
Y01
Y009
Y008
Y007
Y006
X014Y033
X015
X016
X027Y0236
Y0226
Y0216
X03
Y0226
Y0236
T06
X0052396Y033355
X00709Y032183
Y034533
M30
