G04*
G04 #@! TF.GenerationSoftware,Altium Limited,Altium Designer,20.1.14 (287)*
G04*
G04 Layer_Color=255*
%FSLAX25Y25*%
%MOIN*%
G70*
G04*
G04 #@! TF.SameCoordinates,AE2E9B50-125B-4246-99C6-3B409F254E70*
G04*
G04*
G04 #@! TF.FilePolarity,Positive*
G04*
G01*
G75*
%ADD57C,0.06000*%
%ADD58C,0.07000*%
%ADD59C,0.06496*%
%ADD60C,0.09449*%
%ADD61C,0.04756*%
%ADD62O,0.05150X0.10299*%
D57*
X50000Y110000D02*
D03*
Y100000D02*
D03*
Y90000D02*
D03*
Y80000D02*
D03*
Y70000D02*
D03*
Y60000D02*
D03*
X80000D02*
D03*
Y70000D02*
D03*
Y80000D02*
D03*
Y90000D02*
D03*
Y100000D02*
D03*
Y110000D02*
D03*
X270000Y60000D02*
D03*
Y70000D02*
D03*
Y80000D02*
D03*
Y90000D02*
D03*
Y100000D02*
D03*
Y110000D02*
D03*
Y120000D02*
D03*
Y130000D02*
D03*
X300000Y146000D02*
D03*
Y156000D02*
D03*
Y166000D02*
D03*
Y176000D02*
D03*
Y186000D02*
D03*
Y196000D02*
D03*
Y206000D02*
D03*
Y216000D02*
D03*
Y226000D02*
D03*
Y236000D02*
D03*
X50000Y200000D02*
D03*
Y190000D02*
D03*
Y180000D02*
D03*
Y170000D02*
D03*
Y160000D02*
D03*
Y150000D02*
D03*
Y140000D02*
D03*
Y130000D02*
D03*
X300000Y60000D02*
D03*
Y70000D02*
D03*
Y80000D02*
D03*
Y90000D02*
D03*
Y100000D02*
D03*
Y110000D02*
D03*
Y120000D02*
D03*
Y130000D02*
D03*
X80000D02*
D03*
Y140000D02*
D03*
Y150000D02*
D03*
Y160000D02*
D03*
Y170000D02*
D03*
Y180000D02*
D03*
Y190000D02*
D03*
Y200000D02*
D03*
X270000Y236000D02*
D03*
Y226000D02*
D03*
Y216000D02*
D03*
Y206000D02*
D03*
Y196000D02*
D03*
Y186000D02*
D03*
Y176000D02*
D03*
Y166000D02*
D03*
Y156000D02*
D03*
Y146000D02*
D03*
D58*
X170000Y49500D02*
D03*
Y59500D02*
D03*
X180000Y49500D02*
D03*
Y59500D02*
D03*
X190000Y49500D02*
D03*
Y59500D02*
D03*
X365000Y300000D02*
D03*
X335000D02*
D03*
D59*
X140000Y330000D02*
D03*
X150000D02*
D03*
X160000D02*
D03*
D60*
X52396Y333550D02*
D03*
X70900Y345330D02*
D03*
Y321830D02*
D03*
D61*
X216799Y338078D02*
D03*
X210500D02*
D03*
X204201D02*
D03*
X213650Y342802D02*
D03*
X207350D02*
D03*
D62*
X225067Y360322D02*
D03*
Y341621D02*
D03*
X195933D02*
D03*
Y360322D02*
D03*
M02*
