G04*
G04 #@! TF.GenerationSoftware,Altium Limited,Altium Designer,20.1.14 (287)*
G04*
G04 Layer_Color=8421504*
%FSLAX25Y25*%
%MOIN*%
G70*
G04*
G04 #@! TF.SameCoordinates,6D664569-D151-4749-B7FC-417D050C6B8F*
G04*
G04*
G04 #@! TF.FilePolarity,Positive*
G04*
G01*
G75*
%ADD18R,0.05800X0.02000*%
%ADD19R,0.02000X0.05800*%
%ADD20R,0.05500X0.01370*%
%ADD21R,0.03937X0.02953*%
%ADD22R,0.02362X0.02756*%
%ADD23R,0.08268X0.22047*%
%ADD24R,0.04400X0.07100*%
%ADD25R,0.02756X0.02000*%
%ADD26R,0.02953X0.03937*%
%ADD27R,0.05906X0.07874*%
%ADD28R,0.02756X0.02362*%
%ADD29R,0.03300X0.06300*%
%ADD30R,0.12200X0.06300*%
%ADD31R,0.05500X0.06300*%
%ADD32R,0.06300X0.05500*%
%ADD33R,0.07480X0.13386*%
D18*
X199393Y105000D02*
D03*
Y108100D02*
D03*
Y111300D02*
D03*
Y114400D02*
D03*
Y117600D02*
D03*
Y120700D02*
D03*
Y123900D02*
D03*
Y127000D02*
D03*
X166993D02*
D03*
Y123900D02*
D03*
Y120700D02*
D03*
Y117600D02*
D03*
Y114400D02*
D03*
Y111300D02*
D03*
Y108100D02*
D03*
Y105000D02*
D03*
D19*
X194193Y132200D02*
D03*
X191093D02*
D03*
X187893D02*
D03*
X184793D02*
D03*
X181593D02*
D03*
X178493D02*
D03*
X175293D02*
D03*
X172193D02*
D03*
Y99800D02*
D03*
X175293D02*
D03*
X178493D02*
D03*
X181593D02*
D03*
X184793D02*
D03*
X187893D02*
D03*
X191093D02*
D03*
X194193D02*
D03*
D20*
X175606Y263366D02*
D03*
Y265925D02*
D03*
Y268484D02*
D03*
Y271043D02*
D03*
Y273602D02*
D03*
Y276161D02*
D03*
Y278720D02*
D03*
Y281279D02*
D03*
Y283839D02*
D03*
Y286398D02*
D03*
Y288957D02*
D03*
Y291516D02*
D03*
Y294075D02*
D03*
Y296634D02*
D03*
X204394Y263366D02*
D03*
Y265925D02*
D03*
Y268484D02*
D03*
Y271043D02*
D03*
Y273602D02*
D03*
Y278720D02*
D03*
Y276161D02*
D03*
Y281279D02*
D03*
Y283839D02*
D03*
Y286398D02*
D03*
Y288957D02*
D03*
Y291516D02*
D03*
Y294075D02*
D03*
Y296634D02*
D03*
D21*
X166000Y284000D02*
D03*
Y289512D02*
D03*
X209000Y110000D02*
D03*
Y104488D02*
D03*
X250000Y315512D02*
D03*
Y310000D02*
D03*
X158000Y126000D02*
D03*
Y120488D02*
D03*
X135000Y122000D02*
D03*
Y116488D02*
D03*
D22*
X185937Y209000D02*
D03*
X182000D02*
D03*
X241000Y101000D02*
D03*
X237063D02*
D03*
X241000Y119000D02*
D03*
X237063D02*
D03*
X224063Y187000D02*
D03*
X228000D02*
D03*
X112063Y220000D02*
D03*
X116000D02*
D03*
X199063Y203000D02*
D03*
X203000D02*
D03*
X150000Y262000D02*
D03*
X153937D02*
D03*
X126000Y298000D02*
D03*
X122063D02*
D03*
D23*
X224000Y125402D02*
D03*
Y88000D02*
D03*
D24*
X127000Y114000D02*
D03*
X115200D02*
D03*
D25*
X215846Y316000D02*
D03*
Y312260D02*
D03*
Y308520D02*
D03*
X225000D02*
D03*
Y312260D02*
D03*
Y316000D02*
D03*
D26*
X146488Y102000D02*
D03*
X152000D02*
D03*
X104488Y330000D02*
D03*
X110000D02*
D03*
X164488Y312000D02*
D03*
X170000D02*
D03*
X97512Y268000D02*
D03*
X92000D02*
D03*
D27*
X132000Y248504D02*
D03*
X114284D02*
D03*
X132000Y280000D02*
D03*
X114284D02*
D03*
D28*
X300000Y340000D02*
D03*
Y343937D02*
D03*
D29*
X279100Y332494D02*
D03*
X270000D02*
D03*
X260900D02*
D03*
D30*
X270000Y307294D02*
D03*
D31*
X229800Y198000D02*
D03*
X218000D02*
D03*
X141800Y220000D02*
D03*
X130000D02*
D03*
X201800Y218000D02*
D03*
X190000D02*
D03*
X233800D02*
D03*
X222000D02*
D03*
D32*
X300000Y308200D02*
D03*
Y320000D02*
D03*
D33*
X180323D02*
D03*
X195677D02*
D03*
M02*
