G04*
G04 #@! TF.GenerationSoftware,Altium Limited,Altium Designer,20.1.14 (287)*
G04*
G04 Layer_Physical_Order=2*
G04 Layer_Color=16711680*
%FSLAX25Y25*%
%MOIN*%
G70*
G04*
G04 #@! TF.SameCoordinates,6D664569-D151-4749-B7FC-417D050C6B8F*
G04*
G04*
G04 #@! TF.FilePolarity,Positive*
G04*
G01*
G75*
%ADD11C,0.00600*%
%ADD56C,0.02000*%
%ADD57C,0.06000*%
%ADD58C,0.07000*%
%ADD59C,0.06496*%
%ADD60C,0.09449*%
%ADD61C,0.04756*%
%ADD62O,0.05150X0.10299*%
%ADD63C,0.02500*%
G36*
X378369Y1631D02*
X1631D01*
Y378369D01*
X378369D01*
Y1631D01*
D02*
G37*
%LPC*%
G36*
X71400Y351038D02*
Y345830D01*
X76608D01*
X76477Y346824D01*
X75900Y348217D01*
X74982Y349412D01*
X73787Y350330D01*
X72394Y350907D01*
X71400Y351038D01*
D02*
G37*
G36*
X70400D02*
X69405Y350907D01*
X68013Y350330D01*
X66817Y349412D01*
X65899Y348217D01*
X65323Y346824D01*
X65192Y345830D01*
X70400D01*
Y351038D01*
D02*
G37*
G36*
X213650Y345806D02*
X212872Y345703D01*
X212148Y345403D01*
X211526Y344926D01*
X211048Y344304D01*
X210748Y343580D01*
X210252D01*
X209952Y344304D01*
X209474Y344926D01*
X208852Y345403D01*
X208128Y345703D01*
X207350Y345806D01*
X206573Y345703D01*
X205849Y345403D01*
X205226Y344926D01*
X204749Y344304D01*
X204449Y343580D01*
X204347Y342802D01*
X204449Y342025D01*
X204749Y341300D01*
X205226Y340678D01*
X205849Y340201D01*
X206573Y339901D01*
X207350Y339798D01*
X207482Y339816D01*
X207805Y339354D01*
X207599Y338855D01*
X207496Y338078D01*
X207599Y337300D01*
X207899Y336576D01*
X208376Y335954D01*
X208998Y335476D01*
X209723Y335176D01*
X210500Y335074D01*
X211277Y335176D01*
X212002Y335476D01*
X212624Y335954D01*
X213101Y336576D01*
X213401Y337300D01*
X213898D01*
X214198Y336576D01*
X214675Y335954D01*
X215297Y335476D01*
X216022Y335176D01*
X216799Y335074D01*
X217577Y335176D01*
X218301Y335476D01*
X218923Y335954D01*
X219401Y336576D01*
X219701Y337300D01*
X219803Y338078D01*
X219701Y338855D01*
X219401Y339580D01*
X218923Y340202D01*
X218301Y340679D01*
X217577Y340979D01*
X216799Y341081D01*
X216668Y341064D01*
X216344Y341526D01*
X216551Y342025D01*
X216653Y342802D01*
X216551Y343580D01*
X216251Y344304D01*
X215774Y344926D01*
X215151Y345403D01*
X214427Y345703D01*
X213650Y345806D01*
D02*
G37*
G36*
X76608Y344830D02*
X71400D01*
Y339622D01*
X72394Y339753D01*
X73787Y340329D01*
X74982Y341247D01*
X75900Y342443D01*
X76477Y343835D01*
X76608Y344830D01*
D02*
G37*
G36*
X70400D02*
X65192D01*
X65323Y343835D01*
X65899Y342443D01*
X66817Y341247D01*
X68013Y340329D01*
X69405Y339753D01*
X70400Y339622D01*
Y344830D01*
D02*
G37*
G36*
X52896Y339258D02*
Y334050D01*
X58104D01*
X57973Y335045D01*
X57396Y336437D01*
X56479Y337633D01*
X55283Y338550D01*
X53890Y339127D01*
X52896Y339258D01*
D02*
G37*
G36*
X51896D02*
X50901Y339127D01*
X49509Y338550D01*
X48313Y337633D01*
X47396Y336437D01*
X46819Y335045D01*
X46688Y334050D01*
X51896D01*
Y339258D01*
D02*
G37*
G36*
Y333050D02*
X46688D01*
X46819Y332056D01*
X47396Y330663D01*
X48313Y329467D01*
X49509Y328550D01*
X50901Y327973D01*
X51896Y327842D01*
Y333050D01*
D02*
G37*
G36*
X58104D02*
X52896D01*
Y327842D01*
X53890Y327973D01*
X55283Y328550D01*
X56479Y329467D01*
X57396Y330663D01*
X57973Y332056D01*
X58104Y333050D01*
D02*
G37*
G36*
X160000Y333881D02*
X158995Y333749D01*
X158059Y333361D01*
X157256Y332744D01*
X156639Y331941D01*
X156251Y331005D01*
X156119Y330000D01*
X156251Y328995D01*
X156639Y328059D01*
X157256Y327256D01*
X158059Y326639D01*
X158995Y326251D01*
X160000Y326119D01*
X161004Y326251D01*
X161941Y326639D01*
X162744Y327256D01*
X163361Y328059D01*
X163749Y328995D01*
X163881Y330000D01*
X163749Y331005D01*
X163361Y331941D01*
X162744Y332744D01*
X161941Y333361D01*
X161004Y333749D01*
X160000Y333881D01*
D02*
G37*
G36*
X150000D02*
X148995Y333749D01*
X148059Y333361D01*
X147256Y332744D01*
X146639Y331941D01*
X146251Y331005D01*
X146119Y330000D01*
X146251Y328995D01*
X146639Y328059D01*
X147256Y327256D01*
X148059Y326639D01*
X148995Y326251D01*
X150000Y326119D01*
X151005Y326251D01*
X151941Y326639D01*
X152744Y327256D01*
X153361Y328059D01*
X153749Y328995D01*
X153881Y330000D01*
X153749Y331005D01*
X153361Y331941D01*
X152744Y332744D01*
X151941Y333361D01*
X151005Y333749D01*
X150000Y333881D01*
D02*
G37*
G36*
X140000D02*
X138996Y333749D01*
X138059Y333361D01*
X137256Y332744D01*
X136639Y331941D01*
X136251Y331005D01*
X136119Y330000D01*
X136251Y328995D01*
X136639Y328059D01*
X137256Y327256D01*
X138059Y326639D01*
X138996Y326251D01*
X140000Y326119D01*
X141005Y326251D01*
X141941Y326639D01*
X142744Y327256D01*
X143361Y328059D01*
X143749Y328995D01*
X143881Y330000D01*
X143749Y331005D01*
X143361Y331941D01*
X142744Y332744D01*
X141941Y333361D01*
X141005Y333749D01*
X140000Y333881D01*
D02*
G37*
G36*
X70900Y327200D02*
X69510Y327017D01*
X68214Y326481D01*
X67102Y325627D01*
X66249Y324515D01*
X65712Y323220D01*
X65529Y321830D01*
X65712Y320440D01*
X66249Y319145D01*
X67102Y318032D01*
X68214Y317179D01*
X69510Y316642D01*
X70900Y316459D01*
X72290Y316642D01*
X73585Y317179D01*
X74697Y318032D01*
X75551Y319145D01*
X76087Y320440D01*
X76270Y321830D01*
X76087Y323220D01*
X75551Y324515D01*
X74697Y325627D01*
X73585Y326481D01*
X72290Y327017D01*
X70900Y327200D01*
D02*
G37*
G36*
X192000Y312136D02*
X191278Y311993D01*
X190666Y311584D01*
X190257Y310972D01*
X190114Y310250D01*
X190257Y309528D01*
X190666Y308916D01*
X191082Y308638D01*
Y304612D01*
X190666Y304334D01*
X190257Y303722D01*
X190114Y303000D01*
X190257Y302278D01*
X190666Y301666D01*
X191278Y301257D01*
X192000Y301114D01*
X192722Y301257D01*
X193334Y301666D01*
X193743Y302278D01*
X193886Y303000D01*
X193743Y303722D01*
X193334Y304334D01*
X192918Y304612D01*
Y308638D01*
X193334Y308916D01*
X193743Y309528D01*
X193886Y310250D01*
X193743Y310972D01*
X193334Y311584D01*
X192722Y311993D01*
X192000Y312136D01*
D02*
G37*
G36*
X335000Y304135D02*
X333930Y303994D01*
X332932Y303581D01*
X332076Y302924D01*
X331419Y302068D01*
X331006Y301070D01*
X330865Y300000D01*
X331006Y298930D01*
X331419Y297932D01*
X332076Y297076D01*
X332932Y296419D01*
X333930Y296006D01*
X335000Y295865D01*
X336070Y296006D01*
X337068Y296419D01*
X337924Y297076D01*
X338581Y297932D01*
X338995Y298930D01*
X339135Y300000D01*
X338995Y301070D01*
X338581Y302068D01*
X337924Y302924D01*
X337068Y303581D01*
X336070Y303994D01*
X335000Y304135D01*
D02*
G37*
G36*
X220000Y302236D02*
X219278Y302093D01*
X218666Y301684D01*
X218257Y301072D01*
X218114Y300350D01*
X218257Y299628D01*
X218666Y299016D01*
X219082Y298738D01*
Y296462D01*
X218666Y296184D01*
X218257Y295572D01*
X218114Y294850D01*
X218257Y294128D01*
X218666Y293516D01*
X219278Y293107D01*
X220000Y292964D01*
X220722Y293107D01*
X221334Y293516D01*
X221743Y294128D01*
X221886Y294850D01*
X221743Y295572D01*
X221334Y296184D01*
X220918Y296462D01*
Y298738D01*
X221334Y299016D01*
X221743Y299628D01*
X221886Y300350D01*
X221743Y301072D01*
X221334Y301684D01*
X220722Y302093D01*
X220000Y302236D01*
D02*
G37*
G36*
X158000Y293886D02*
X157278Y293743D01*
X156666Y293334D01*
X156388Y292918D01*
X152299D01*
X152021Y293334D01*
X151409Y293743D01*
X150687Y293886D01*
X149965Y293743D01*
X149353Y293334D01*
X148944Y292722D01*
X148801Y292000D01*
X148944Y291278D01*
X149353Y290666D01*
X149965Y290257D01*
X150687Y290114D01*
X151409Y290257D01*
X152021Y290666D01*
X152299Y291082D01*
X156388D01*
X156666Y290666D01*
X157278Y290257D01*
X158000Y290114D01*
X158722Y290257D01*
X159334Y290666D01*
X159743Y291278D01*
X159886Y292000D01*
X159743Y292722D01*
X159334Y293334D01*
X158722Y293743D01*
X158000Y293886D01*
D02*
G37*
G36*
X185000Y287886D02*
X184278Y287743D01*
X183666Y287334D01*
X183257Y286722D01*
X183114Y286000D01*
X183257Y285278D01*
X183666Y284666D01*
X184082Y284388D01*
Y281612D01*
X183666Y281334D01*
X183257Y280722D01*
X183114Y280000D01*
X183257Y279278D01*
X183666Y278666D01*
X184278Y278257D01*
X185000Y278114D01*
X185722Y278257D01*
X186334Y278666D01*
X186743Y279278D01*
X186886Y280000D01*
X186743Y280722D01*
X186334Y281334D01*
X185918Y281612D01*
Y284388D01*
X186334Y284666D01*
X186743Y285278D01*
X186886Y286000D01*
X186743Y286722D01*
X186334Y287334D01*
X185722Y287743D01*
X185000Y287886D01*
D02*
G37*
G36*
X227000Y286886D02*
X226278Y286743D01*
X225666Y286334D01*
X225257Y285722D01*
X225114Y285000D01*
X225257Y284278D01*
X225666Y283666D01*
X226007Y283438D01*
Y280662D01*
X225516Y280334D01*
X225107Y279722D01*
X224964Y279000D01*
X225107Y278278D01*
X225516Y277666D01*
X226128Y277257D01*
X226850Y277114D01*
X227572Y277257D01*
X228184Y277666D01*
X228593Y278278D01*
X228736Y279000D01*
X228593Y279722D01*
X228184Y280334D01*
X227843Y280562D01*
Y283338D01*
X228334Y283666D01*
X228743Y284278D01*
X228886Y285000D01*
X228743Y285722D01*
X228334Y286334D01*
X227722Y286743D01*
X227000Y286886D01*
D02*
G37*
G36*
X220000Y287886D02*
X219278Y287743D01*
X218666Y287334D01*
X218257Y286722D01*
X218114Y286000D01*
X218257Y285278D01*
X218666Y284666D01*
X219082Y284388D01*
Y280612D01*
X218666Y280334D01*
X218257Y279722D01*
X218114Y279000D01*
X218257Y278278D01*
X218666Y277666D01*
X219278Y277257D01*
X220000Y277114D01*
X220722Y277257D01*
X221334Y277666D01*
X221743Y278278D01*
X221886Y279000D01*
X221743Y279722D01*
X221334Y280334D01*
X220918Y280612D01*
Y284388D01*
X221334Y284666D01*
X221743Y285278D01*
X221886Y286000D01*
X221743Y286722D01*
X221334Y287334D01*
X220722Y287743D01*
X220000Y287886D01*
D02*
G37*
G36*
X233000Y266886D02*
X232278Y266743D01*
X231666Y266334D01*
X231388Y265918D01*
X228612D01*
X228334Y266334D01*
X227722Y266743D01*
X227000Y266886D01*
X226278Y266743D01*
X225666Y266334D01*
X225257Y265722D01*
X225114Y265000D01*
X225257Y264278D01*
X225666Y263666D01*
X226278Y263257D01*
X227000Y263114D01*
X227722Y263257D01*
X228334Y263666D01*
X228612Y264082D01*
X231388D01*
X231666Y263666D01*
X232278Y263257D01*
X233000Y263114D01*
X233722Y263257D01*
X234334Y263666D01*
X234743Y264278D01*
X234886Y265000D01*
X234743Y265722D01*
X234334Y266334D01*
X233722Y266743D01*
X233000Y266886D01*
D02*
G37*
G36*
X234000Y258886D02*
X233278Y258743D01*
X232666Y258334D01*
X232388Y257918D01*
X227612D01*
X227334Y258334D01*
X226722Y258743D01*
X226000Y258886D01*
X225278Y258743D01*
X224666Y258334D01*
X224257Y257722D01*
X224114Y257000D01*
X224257Y256278D01*
X224666Y255666D01*
X225278Y255257D01*
X226000Y255114D01*
X226722Y255257D01*
X227334Y255666D01*
X227612Y256082D01*
X232388D01*
X232666Y255666D01*
X233278Y255257D01*
X234000Y255114D01*
X234722Y255257D01*
X235334Y255666D01*
X235743Y256278D01*
X235886Y257000D01*
X235743Y257722D01*
X235334Y258334D01*
X234722Y258743D01*
X234000Y258886D01*
D02*
G37*
G36*
X300500Y239969D02*
Y236500D01*
X303969D01*
X303897Y237044D01*
X303494Y238017D01*
X302853Y238853D01*
X302017Y239494D01*
X301044Y239897D01*
X300500Y239969D01*
D02*
G37*
G36*
X299500D02*
X298956Y239897D01*
X297983Y239494D01*
X297147Y238853D01*
X296506Y238017D01*
X296103Y237044D01*
X296031Y236500D01*
X299500D01*
Y239969D01*
D02*
G37*
G36*
X270000Y239631D02*
X269060Y239507D01*
X268184Y239145D01*
X267432Y238567D01*
X266855Y237815D01*
X266493Y236940D01*
X266369Y236000D01*
X266493Y235060D01*
X266855Y234185D01*
X267432Y233433D01*
X268184Y232855D01*
X269060Y232493D01*
X270000Y232369D01*
X270940Y232493D01*
X271815Y232855D01*
X272568Y233433D01*
X273145Y234185D01*
X273507Y235060D01*
X273631Y236000D01*
X273507Y236940D01*
X273145Y237815D01*
X272568Y238567D01*
X271815Y239145D01*
X270940Y239507D01*
X270000Y239631D01*
D02*
G37*
G36*
X303969Y235500D02*
X300500D01*
Y232031D01*
X301044Y232103D01*
X302017Y232506D01*
X302853Y233147D01*
X303494Y233983D01*
X303897Y234956D01*
X303969Y235500D01*
D02*
G37*
G36*
X299500D02*
X296031D01*
X296103Y234956D01*
X296506Y233983D01*
X297147Y233147D01*
X297983Y232506D01*
X298956Y232103D01*
X299500Y232031D01*
Y235500D01*
D02*
G37*
G36*
X300500Y229969D02*
Y226500D01*
X303969D01*
X303897Y227044D01*
X303494Y228017D01*
X302853Y228853D01*
X302017Y229494D01*
X301044Y229897D01*
X300500Y229969D01*
D02*
G37*
G36*
X299500D02*
X298956Y229897D01*
X297983Y229494D01*
X297147Y228853D01*
X296506Y228017D01*
X296103Y227044D01*
X296031Y226500D01*
X299500D01*
Y229969D01*
D02*
G37*
G36*
X270000Y229631D02*
X269060Y229507D01*
X268184Y229145D01*
X267432Y228568D01*
X266855Y227816D01*
X266493Y226940D01*
X266369Y226000D01*
X266493Y225060D01*
X266855Y224184D01*
X267432Y223432D01*
X268184Y222855D01*
X269060Y222493D01*
X270000Y222369D01*
X270940Y222493D01*
X271815Y222855D01*
X272568Y223432D01*
X273145Y224184D01*
X273507Y225060D01*
X273631Y226000D01*
X273507Y226940D01*
X273145Y227816D01*
X272568Y228568D01*
X271815Y229145D01*
X270940Y229507D01*
X270000Y229631D01*
D02*
G37*
G36*
X303969Y225500D02*
X300500D01*
Y222031D01*
X301044Y222103D01*
X302017Y222506D01*
X302853Y223147D01*
X303494Y223983D01*
X303897Y224956D01*
X303969Y225500D01*
D02*
G37*
G36*
X299500D02*
X296031D01*
X296103Y224956D01*
X296506Y223983D01*
X297147Y223147D01*
X297983Y222506D01*
X298956Y222103D01*
X299500Y222031D01*
Y225500D01*
D02*
G37*
G36*
X300500Y219969D02*
Y216500D01*
X303969D01*
X303897Y217044D01*
X303494Y218017D01*
X302853Y218853D01*
X302017Y219494D01*
X301044Y219897D01*
X300500Y219969D01*
D02*
G37*
G36*
X299500D02*
X298956Y219897D01*
X297983Y219494D01*
X297147Y218853D01*
X296506Y218017D01*
X296103Y217044D01*
X296031Y216500D01*
X299500D01*
Y219969D01*
D02*
G37*
G36*
X270000Y219631D02*
X269060Y219507D01*
X268184Y219145D01*
X267432Y218567D01*
X266855Y217815D01*
X266493Y216940D01*
X266369Y216000D01*
X266493Y215060D01*
X266855Y214184D01*
X267432Y213433D01*
X268184Y212855D01*
X269060Y212493D01*
X270000Y212369D01*
X270940Y212493D01*
X271815Y212855D01*
X272568Y213433D01*
X273145Y214184D01*
X273507Y215060D01*
X273631Y216000D01*
X273507Y216940D01*
X273145Y217815D01*
X272568Y218567D01*
X271815Y219145D01*
X270940Y219507D01*
X270000Y219631D01*
D02*
G37*
G36*
X303969Y215500D02*
X300500D01*
Y212031D01*
X301044Y212103D01*
X302017Y212506D01*
X302853Y213147D01*
X303494Y213983D01*
X303897Y214956D01*
X303969Y215500D01*
D02*
G37*
G36*
X299500D02*
X296031D01*
X296103Y214956D01*
X296506Y213983D01*
X297147Y213147D01*
X297983Y212506D01*
X298956Y212103D01*
X299500Y212031D01*
Y215500D01*
D02*
G37*
G36*
X300500Y209969D02*
Y206500D01*
X303969D01*
X303897Y207044D01*
X303494Y208017D01*
X302853Y208853D01*
X302017Y209494D01*
X301044Y209897D01*
X300500Y209969D01*
D02*
G37*
G36*
X270500D02*
Y206500D01*
X273969D01*
X273897Y207044D01*
X273494Y208017D01*
X272853Y208853D01*
X272017Y209494D01*
X271044Y209897D01*
X270500Y209969D01*
D02*
G37*
G36*
X299500D02*
X298956Y209897D01*
X297983Y209494D01*
X297147Y208853D01*
X296506Y208017D01*
X296103Y207044D01*
X296031Y206500D01*
X299500D01*
Y209969D01*
D02*
G37*
G36*
X269500D02*
X268956Y209897D01*
X267983Y209494D01*
X267147Y208853D01*
X266506Y208017D01*
X266103Y207044D01*
X266031Y206500D01*
X269500D01*
Y209969D01*
D02*
G37*
G36*
X303969Y205500D02*
X300500D01*
Y202031D01*
X301044Y202103D01*
X302017Y202506D01*
X302853Y203147D01*
X303494Y203983D01*
X303897Y204956D01*
X303969Y205500D01*
D02*
G37*
G36*
X273969D02*
X270500D01*
Y202031D01*
X271044Y202103D01*
X272017Y202506D01*
X272853Y203147D01*
X273494Y203983D01*
X273897Y204956D01*
X273969Y205500D01*
D02*
G37*
G36*
X299500D02*
X296031D01*
X296103Y204956D01*
X296506Y203983D01*
X297147Y203147D01*
X297983Y202506D01*
X298956Y202103D01*
X299500Y202031D01*
Y205500D01*
D02*
G37*
G36*
X269500D02*
X266031D01*
X266103Y204956D01*
X266506Y203983D01*
X267147Y203147D01*
X267983Y202506D01*
X268956Y202103D01*
X269500Y202031D01*
Y205500D01*
D02*
G37*
G36*
X50500Y203969D02*
Y200500D01*
X53969D01*
X53897Y201044D01*
X53494Y202017D01*
X52853Y202853D01*
X52017Y203494D01*
X51044Y203897D01*
X50500Y203969D01*
D02*
G37*
G36*
X49500D02*
X48956Y203897D01*
X47983Y203494D01*
X47147Y202853D01*
X46506Y202017D01*
X46103Y201044D01*
X46031Y200500D01*
X49500D01*
Y203969D01*
D02*
G37*
G36*
X241896Y201991D02*
X241174Y201847D01*
X240562Y201438D01*
X240153Y200826D01*
X240009Y200104D01*
X240153Y199382D01*
X240562Y198771D01*
X241174Y198362D01*
X241896Y198218D01*
X242618Y198362D01*
X243229Y198771D01*
X243508Y199187D01*
X248960D01*
X249114Y199000D01*
X249257Y198278D01*
X249666Y197666D01*
X250278Y197257D01*
X251000Y197114D01*
X251722Y197257D01*
X252334Y197666D01*
X252743Y198278D01*
X252886Y199000D01*
X252743Y199722D01*
X252334Y200334D01*
X251722Y200743D01*
X251000Y200886D01*
X250496Y200786D01*
X250247Y200952D01*
X249896Y201022D01*
X243508D01*
X243229Y201438D01*
X242618Y201847D01*
X241896Y201991D01*
D02*
G37*
G36*
X300500Y199969D02*
Y196500D01*
X303969D01*
X303897Y197044D01*
X303494Y198017D01*
X302853Y198853D01*
X302017Y199494D01*
X301044Y199897D01*
X300500Y199969D01*
D02*
G37*
G36*
X299500D02*
X298956Y199897D01*
X297983Y199494D01*
X297147Y198853D01*
X296506Y198017D01*
X296103Y197044D01*
X296031Y196500D01*
X299500D01*
Y199969D01*
D02*
G37*
G36*
X80000Y203631D02*
X79060Y203507D01*
X78184Y203145D01*
X77432Y202568D01*
X76855Y201816D01*
X76493Y200940D01*
X76369Y200000D01*
X76493Y199060D01*
X76855Y198185D01*
X77432Y197432D01*
X78184Y196855D01*
X79060Y196493D01*
X80000Y196369D01*
X80940Y196493D01*
X81815Y196855D01*
X82568Y197432D01*
X83145Y198185D01*
X83507Y199060D01*
X83631Y200000D01*
X83507Y200940D01*
X83145Y201816D01*
X82568Y202568D01*
X81815Y203145D01*
X80940Y203507D01*
X80000Y203631D01*
D02*
G37*
G36*
X53969Y199500D02*
X50500D01*
Y196031D01*
X51044Y196103D01*
X52017Y196506D01*
X52853Y197147D01*
X53494Y197983D01*
X53897Y198956D01*
X53969Y199500D01*
D02*
G37*
G36*
X49500D02*
X46031D01*
X46103Y198956D01*
X46506Y197983D01*
X47147Y197147D01*
X47983Y196506D01*
X48956Y196103D01*
X49500Y196031D01*
Y199500D01*
D02*
G37*
G36*
X270000Y199631D02*
X269060Y199507D01*
X268184Y199145D01*
X267432Y198568D01*
X266855Y197816D01*
X266493Y196940D01*
X266369Y196000D01*
X266493Y195060D01*
X266855Y194185D01*
X267432Y193432D01*
X268184Y192855D01*
X269060Y192493D01*
X270000Y192369D01*
X270940Y192493D01*
X271815Y192855D01*
X272568Y193432D01*
X273145Y194185D01*
X273507Y195060D01*
X273631Y196000D01*
X273507Y196940D01*
X273145Y197816D01*
X272568Y198568D01*
X271815Y199145D01*
X270940Y199507D01*
X270000Y199631D01*
D02*
G37*
G36*
X303969Y195500D02*
X300500D01*
Y192031D01*
X301044Y192103D01*
X302017Y192506D01*
X302853Y193147D01*
X303494Y193983D01*
X303897Y194956D01*
X303969Y195500D01*
D02*
G37*
G36*
X299500D02*
X296031D01*
X296103Y194956D01*
X296506Y193983D01*
X297147Y193147D01*
X297983Y192506D01*
X298956Y192103D01*
X299500Y192031D01*
Y195500D01*
D02*
G37*
G36*
X50500Y193969D02*
Y190500D01*
X53969D01*
X53897Y191044D01*
X53494Y192017D01*
X52853Y192853D01*
X52017Y193494D01*
X51044Y193897D01*
X50500Y193969D01*
D02*
G37*
G36*
X49500D02*
X48956Y193897D01*
X47983Y193494D01*
X47147Y192853D01*
X46506Y192017D01*
X46103Y191044D01*
X46031Y190500D01*
X49500D01*
Y193969D01*
D02*
G37*
G36*
X300500Y189969D02*
Y186500D01*
X303969D01*
X303897Y187044D01*
X303494Y188017D01*
X302853Y188853D01*
X302017Y189494D01*
X301044Y189897D01*
X300500Y189969D01*
D02*
G37*
G36*
X299500D02*
X298956Y189897D01*
X297983Y189494D01*
X297147Y188853D01*
X296506Y188017D01*
X296103Y187044D01*
X296031Y186500D01*
X299500D01*
Y189969D01*
D02*
G37*
G36*
X80000Y193631D02*
X79060Y193507D01*
X78184Y193145D01*
X77432Y192568D01*
X76855Y191815D01*
X76493Y190940D01*
X76369Y190000D01*
X76493Y189060D01*
X76855Y188184D01*
X77432Y187432D01*
X78184Y186855D01*
X79060Y186493D01*
X80000Y186369D01*
X80940Y186493D01*
X81815Y186855D01*
X82568Y187432D01*
X83145Y188184D01*
X83507Y189060D01*
X83631Y190000D01*
X83507Y190940D01*
X83145Y191815D01*
X82568Y192568D01*
X81815Y193145D01*
X80940Y193507D01*
X80000Y193631D01*
D02*
G37*
G36*
X53969Y189500D02*
X50500D01*
Y186031D01*
X51044Y186103D01*
X52017Y186506D01*
X52853Y187147D01*
X53494Y187983D01*
X53897Y188956D01*
X53969Y189500D01*
D02*
G37*
G36*
X49500D02*
X46031D01*
X46103Y188956D01*
X46506Y187983D01*
X47147Y187147D01*
X47983Y186506D01*
X48956Y186103D01*
X49500Y186031D01*
Y189500D01*
D02*
G37*
G36*
X270000Y189631D02*
X269060Y189507D01*
X268184Y189145D01*
X267432Y188568D01*
X266855Y187815D01*
X266493Y186940D01*
X266369Y186000D01*
X266493Y185060D01*
X266855Y184185D01*
X267432Y183432D01*
X268184Y182855D01*
X269060Y182493D01*
X270000Y182369D01*
X270940Y182493D01*
X271815Y182855D01*
X272568Y183432D01*
X273145Y184185D01*
X273507Y185060D01*
X273631Y186000D01*
X273507Y186940D01*
X273145Y187815D01*
X272568Y188568D01*
X271815Y189145D01*
X270940Y189507D01*
X270000Y189631D01*
D02*
G37*
G36*
X303969Y185500D02*
X300500D01*
Y182031D01*
X301044Y182103D01*
X302017Y182506D01*
X302853Y183147D01*
X303494Y183983D01*
X303897Y184956D01*
X303969Y185500D01*
D02*
G37*
G36*
X299500D02*
X296031D01*
X296103Y184956D01*
X296506Y183983D01*
X297147Y183147D01*
X297983Y182506D01*
X298956Y182103D01*
X299500Y182031D01*
Y185500D01*
D02*
G37*
G36*
X50500Y183969D02*
Y180500D01*
X53969D01*
X53897Y181044D01*
X53494Y182017D01*
X52853Y182853D01*
X52017Y183494D01*
X51044Y183897D01*
X50500Y183969D01*
D02*
G37*
G36*
X49500D02*
X48956Y183897D01*
X47983Y183494D01*
X47147Y182853D01*
X46506Y182017D01*
X46103Y181044D01*
X46031Y180500D01*
X49500D01*
Y183969D01*
D02*
G37*
G36*
X286000Y191886D02*
X285278Y191743D01*
X284666Y191334D01*
X284257Y190722D01*
X284114Y190000D01*
X284257Y189278D01*
X284666Y188666D01*
X285082Y188388D01*
Y183612D01*
X284666Y183334D01*
X284257Y182722D01*
X284114Y182000D01*
X284257Y181278D01*
X284666Y180666D01*
X285278Y180257D01*
X286000Y180114D01*
X286722Y180257D01*
X287334Y180666D01*
X287743Y181278D01*
X287886Y182000D01*
X287743Y182722D01*
X287334Y183334D01*
X286918Y183612D01*
Y188388D01*
X287334Y188666D01*
X287743Y189278D01*
X287886Y190000D01*
X287743Y190722D01*
X287334Y191334D01*
X286722Y191743D01*
X286000Y191886D01*
D02*
G37*
G36*
X300500Y179969D02*
Y176500D01*
X303969D01*
X303897Y177044D01*
X303494Y178017D01*
X302853Y178853D01*
X302017Y179494D01*
X301044Y179897D01*
X300500Y179969D01*
D02*
G37*
G36*
X299500D02*
X298956Y179897D01*
X297983Y179494D01*
X297147Y178853D01*
X296506Y178017D01*
X296103Y177044D01*
X296031Y176500D01*
X299500D01*
Y179969D01*
D02*
G37*
G36*
X80000Y183631D02*
X79060Y183507D01*
X78184Y183145D01*
X77432Y182568D01*
X76855Y181816D01*
X76493Y180940D01*
X76369Y180000D01*
X76493Y179060D01*
X76855Y178184D01*
X77432Y177432D01*
X78184Y176855D01*
X79060Y176493D01*
X80000Y176369D01*
X80940Y176493D01*
X81815Y176855D01*
X82568Y177432D01*
X83145Y178184D01*
X83507Y179060D01*
X83631Y180000D01*
X83507Y180940D01*
X83145Y181816D01*
X82568Y182568D01*
X81815Y183145D01*
X80940Y183507D01*
X80000Y183631D01*
D02*
G37*
G36*
X53969Y179500D02*
X50500D01*
Y176031D01*
X51044Y176103D01*
X52017Y176506D01*
X52853Y177147D01*
X53494Y177983D01*
X53897Y178956D01*
X53969Y179500D01*
D02*
G37*
G36*
X49500D02*
X46031D01*
X46103Y178956D01*
X46506Y177983D01*
X47147Y177147D01*
X47983Y176506D01*
X48956Y176103D01*
X49500Y176031D01*
Y179500D01*
D02*
G37*
G36*
X270000Y179631D02*
X269060Y179507D01*
X268184Y179145D01*
X267432Y178568D01*
X266855Y177815D01*
X266493Y176940D01*
X266369Y176000D01*
X266493Y175060D01*
X266855Y174185D01*
X267432Y173432D01*
X268184Y172855D01*
X269060Y172493D01*
X270000Y172369D01*
X270940Y172493D01*
X271815Y172855D01*
X272568Y173432D01*
X273145Y174185D01*
X273507Y175060D01*
X273631Y176000D01*
X273507Y176940D01*
X273145Y177815D01*
X272568Y178568D01*
X271815Y179145D01*
X270940Y179507D01*
X270000Y179631D01*
D02*
G37*
G36*
X303969Y175500D02*
X300500D01*
Y172031D01*
X301044Y172103D01*
X302017Y172506D01*
X302853Y173147D01*
X303494Y173983D01*
X303897Y174956D01*
X303969Y175500D01*
D02*
G37*
G36*
X299500D02*
X296031D01*
X296103Y174956D01*
X296506Y173983D01*
X297147Y173147D01*
X297983Y172506D01*
X298956Y172103D01*
X299500Y172031D01*
Y175500D01*
D02*
G37*
G36*
X50500Y173969D02*
Y170500D01*
X53969D01*
X53897Y171044D01*
X53494Y172017D01*
X52853Y172853D01*
X52017Y173494D01*
X51044Y173897D01*
X50500Y173969D01*
D02*
G37*
G36*
X49500D02*
X48956Y173897D01*
X47983Y173494D01*
X47147Y172853D01*
X46506Y172017D01*
X46103Y171044D01*
X46031Y170500D01*
X49500D01*
Y173969D01*
D02*
G37*
G36*
X300500Y169969D02*
Y166500D01*
X303969D01*
X303897Y167044D01*
X303494Y168017D01*
X302853Y168853D01*
X302017Y169494D01*
X301044Y169897D01*
X300500Y169969D01*
D02*
G37*
G36*
X299500D02*
X298956Y169897D01*
X297983Y169494D01*
X297147Y168853D01*
X296506Y168017D01*
X296103Y167044D01*
X296031Y166500D01*
X299500D01*
Y169969D01*
D02*
G37*
G36*
X80000Y173631D02*
X79060Y173507D01*
X78184Y173145D01*
X77432Y172568D01*
X76855Y171816D01*
X76493Y170940D01*
X76369Y170000D01*
X76493Y169060D01*
X76855Y168184D01*
X77432Y167432D01*
X78184Y166855D01*
X79060Y166493D01*
X80000Y166369D01*
X80940Y166493D01*
X81815Y166855D01*
X82568Y167432D01*
X83145Y168184D01*
X83507Y169060D01*
X83631Y170000D01*
X83507Y170940D01*
X83145Y171816D01*
X82568Y172568D01*
X81815Y173145D01*
X80940Y173507D01*
X80000Y173631D01*
D02*
G37*
G36*
X53969Y169500D02*
X50500D01*
Y166031D01*
X51044Y166103D01*
X52017Y166506D01*
X52853Y167147D01*
X53494Y167983D01*
X53897Y168956D01*
X53969Y169500D01*
D02*
G37*
G36*
X49500D02*
X46031D01*
X46103Y168956D01*
X46506Y167983D01*
X47147Y167147D01*
X47983Y166506D01*
X48956Y166103D01*
X49500Y166031D01*
Y169500D01*
D02*
G37*
G36*
X69000Y174886D02*
X68278Y174743D01*
X67666Y174334D01*
X67257Y173722D01*
X67114Y173000D01*
X67257Y172278D01*
X67666Y171666D01*
X68082Y171388D01*
Y168612D01*
X67666Y168334D01*
X67257Y167722D01*
X67114Y167000D01*
X67257Y166278D01*
X67666Y165666D01*
X68278Y165257D01*
X69000Y165114D01*
X69722Y165257D01*
X70334Y165666D01*
X70743Y166278D01*
X70886Y167000D01*
X70743Y167722D01*
X70334Y168334D01*
X69918Y168612D01*
Y171388D01*
X70334Y171666D01*
X70743Y172278D01*
X70886Y173000D01*
X70743Y173722D01*
X70334Y174334D01*
X69722Y174743D01*
X69000Y174886D01*
D02*
G37*
G36*
X270000Y169631D02*
X269060Y169507D01*
X268184Y169145D01*
X267432Y168568D01*
X266855Y167815D01*
X266493Y166940D01*
X266369Y166000D01*
X266493Y165060D01*
X266855Y164184D01*
X267432Y163432D01*
X268184Y162855D01*
X269060Y162493D01*
X270000Y162369D01*
X270940Y162493D01*
X271815Y162855D01*
X272568Y163432D01*
X273145Y164184D01*
X273507Y165060D01*
X273631Y166000D01*
X273507Y166940D01*
X273145Y167815D01*
X272568Y168568D01*
X271815Y169145D01*
X270940Y169507D01*
X270000Y169631D01*
D02*
G37*
G36*
X303969Y165500D02*
X300500D01*
Y162031D01*
X301044Y162103D01*
X302017Y162506D01*
X302853Y163147D01*
X303494Y163983D01*
X303897Y164956D01*
X303969Y165500D01*
D02*
G37*
G36*
X299500D02*
X296031D01*
X296103Y164956D01*
X296506Y163983D01*
X297147Y163147D01*
X297983Y162506D01*
X298956Y162103D01*
X299500Y162031D01*
Y165500D01*
D02*
G37*
G36*
X50500Y163969D02*
Y160500D01*
X53969D01*
X53897Y161044D01*
X53494Y162017D01*
X52853Y162853D01*
X52017Y163494D01*
X51044Y163897D01*
X50500Y163969D01*
D02*
G37*
G36*
X49500D02*
X48956Y163897D01*
X47983Y163494D01*
X47147Y162853D01*
X46506Y162017D01*
X46103Y161044D01*
X46031Y160500D01*
X49500D01*
Y163969D01*
D02*
G37*
G36*
X300500Y159969D02*
Y156500D01*
X303969D01*
X303897Y157044D01*
X303494Y158017D01*
X302853Y158853D01*
X302017Y159494D01*
X301044Y159897D01*
X300500Y159969D01*
D02*
G37*
G36*
X299500D02*
X298956Y159897D01*
X297983Y159494D01*
X297147Y158853D01*
X296506Y158017D01*
X296103Y157044D01*
X296031Y156500D01*
X299500D01*
Y159969D01*
D02*
G37*
G36*
X80000Y163631D02*
X79060Y163507D01*
X78184Y163145D01*
X77432Y162568D01*
X76855Y161816D01*
X76493Y160940D01*
X76369Y160000D01*
X76493Y159060D01*
X76855Y158185D01*
X77432Y157432D01*
X78184Y156855D01*
X79060Y156493D01*
X80000Y156369D01*
X80940Y156493D01*
X81815Y156855D01*
X82568Y157432D01*
X83145Y158185D01*
X83507Y159060D01*
X83631Y160000D01*
X83507Y160940D01*
X83145Y161816D01*
X82568Y162568D01*
X81815Y163145D01*
X80940Y163507D01*
X80000Y163631D01*
D02*
G37*
G36*
X53969Y159500D02*
X50500D01*
Y156031D01*
X51044Y156103D01*
X52017Y156506D01*
X52853Y157147D01*
X53494Y157983D01*
X53897Y158956D01*
X53969Y159500D01*
D02*
G37*
G36*
X49500D02*
X46031D01*
X46103Y158956D01*
X46506Y157983D01*
X47147Y157147D01*
X47983Y156506D01*
X48956Y156103D01*
X49500Y156031D01*
Y159500D01*
D02*
G37*
G36*
X270000Y159631D02*
X269060Y159507D01*
X268184Y159145D01*
X267432Y158568D01*
X266855Y157816D01*
X266493Y156940D01*
X266369Y156000D01*
X266493Y155060D01*
X266855Y154184D01*
X267432Y153432D01*
X268184Y152855D01*
X269060Y152493D01*
X270000Y152369D01*
X270940Y152493D01*
X271815Y152855D01*
X272568Y153432D01*
X273145Y154184D01*
X273507Y155060D01*
X273631Y156000D01*
X273507Y156940D01*
X273145Y157816D01*
X272568Y158568D01*
X271815Y159145D01*
X270940Y159507D01*
X270000Y159631D01*
D02*
G37*
G36*
X303969Y155500D02*
X300500D01*
Y152031D01*
X301044Y152103D01*
X302017Y152506D01*
X302853Y153147D01*
X303494Y153983D01*
X303897Y154956D01*
X303969Y155500D01*
D02*
G37*
G36*
X299500D02*
X296031D01*
X296103Y154956D01*
X296506Y153983D01*
X297147Y153147D01*
X297983Y152506D01*
X298956Y152103D01*
X299500Y152031D01*
Y155500D01*
D02*
G37*
G36*
X80500Y153969D02*
Y150500D01*
X83969D01*
X83897Y151044D01*
X83494Y152017D01*
X82853Y152853D01*
X82017Y153494D01*
X81044Y153897D01*
X80500Y153969D01*
D02*
G37*
G36*
X50500D02*
Y150500D01*
X53969D01*
X53897Y151044D01*
X53494Y152017D01*
X52853Y152853D01*
X52017Y153494D01*
X51044Y153897D01*
X50500Y153969D01*
D02*
G37*
G36*
X79500D02*
X78956Y153897D01*
X77983Y153494D01*
X77147Y152853D01*
X76506Y152017D01*
X76103Y151044D01*
X76031Y150500D01*
X79500D01*
Y153969D01*
D02*
G37*
G36*
X49500D02*
X48956Y153897D01*
X47983Y153494D01*
X47147Y152853D01*
X46506Y152017D01*
X46103Y151044D01*
X46031Y150500D01*
X49500D01*
Y153969D01*
D02*
G37*
G36*
X300500Y149969D02*
Y146500D01*
X303969D01*
X303897Y147044D01*
X303494Y148017D01*
X302853Y148853D01*
X302017Y149494D01*
X301044Y149897D01*
X300500Y149969D01*
D02*
G37*
G36*
X299500D02*
X298956Y149897D01*
X297983Y149494D01*
X297147Y148853D01*
X296506Y148017D01*
X296103Y147044D01*
X296031Y146500D01*
X299500D01*
Y149969D01*
D02*
G37*
G36*
X53969Y149500D02*
X50500D01*
Y146031D01*
X51044Y146103D01*
X52017Y146506D01*
X52853Y147147D01*
X53494Y147983D01*
X53897Y148956D01*
X53969Y149500D01*
D02*
G37*
G36*
X83969D02*
X80500D01*
Y146031D01*
X81044Y146103D01*
X82017Y146506D01*
X82853Y147147D01*
X83494Y147983D01*
X83897Y148956D01*
X83969Y149500D01*
D02*
G37*
G36*
X49500D02*
X46031D01*
X46103Y148956D01*
X46506Y147983D01*
X47147Y147147D01*
X47983Y146506D01*
X48956Y146103D01*
X49500Y146031D01*
Y149500D01*
D02*
G37*
G36*
X79500D02*
X76031D01*
X76103Y148956D01*
X76506Y147983D01*
X77147Y147147D01*
X77983Y146506D01*
X78956Y146103D01*
X79500Y146031D01*
Y149500D01*
D02*
G37*
G36*
X270000Y149631D02*
X269060Y149507D01*
X268184Y149145D01*
X267432Y148568D01*
X266855Y147816D01*
X266493Y146940D01*
X266369Y146000D01*
X266493Y145060D01*
X266855Y144185D01*
X267432Y143432D01*
X268184Y142855D01*
X269060Y142493D01*
X270000Y142369D01*
X270940Y142493D01*
X271815Y142855D01*
X272568Y143432D01*
X273145Y144185D01*
X273507Y145060D01*
X273631Y146000D01*
X273507Y146940D01*
X273145Y147816D01*
X272568Y148568D01*
X271815Y149145D01*
X270940Y149507D01*
X270000Y149631D01*
D02*
G37*
G36*
X303969Y145500D02*
X300500D01*
Y142031D01*
X301044Y142103D01*
X302017Y142506D01*
X302853Y143147D01*
X303494Y143983D01*
X303897Y144956D01*
X303969Y145500D01*
D02*
G37*
G36*
X299500D02*
X296031D01*
X296103Y144956D01*
X296506Y143983D01*
X297147Y143147D01*
X297983Y142506D01*
X298956Y142103D01*
X299500Y142031D01*
Y145500D01*
D02*
G37*
G36*
X155000Y140886D02*
X154278Y140743D01*
X154112Y140631D01*
X150888D01*
X150722Y140743D01*
X150000Y140886D01*
X149278Y140743D01*
X148666Y140334D01*
X148257Y139722D01*
X148114Y139000D01*
X148257Y138278D01*
X148666Y137666D01*
X149278Y137257D01*
X150000Y137114D01*
X150722Y137257D01*
X150888Y137369D01*
X154112D01*
X154278Y137257D01*
X155000Y137114D01*
X155722Y137257D01*
X156334Y137666D01*
X156743Y138278D01*
X156886Y139000D01*
X156743Y139722D01*
X156334Y140334D01*
X155722Y140743D01*
X155000Y140886D01*
D02*
G37*
G36*
X80500Y143969D02*
Y140500D01*
X83969D01*
X83897Y141044D01*
X83494Y142017D01*
X82853Y142853D01*
X82017Y143494D01*
X81044Y143897D01*
X80500Y143969D01*
D02*
G37*
G36*
X50500D02*
Y140500D01*
X53969D01*
X53897Y141044D01*
X53494Y142017D01*
X52853Y142853D01*
X52017Y143494D01*
X51044Y143897D01*
X50500Y143969D01*
D02*
G37*
G36*
X79500D02*
X78956Y143897D01*
X77983Y143494D01*
X77147Y142853D01*
X76506Y142017D01*
X76103Y141044D01*
X76031Y140500D01*
X79500D01*
Y143969D01*
D02*
G37*
G36*
X49500D02*
X48956Y143897D01*
X47983Y143494D01*
X47147Y142853D01*
X46506Y142017D01*
X46103Y141044D01*
X46031Y140500D01*
X49500D01*
Y143969D01*
D02*
G37*
G36*
X164152Y141282D02*
X163430Y141138D01*
X162818Y140729D01*
X162409Y140118D01*
X162265Y139396D01*
X162409Y138674D01*
X162818Y138062D01*
X163430Y137653D01*
X163983Y137543D01*
X164058Y137493D01*
X164682Y137369D01*
X168412D01*
X168578Y137257D01*
X169300Y137114D01*
X170022Y137257D01*
X170634Y137666D01*
X171043Y138278D01*
X171186Y139000D01*
X171043Y139722D01*
X170634Y140334D01*
X170022Y140743D01*
X169300Y140886D01*
X168578Y140743D01*
X168412Y140631D01*
X165551D01*
X165485Y140729D01*
X164873Y141138D01*
X164152Y141282D01*
D02*
G37*
G36*
X83969Y139500D02*
X80500D01*
Y136031D01*
X81044Y136103D01*
X82017Y136506D01*
X82853Y137147D01*
X83494Y137983D01*
X83897Y138956D01*
X83969Y139500D01*
D02*
G37*
G36*
X53969D02*
X50500D01*
Y136031D01*
X51044Y136103D01*
X52017Y136506D01*
X52853Y137147D01*
X53494Y137983D01*
X53897Y138956D01*
X53969Y139500D01*
D02*
G37*
G36*
X79500D02*
X76031D01*
X76103Y138956D01*
X76506Y137983D01*
X77147Y137147D01*
X77983Y136506D01*
X78956Y136103D01*
X79500Y136031D01*
Y139500D01*
D02*
G37*
G36*
X49500D02*
X46031D01*
X46103Y138956D01*
X46506Y137983D01*
X47147Y137147D01*
X47983Y136506D01*
X48956Y136103D01*
X49500Y136031D01*
Y139500D01*
D02*
G37*
G36*
X300500Y133969D02*
Y130500D01*
X303969D01*
X303897Y131044D01*
X303494Y132017D01*
X302853Y132853D01*
X302017Y133494D01*
X301044Y133897D01*
X300500Y133969D01*
D02*
G37*
G36*
X50500D02*
Y130500D01*
X53969D01*
X53897Y131044D01*
X53494Y132017D01*
X52853Y132853D01*
X52017Y133494D01*
X51044Y133897D01*
X50500Y133969D01*
D02*
G37*
G36*
X49500D02*
X48956Y133897D01*
X47983Y133494D01*
X47147Y132853D01*
X46506Y132017D01*
X46103Y131044D01*
X46031Y130500D01*
X49500D01*
Y133969D01*
D02*
G37*
G36*
X299500D02*
X298956Y133897D01*
X297983Y133494D01*
X297147Y132853D01*
X296506Y132017D01*
X296103Y131044D01*
X296031Y130500D01*
X299500D01*
Y133969D01*
D02*
G37*
G36*
X270000Y133631D02*
X269060Y133507D01*
X268184Y133145D01*
X267432Y132568D01*
X266855Y131816D01*
X266493Y130940D01*
X266369Y130000D01*
X266493Y129060D01*
X266855Y128184D01*
X267432Y127432D01*
X268184Y126855D01*
X269060Y126493D01*
X270000Y126369D01*
X270940Y126493D01*
X271815Y126855D01*
X272568Y127432D01*
X273145Y128184D01*
X273507Y129060D01*
X273631Y130000D01*
X273507Y130940D01*
X273145Y131816D01*
X272568Y132568D01*
X271815Y133145D01*
X270940Y133507D01*
X270000Y133631D01*
D02*
G37*
G36*
X80000D02*
X79060Y133507D01*
X78184Y133145D01*
X77432Y132568D01*
X76855Y131816D01*
X76493Y130940D01*
X76369Y130000D01*
X76493Y129060D01*
X76855Y128184D01*
X77432Y127432D01*
X78184Y126855D01*
X79060Y126493D01*
X80000Y126369D01*
X80940Y126493D01*
X81815Y126855D01*
X82568Y127432D01*
X83145Y128184D01*
X83507Y129060D01*
X83631Y130000D01*
X83507Y130940D01*
X83145Y131816D01*
X82568Y132568D01*
X81815Y133145D01*
X80940Y133507D01*
X80000Y133631D01*
D02*
G37*
G36*
X303969Y129500D02*
X300500D01*
Y126031D01*
X301044Y126103D01*
X302017Y126506D01*
X302853Y127147D01*
X303494Y127983D01*
X303897Y128956D01*
X303969Y129500D01*
D02*
G37*
G36*
X53969D02*
X50500D01*
Y126031D01*
X51044Y126103D01*
X52017Y126506D01*
X52853Y127147D01*
X53494Y127983D01*
X53897Y128956D01*
X53969Y129500D01*
D02*
G37*
G36*
X49500D02*
X46031D01*
X46103Y128956D01*
X46506Y127983D01*
X47147Y127147D01*
X47983Y126506D01*
X48956Y126103D01*
X49500Y126031D01*
Y129500D01*
D02*
G37*
G36*
X299500D02*
X296031D01*
X296103Y128956D01*
X296506Y127983D01*
X297147Y127147D01*
X297983Y126506D01*
X298956Y126103D01*
X299500Y126031D01*
Y129500D01*
D02*
G37*
G36*
X168000Y134886D02*
X167278Y134743D01*
X166666Y134334D01*
X166257Y133722D01*
X166114Y133000D01*
X166257Y132278D01*
X166666Y131666D01*
X167278Y131257D01*
X167475Y131218D01*
X171369Y127324D01*
Y126888D01*
X171257Y126722D01*
X171114Y126000D01*
X171257Y125278D01*
X171666Y124666D01*
X172278Y124257D01*
X173000Y124114D01*
X173722Y124257D01*
X174334Y124666D01*
X174743Y125278D01*
X174886Y126000D01*
X174743Y126722D01*
X174631Y126888D01*
Y128000D01*
X174507Y128624D01*
X174153Y129154D01*
X169782Y133525D01*
X169743Y133722D01*
X169334Y134334D01*
X168722Y134743D01*
X168000Y134886D01*
D02*
G37*
G36*
X300500Y123969D02*
Y120500D01*
X303969D01*
X303897Y121044D01*
X303494Y122017D01*
X302853Y122853D01*
X302017Y123494D01*
X301044Y123897D01*
X300500Y123969D01*
D02*
G37*
G36*
X299500D02*
X298956Y123897D01*
X297983Y123494D01*
X297147Y122853D01*
X296506Y122017D01*
X296103Y121044D01*
X296031Y120500D01*
X299500D01*
Y123969D01*
D02*
G37*
G36*
X152000Y126886D02*
X151278Y126743D01*
X150666Y126334D01*
X150257Y125722D01*
X150114Y125000D01*
X150257Y124278D01*
X150666Y123666D01*
X151082Y123388D01*
Y122312D01*
X150666Y122034D01*
X150257Y121422D01*
X150114Y120700D01*
X150257Y119978D01*
X150666Y119366D01*
X151278Y118957D01*
X152000Y118814D01*
X152722Y118957D01*
X153334Y119366D01*
X153743Y119978D01*
X153886Y120700D01*
X153743Y121422D01*
X153334Y122034D01*
X152918Y122312D01*
Y123388D01*
X153334Y123666D01*
X153743Y124278D01*
X153886Y125000D01*
X153743Y125722D01*
X153334Y126334D01*
X152722Y126743D01*
X152000Y126886D01*
D02*
G37*
G36*
X270000Y123631D02*
X269060Y123507D01*
X268184Y123145D01*
X267432Y122568D01*
X266855Y121816D01*
X266493Y120940D01*
X266369Y120000D01*
X266493Y119060D01*
X266855Y118184D01*
X267432Y117432D01*
X268184Y116855D01*
X269060Y116493D01*
X270000Y116369D01*
X270940Y116493D01*
X271815Y116855D01*
X272568Y117432D01*
X273145Y118184D01*
X273507Y119060D01*
X273631Y120000D01*
X273507Y120940D01*
X273145Y121816D01*
X272568Y122568D01*
X271815Y123145D01*
X270940Y123507D01*
X270000Y123631D01*
D02*
G37*
G36*
X303969Y119500D02*
X300500D01*
Y116031D01*
X301044Y116103D01*
X302017Y116506D01*
X302853Y117147D01*
X303494Y117983D01*
X303897Y118956D01*
X303969Y119500D01*
D02*
G37*
G36*
X299500D02*
X296031D01*
X296103Y118956D01*
X296506Y117983D01*
X297147Y117147D01*
X297983Y116506D01*
X298956Y116103D01*
X299500Y116031D01*
Y119500D01*
D02*
G37*
G36*
X83000Y122886D02*
X82278Y122743D01*
X81666Y122334D01*
X81257Y121722D01*
X81114Y121000D01*
X81257Y120278D01*
X81666Y119666D01*
X82278Y119257D01*
X82475Y119218D01*
X86218Y115475D01*
X86257Y115278D01*
X86666Y114666D01*
X87278Y114257D01*
X88000Y114114D01*
X88722Y114257D01*
X89334Y114666D01*
X89743Y115278D01*
X89886Y116000D01*
X89743Y116722D01*
X89334Y117334D01*
X88722Y117743D01*
X88525Y117782D01*
X84782Y121525D01*
X84743Y121722D01*
X84334Y122334D01*
X83722Y122743D01*
X83000Y122886D01*
D02*
G37*
G36*
X64000Y125886D02*
X63278Y125743D01*
X62666Y125334D01*
X62257Y124722D01*
X62114Y124000D01*
X62257Y123278D01*
X62666Y122666D01*
X63082Y122388D01*
Y117612D01*
X62666Y117334D01*
X62257Y116722D01*
X62114Y116000D01*
X62257Y115278D01*
X62666Y114666D01*
X63278Y114257D01*
X64000Y114114D01*
X64722Y114257D01*
X65334Y114666D01*
X65743Y115278D01*
X65886Y116000D01*
X65743Y116722D01*
X65334Y117334D01*
X64918Y117612D01*
Y122388D01*
X65334Y122666D01*
X65743Y123278D01*
X65886Y124000D01*
X65743Y124722D01*
X65334Y125334D01*
X64722Y125743D01*
X64000Y125886D01*
D02*
G37*
G36*
X300500Y113969D02*
Y110500D01*
X303969D01*
X303897Y111044D01*
X303494Y112017D01*
X302853Y112853D01*
X302017Y113494D01*
X301044Y113897D01*
X300500Y113969D01*
D02*
G37*
G36*
X50500D02*
Y110500D01*
X53969D01*
X53897Y111044D01*
X53494Y112017D01*
X52853Y112853D01*
X52017Y113494D01*
X51044Y113897D01*
X50500Y113969D01*
D02*
G37*
G36*
X299500D02*
X298956Y113897D01*
X297983Y113494D01*
X297147Y112853D01*
X296506Y112017D01*
X296103Y111044D01*
X296031Y110500D01*
X299500D01*
Y113969D01*
D02*
G37*
G36*
X49500D02*
X48956Y113897D01*
X47983Y113494D01*
X47147Y112853D01*
X46506Y112017D01*
X46103Y111044D01*
X46031Y110500D01*
X49500D01*
Y113969D01*
D02*
G37*
G36*
X270000Y113631D02*
X269060Y113507D01*
X268184Y113145D01*
X267432Y112568D01*
X266855Y111816D01*
X266493Y110940D01*
X266369Y110000D01*
X266493Y109060D01*
X266855Y108185D01*
X267432Y107432D01*
X268184Y106855D01*
X269060Y106493D01*
X270000Y106369D01*
X270940Y106493D01*
X271815Y106855D01*
X272568Y107432D01*
X273145Y108185D01*
X273507Y109060D01*
X273631Y110000D01*
X273507Y110940D01*
X273145Y111816D01*
X272568Y112568D01*
X271815Y113145D01*
X270940Y113507D01*
X270000Y113631D01*
D02*
G37*
G36*
X80000D02*
X79060Y113507D01*
X78184Y113145D01*
X77432Y112568D01*
X76855Y111816D01*
X76493Y110940D01*
X76369Y110000D01*
X76493Y109060D01*
X76855Y108185D01*
X77432Y107432D01*
X78184Y106855D01*
X79060Y106493D01*
X80000Y106369D01*
X80940Y106493D01*
X81815Y106855D01*
X82568Y107432D01*
X83145Y108185D01*
X83507Y109060D01*
X83631Y110000D01*
X83507Y110940D01*
X83145Y111816D01*
X82568Y112568D01*
X81815Y113145D01*
X80940Y113507D01*
X80000Y113631D01*
D02*
G37*
G36*
X303969Y109500D02*
X300500D01*
Y106031D01*
X301044Y106103D01*
X302017Y106506D01*
X302853Y107147D01*
X303494Y107983D01*
X303897Y108956D01*
X303969Y109500D01*
D02*
G37*
G36*
X53969D02*
X50500D01*
Y106031D01*
X51044Y106103D01*
X52017Y106506D01*
X52853Y107147D01*
X53494Y107983D01*
X53897Y108956D01*
X53969Y109500D01*
D02*
G37*
G36*
X49500D02*
X46031D01*
X46103Y108956D01*
X46506Y107983D01*
X47147Y107147D01*
X47983Y106506D01*
X48956Y106103D01*
X49500Y106031D01*
Y109500D01*
D02*
G37*
G36*
X299500D02*
X296031D01*
X296103Y108956D01*
X296506Y107983D01*
X297147Y107147D01*
X297983Y106506D01*
X298956Y106103D01*
X299500Y106031D01*
Y109500D01*
D02*
G37*
G36*
X300500Y103969D02*
Y100500D01*
X303969D01*
X303897Y101044D01*
X303494Y102017D01*
X302853Y102853D01*
X302017Y103494D01*
X301044Y103897D01*
X300500Y103969D01*
D02*
G37*
G36*
X50500D02*
Y100500D01*
X53969D01*
X53897Y101044D01*
X53494Y102017D01*
X52853Y102853D01*
X52017Y103494D01*
X51044Y103897D01*
X50500Y103969D01*
D02*
G37*
G36*
X49500D02*
X48956Y103897D01*
X47983Y103494D01*
X47147Y102853D01*
X46506Y102017D01*
X46103Y101044D01*
X46031Y100500D01*
X49500D01*
Y103969D01*
D02*
G37*
G36*
X299500D02*
X298956Y103897D01*
X297983Y103494D01*
X297147Y102853D01*
X296506Y102017D01*
X296103Y101044D01*
X296031Y100500D01*
X299500D01*
Y103969D01*
D02*
G37*
G36*
X270000Y103631D02*
X269060Y103507D01*
X268184Y103145D01*
X267432Y102568D01*
X266855Y101815D01*
X266493Y100940D01*
X266369Y100000D01*
X266493Y99060D01*
X266855Y98185D01*
X267432Y97432D01*
X268184Y96855D01*
X269060Y96493D01*
X270000Y96369D01*
X270940Y96493D01*
X271815Y96855D01*
X272568Y97432D01*
X273145Y98185D01*
X273507Y99060D01*
X273631Y100000D01*
X273507Y100940D01*
X273145Y101815D01*
X272568Y102568D01*
X271815Y103145D01*
X270940Y103507D01*
X270000Y103631D01*
D02*
G37*
G36*
X80000D02*
X79060Y103507D01*
X78184Y103145D01*
X77432Y102568D01*
X76855Y101815D01*
X76493Y100940D01*
X76369Y100000D01*
X76493Y99060D01*
X76855Y98185D01*
X77432Y97432D01*
X78184Y96855D01*
X79060Y96493D01*
X80000Y96369D01*
X80940Y96493D01*
X81815Y96855D01*
X82568Y97432D01*
X83145Y98185D01*
X83507Y99060D01*
X83631Y100000D01*
X83507Y100940D01*
X83145Y101815D01*
X82568Y102568D01*
X81815Y103145D01*
X80940Y103507D01*
X80000Y103631D01*
D02*
G37*
G36*
X303969Y99500D02*
X300500D01*
Y96031D01*
X301044Y96103D01*
X302017Y96506D01*
X302853Y97147D01*
X303494Y97983D01*
X303897Y98956D01*
X303969Y99500D01*
D02*
G37*
G36*
X53969D02*
X50500D01*
Y96031D01*
X51044Y96103D01*
X52017Y96506D01*
X52853Y97147D01*
X53494Y97983D01*
X53897Y98956D01*
X53969Y99500D01*
D02*
G37*
G36*
X49500D02*
X46031D01*
X46103Y98956D01*
X46506Y97983D01*
X47147Y97147D01*
X47983Y96506D01*
X48956Y96103D01*
X49500Y96031D01*
Y99500D01*
D02*
G37*
G36*
X299500D02*
X296031D01*
X296103Y98956D01*
X296506Y97983D01*
X297147Y97147D01*
X297983Y96506D01*
X298956Y96103D01*
X299500Y96031D01*
Y99500D01*
D02*
G37*
G36*
X300500Y93969D02*
Y90500D01*
X303969D01*
X303897Y91044D01*
X303494Y92017D01*
X302853Y92853D01*
X302017Y93494D01*
X301044Y93897D01*
X300500Y93969D01*
D02*
G37*
G36*
X50500D02*
Y90500D01*
X53969D01*
X53897Y91044D01*
X53494Y92017D01*
X52853Y92853D01*
X52017Y93494D01*
X51044Y93897D01*
X50500Y93969D01*
D02*
G37*
G36*
X49500D02*
X48956Y93897D01*
X47983Y93494D01*
X47147Y92853D01*
X46506Y92017D01*
X46103Y91044D01*
X46031Y90500D01*
X49500D01*
Y93969D01*
D02*
G37*
G36*
X299500D02*
X298956Y93897D01*
X297983Y93494D01*
X297147Y92853D01*
X296506Y92017D01*
X296103Y91044D01*
X296031Y90500D01*
X299500D01*
Y93969D01*
D02*
G37*
G36*
X270000Y93631D02*
X269060Y93507D01*
X268184Y93145D01*
X267432Y92568D01*
X266855Y91816D01*
X266493Y90940D01*
X266369Y90000D01*
X266493Y89060D01*
X266855Y88184D01*
X267432Y87432D01*
X268184Y86855D01*
X269060Y86493D01*
X270000Y86369D01*
X270940Y86493D01*
X271815Y86855D01*
X272568Y87432D01*
X273145Y88184D01*
X273507Y89060D01*
X273631Y90000D01*
X273507Y90940D01*
X273145Y91816D01*
X272568Y92568D01*
X271815Y93145D01*
X270940Y93507D01*
X270000Y93631D01*
D02*
G37*
G36*
X80000D02*
X79060Y93507D01*
X78184Y93145D01*
X77432Y92568D01*
X76855Y91816D01*
X76493Y90940D01*
X76369Y90000D01*
X76493Y89060D01*
X76855Y88184D01*
X77432Y87432D01*
X78184Y86855D01*
X79060Y86493D01*
X80000Y86369D01*
X80940Y86493D01*
X81815Y86855D01*
X82568Y87432D01*
X83145Y88184D01*
X83507Y89060D01*
X83631Y90000D01*
X83507Y90940D01*
X83145Y91816D01*
X82568Y92568D01*
X81815Y93145D01*
X80940Y93507D01*
X80000Y93631D01*
D02*
G37*
G36*
X303969Y89500D02*
X300500D01*
Y86031D01*
X301044Y86103D01*
X302017Y86506D01*
X302853Y87147D01*
X303494Y87983D01*
X303897Y88956D01*
X303969Y89500D01*
D02*
G37*
G36*
X53969D02*
X50500D01*
Y86031D01*
X51044Y86103D01*
X52017Y86506D01*
X52853Y87147D01*
X53494Y87983D01*
X53897Y88956D01*
X53969Y89500D01*
D02*
G37*
G36*
X49500D02*
X46031D01*
X46103Y88956D01*
X46506Y87983D01*
X47147Y87147D01*
X47983Y86506D01*
X48956Y86103D01*
X49500Y86031D01*
Y89500D01*
D02*
G37*
G36*
X299500D02*
X296031D01*
X296103Y88956D01*
X296506Y87983D01*
X297147Y87147D01*
X297983Y86506D01*
X298956Y86103D01*
X299500Y86031D01*
Y89500D01*
D02*
G37*
G36*
X300500Y83969D02*
Y80500D01*
X303969D01*
X303897Y81044D01*
X303494Y82017D01*
X302853Y82853D01*
X302017Y83494D01*
X301044Y83897D01*
X300500Y83969D01*
D02*
G37*
G36*
X50500D02*
Y80500D01*
X53969D01*
X53897Y81044D01*
X53494Y82017D01*
X52853Y82853D01*
X52017Y83494D01*
X51044Y83897D01*
X50500Y83969D01*
D02*
G37*
G36*
X49500D02*
X48956Y83897D01*
X47983Y83494D01*
X47147Y82853D01*
X46506Y82017D01*
X46103Y81044D01*
X46031Y80500D01*
X49500D01*
Y83969D01*
D02*
G37*
G36*
X299500D02*
X298956Y83897D01*
X297983Y83494D01*
X297147Y82853D01*
X296506Y82017D01*
X296103Y81044D01*
X296031Y80500D01*
X299500D01*
Y83969D01*
D02*
G37*
G36*
X270000Y83631D02*
X269060Y83507D01*
X268184Y83145D01*
X267432Y82568D01*
X266855Y81815D01*
X266493Y80940D01*
X266369Y80000D01*
X266493Y79060D01*
X266855Y78184D01*
X267432Y77432D01*
X268184Y76855D01*
X269060Y76493D01*
X270000Y76369D01*
X270940Y76493D01*
X271815Y76855D01*
X272568Y77432D01*
X273145Y78184D01*
X273507Y79060D01*
X273631Y80000D01*
X273507Y80940D01*
X273145Y81815D01*
X272568Y82568D01*
X271815Y83145D01*
X270940Y83507D01*
X270000Y83631D01*
D02*
G37*
G36*
X80000D02*
X79060Y83507D01*
X78184Y83145D01*
X77432Y82568D01*
X76855Y81815D01*
X76493Y80940D01*
X76369Y80000D01*
X76493Y79060D01*
X76855Y78184D01*
X77432Y77432D01*
X78184Y76855D01*
X79060Y76493D01*
X80000Y76369D01*
X80940Y76493D01*
X81815Y76855D01*
X82568Y77432D01*
X83145Y78184D01*
X83507Y79060D01*
X83631Y80000D01*
X83507Y80940D01*
X83145Y81815D01*
X82568Y82568D01*
X81815Y83145D01*
X80940Y83507D01*
X80000Y83631D01*
D02*
G37*
G36*
X53969Y79500D02*
X50500D01*
Y76031D01*
X51044Y76103D01*
X52017Y76506D01*
X52853Y77147D01*
X53494Y77983D01*
X53897Y78956D01*
X53969Y79500D01*
D02*
G37*
G36*
X303969D02*
X300500D01*
Y76031D01*
X301044Y76103D01*
X302017Y76506D01*
X302853Y77147D01*
X303494Y77983D01*
X303897Y78956D01*
X303969Y79500D01*
D02*
G37*
G36*
X299500D02*
X296031D01*
X296103Y78956D01*
X296506Y77983D01*
X297147Y77147D01*
X297983Y76506D01*
X298956Y76103D01*
X299500Y76031D01*
Y79500D01*
D02*
G37*
G36*
X49500D02*
X46031D01*
X46103Y78956D01*
X46506Y77983D01*
X47147Y77147D01*
X47983Y76506D01*
X48956Y76103D01*
X49500Y76031D01*
Y79500D01*
D02*
G37*
G36*
X300500Y73969D02*
Y70500D01*
X303969D01*
X303897Y71044D01*
X303494Y72017D01*
X302853Y72853D01*
X302017Y73494D01*
X301044Y73897D01*
X300500Y73969D01*
D02*
G37*
G36*
X50500D02*
Y70500D01*
X53969D01*
X53897Y71044D01*
X53494Y72017D01*
X52853Y72853D01*
X52017Y73494D01*
X51044Y73897D01*
X50500Y73969D01*
D02*
G37*
G36*
X299500D02*
X298956Y73897D01*
X297983Y73494D01*
X297147Y72853D01*
X296506Y72017D01*
X296103Y71044D01*
X296031Y70500D01*
X299500D01*
Y73969D01*
D02*
G37*
G36*
X49500D02*
X48956Y73897D01*
X47983Y73494D01*
X47147Y72853D01*
X46506Y72017D01*
X46103Y71044D01*
X46031Y70500D01*
X49500D01*
Y73969D01*
D02*
G37*
G36*
X270000Y73631D02*
X269060Y73507D01*
X268184Y73145D01*
X267432Y72568D01*
X266855Y71816D01*
X266493Y70940D01*
X266369Y70000D01*
X266493Y69060D01*
X266855Y68185D01*
X267432Y67432D01*
X268184Y66855D01*
X269060Y66493D01*
X270000Y66369D01*
X270940Y66493D01*
X271815Y66855D01*
X272568Y67432D01*
X273145Y68185D01*
X273507Y69060D01*
X273631Y70000D01*
X273507Y70940D01*
X273145Y71816D01*
X272568Y72568D01*
X271815Y73145D01*
X270940Y73507D01*
X270000Y73631D01*
D02*
G37*
G36*
X80000D02*
X79060Y73507D01*
X78184Y73145D01*
X77432Y72568D01*
X76855Y71816D01*
X76493Y70940D01*
X76369Y70000D01*
X76493Y69060D01*
X76855Y68185D01*
X77432Y67432D01*
X78184Y66855D01*
X79060Y66493D01*
X80000Y66369D01*
X80940Y66493D01*
X81815Y66855D01*
X82568Y67432D01*
X83145Y68185D01*
X83507Y69060D01*
X83631Y70000D01*
X83507Y70940D01*
X83145Y71816D01*
X82568Y72568D01*
X81815Y73145D01*
X80940Y73507D01*
X80000Y73631D01*
D02*
G37*
G36*
X53969Y69500D02*
X50500D01*
Y66031D01*
X51044Y66103D01*
X52017Y66506D01*
X52853Y67147D01*
X53494Y67983D01*
X53897Y68956D01*
X53969Y69500D01*
D02*
G37*
G36*
X303969D02*
X300500D01*
Y66031D01*
X301044Y66103D01*
X302017Y66506D01*
X302853Y67147D01*
X303494Y67983D01*
X303897Y68956D01*
X303969Y69500D01*
D02*
G37*
G36*
X299500D02*
X296031D01*
X296103Y68956D01*
X296506Y67983D01*
X297147Y67147D01*
X297983Y66506D01*
X298956Y66103D01*
X299500Y66031D01*
Y69500D01*
D02*
G37*
G36*
X49500D02*
X46031D01*
X46103Y68956D01*
X46506Y67983D01*
X47147Y67147D01*
X47983Y66506D01*
X48956Y66103D01*
X49500Y66031D01*
Y69500D01*
D02*
G37*
G36*
X300500Y63969D02*
Y60500D01*
X303969D01*
X303897Y61044D01*
X303494Y62017D01*
X302853Y62853D01*
X302017Y63494D01*
X301044Y63897D01*
X300500Y63969D01*
D02*
G37*
G36*
X50500D02*
Y60500D01*
X53969D01*
X53897Y61044D01*
X53494Y62017D01*
X52853Y62853D01*
X52017Y63494D01*
X51044Y63897D01*
X50500Y63969D01*
D02*
G37*
G36*
X299500D02*
X298956Y63897D01*
X297983Y63494D01*
X297147Y62853D01*
X296506Y62017D01*
X296103Y61044D01*
X296031Y60500D01*
X299500D01*
Y63969D01*
D02*
G37*
G36*
X49500D02*
X48956Y63897D01*
X47983Y63494D01*
X47147Y62853D01*
X46506Y62017D01*
X46103Y61044D01*
X46031Y60500D01*
X49500D01*
Y63969D01*
D02*
G37*
G36*
X270000Y63631D02*
X269060Y63507D01*
X268184Y63145D01*
X267432Y62568D01*
X266855Y61816D01*
X266493Y60940D01*
X266369Y60000D01*
X266493Y59060D01*
X266855Y58184D01*
X267432Y57432D01*
X268184Y56855D01*
X269060Y56493D01*
X270000Y56369D01*
X270940Y56493D01*
X271815Y56855D01*
X272568Y57432D01*
X273145Y58184D01*
X273507Y59060D01*
X273631Y60000D01*
X273507Y60940D01*
X273145Y61816D01*
X272568Y62568D01*
X271815Y63145D01*
X270940Y63507D01*
X270000Y63631D01*
D02*
G37*
G36*
X80000D02*
X79060Y63507D01*
X78184Y63145D01*
X77432Y62568D01*
X76855Y61816D01*
X76493Y60940D01*
X76369Y60000D01*
X76493Y59060D01*
X76855Y58184D01*
X77432Y57432D01*
X78184Y56855D01*
X79060Y56493D01*
X80000Y56369D01*
X80940Y56493D01*
X81815Y56855D01*
X82568Y57432D01*
X83145Y58184D01*
X83507Y59060D01*
X83631Y60000D01*
X83507Y60940D01*
X83145Y61816D01*
X82568Y62568D01*
X81815Y63145D01*
X80940Y63507D01*
X80000Y63631D01*
D02*
G37*
G36*
X303969Y59500D02*
X300500D01*
Y56031D01*
X301044Y56103D01*
X302017Y56506D01*
X302853Y57147D01*
X303494Y57983D01*
X303897Y58956D01*
X303969Y59500D01*
D02*
G37*
G36*
X53969D02*
X50500D01*
Y56031D01*
X51044Y56103D01*
X52017Y56506D01*
X52853Y57147D01*
X53494Y57983D01*
X53897Y58956D01*
X53969Y59500D01*
D02*
G37*
G36*
X49500D02*
X46031D01*
X46103Y58956D01*
X46506Y57983D01*
X47147Y57147D01*
X47983Y56506D01*
X48956Y56103D01*
X49500Y56031D01*
Y59500D01*
D02*
G37*
G36*
X299500D02*
X296031D01*
X296103Y58956D01*
X296506Y57983D01*
X297147Y57147D01*
X297983Y56506D01*
X298956Y56103D01*
X299500Y56031D01*
Y59500D01*
D02*
G37*
G36*
X190000Y63635D02*
X188930Y63494D01*
X187932Y63081D01*
X187076Y62424D01*
X186419Y61568D01*
X186005Y60570D01*
X185865Y59500D01*
X186005Y58430D01*
X186419Y57432D01*
X187076Y56576D01*
X187932Y55919D01*
X188930Y55506D01*
X190000Y55365D01*
X191070Y55506D01*
X192068Y55919D01*
X192924Y56576D01*
X193581Y57432D01*
X193994Y58430D01*
X194135Y59500D01*
X193994Y60570D01*
X193581Y61568D01*
X192924Y62424D01*
X192068Y63081D01*
X191070Y63494D01*
X190000Y63635D01*
D02*
G37*
G36*
X180000D02*
X178930Y63494D01*
X177932Y63081D01*
X177076Y62424D01*
X176419Y61568D01*
X176005Y60570D01*
X175865Y59500D01*
X176005Y58430D01*
X176419Y57432D01*
X177076Y56576D01*
X177932Y55919D01*
X178930Y55506D01*
X180000Y55365D01*
X181070Y55506D01*
X182068Y55919D01*
X182924Y56576D01*
X183581Y57432D01*
X183994Y58430D01*
X184135Y59500D01*
X183994Y60570D01*
X183581Y61568D01*
X182924Y62424D01*
X182068Y63081D01*
X181070Y63494D01*
X180000Y63635D01*
D02*
G37*
G36*
X170000D02*
X168930Y63494D01*
X167932Y63081D01*
X167076Y62424D01*
X166419Y61568D01*
X166006Y60570D01*
X165865Y59500D01*
X166006Y58430D01*
X166419Y57432D01*
X167076Y56576D01*
X167932Y55919D01*
X168930Y55506D01*
X170000Y55365D01*
X171070Y55506D01*
X172068Y55919D01*
X172924Y56576D01*
X173581Y57432D01*
X173995Y58430D01*
X174135Y59500D01*
X173995Y60570D01*
X173581Y61568D01*
X172924Y62424D01*
X172068Y63081D01*
X171070Y63494D01*
X170000Y63635D01*
D02*
G37*
G36*
X170500Y53973D02*
Y50000D01*
X174473D01*
X174384Y50675D01*
X173931Y51769D01*
X173209Y52709D01*
X172269Y53431D01*
X171175Y53884D01*
X170500Y53973D01*
D02*
G37*
G36*
X169500D02*
X168825Y53884D01*
X167731Y53431D01*
X166791Y52709D01*
X166069Y51769D01*
X165616Y50675D01*
X165527Y50000D01*
X169500D01*
Y53973D01*
D02*
G37*
G36*
X190000Y53635D02*
X188930Y53495D01*
X187932Y53081D01*
X187076Y52424D01*
X186419Y51568D01*
X186005Y50570D01*
X185865Y49500D01*
X186005Y48430D01*
X186419Y47432D01*
X187076Y46576D01*
X187932Y45919D01*
X188930Y45505D01*
X190000Y45365D01*
X191070Y45505D01*
X192068Y45919D01*
X192924Y46576D01*
X193581Y47432D01*
X193994Y48430D01*
X194135Y49500D01*
X193994Y50570D01*
X193581Y51568D01*
X192924Y52424D01*
X192068Y53081D01*
X191070Y53495D01*
X190000Y53635D01*
D02*
G37*
G36*
X180000D02*
X178930Y53495D01*
X177932Y53081D01*
X177076Y52424D01*
X176419Y51568D01*
X176005Y50570D01*
X175865Y49500D01*
X176005Y48430D01*
X176419Y47432D01*
X177076Y46576D01*
X177932Y45919D01*
X178930Y45505D01*
X180000Y45365D01*
X181070Y45505D01*
X182068Y45919D01*
X182924Y46576D01*
X183581Y47432D01*
X183994Y48430D01*
X184135Y49500D01*
X183994Y50570D01*
X183581Y51568D01*
X182924Y52424D01*
X182068Y53081D01*
X181070Y53495D01*
X180000Y53635D01*
D02*
G37*
G36*
X174473Y49000D02*
X170500D01*
Y45027D01*
X171175Y45116D01*
X172269Y45569D01*
X173209Y46291D01*
X173931Y47231D01*
X174384Y48325D01*
X174473Y49000D01*
D02*
G37*
G36*
X169500D02*
X165527D01*
X165616Y48325D01*
X166069Y47231D01*
X166791Y46291D01*
X167731Y45569D01*
X168825Y45116D01*
X169500Y45027D01*
Y49000D01*
D02*
G37*
G36*
X266000Y46886D02*
X265278Y46743D01*
X264666Y46334D01*
X264257Y45722D01*
X264114Y45000D01*
X264257Y44278D01*
X264666Y43666D01*
X265082Y43388D01*
Y37612D01*
X264666Y37334D01*
X264257Y36722D01*
X264114Y36000D01*
X264257Y35278D01*
X264666Y34666D01*
X265278Y34257D01*
X266000Y34114D01*
X266722Y34257D01*
X267334Y34666D01*
X267743Y35278D01*
X267886Y36000D01*
X267743Y36722D01*
X267334Y37334D01*
X266918Y37612D01*
Y43388D01*
X267334Y43666D01*
X267743Y44278D01*
X267886Y45000D01*
X267743Y45722D01*
X267334Y46334D01*
X266722Y46743D01*
X266000Y46886D01*
D02*
G37*
G36*
X259000D02*
X258278Y46743D01*
X257666Y46334D01*
X257257Y45722D01*
X257114Y45000D01*
X257257Y44278D01*
X257666Y43666D01*
X258082Y43388D01*
Y37612D01*
X257666Y37334D01*
X257257Y36722D01*
X257114Y36000D01*
X257257Y35278D01*
X257666Y34666D01*
X258278Y34257D01*
X259000Y34114D01*
X259722Y34257D01*
X260334Y34666D01*
X260743Y35278D01*
X260886Y36000D01*
X260743Y36722D01*
X260334Y37334D01*
X259918Y37612D01*
Y43388D01*
X260334Y43666D01*
X260743Y44278D01*
X260886Y45000D01*
X260743Y45722D01*
X260334Y46334D01*
X259722Y46743D01*
X259000Y46886D01*
D02*
G37*
%LPD*%
D11*
X227000Y265000D02*
X233000D01*
X226000Y257000D02*
X234000D01*
X185000Y280000D02*
Y286000D01*
X259000Y36000D02*
Y45000D01*
X266000Y36000D02*
Y45000D01*
X220000Y294850D02*
Y300350D01*
X286000Y182000D02*
Y190000D01*
X69000Y167000D02*
Y173000D01*
X64000Y116000D02*
Y124000D01*
X249896Y200104D02*
X251000Y199000D01*
X241896Y200104D02*
X249896D01*
X226925Y284925D02*
X227000Y285000D01*
X226925Y279075D02*
Y284925D01*
X226850Y279000D02*
X226925Y279075D01*
X220000Y279000D02*
Y286000D01*
X152000Y120700D02*
Y125000D01*
X150687Y292000D02*
X158000D01*
X192000Y303000D02*
Y310250D01*
D56*
X173000Y126000D02*
Y128000D01*
X168000Y133000D02*
X173000Y128000D01*
X164682Y139000D02*
X169300D01*
X164152Y139396D02*
X164287D01*
X164682Y139000D01*
X150000D02*
X155000D01*
X83000Y121000D02*
X88000Y116000D01*
D57*
X80000Y60000D02*
D03*
Y70000D02*
D03*
Y80000D02*
D03*
Y90000D02*
D03*
Y100000D02*
D03*
Y110000D02*
D03*
X50000Y60000D02*
D03*
Y70000D02*
D03*
Y80000D02*
D03*
Y90000D02*
D03*
Y100000D02*
D03*
Y110000D02*
D03*
X270000Y60000D02*
D03*
Y70000D02*
D03*
Y80000D02*
D03*
Y90000D02*
D03*
Y100000D02*
D03*
Y110000D02*
D03*
Y120000D02*
D03*
Y130000D02*
D03*
X300000Y146000D02*
D03*
Y156000D02*
D03*
Y166000D02*
D03*
Y176000D02*
D03*
Y186000D02*
D03*
Y196000D02*
D03*
Y206000D02*
D03*
Y216000D02*
D03*
Y226000D02*
D03*
Y236000D02*
D03*
X50000Y200000D02*
D03*
Y190000D02*
D03*
Y180000D02*
D03*
Y170000D02*
D03*
Y160000D02*
D03*
Y150000D02*
D03*
Y140000D02*
D03*
Y130000D02*
D03*
X300000Y60000D02*
D03*
Y70000D02*
D03*
Y80000D02*
D03*
Y90000D02*
D03*
Y100000D02*
D03*
Y110000D02*
D03*
Y120000D02*
D03*
Y130000D02*
D03*
X80000D02*
D03*
Y140000D02*
D03*
Y150000D02*
D03*
Y160000D02*
D03*
Y170000D02*
D03*
Y180000D02*
D03*
Y190000D02*
D03*
Y200000D02*
D03*
X270000Y236000D02*
D03*
Y226000D02*
D03*
Y216000D02*
D03*
Y206000D02*
D03*
Y196000D02*
D03*
Y186000D02*
D03*
Y176000D02*
D03*
Y166000D02*
D03*
Y156000D02*
D03*
Y146000D02*
D03*
D58*
X170000Y49500D02*
D03*
Y59500D02*
D03*
X180000Y49500D02*
D03*
Y59500D02*
D03*
X190000Y49500D02*
D03*
Y59500D02*
D03*
X365000Y300000D02*
D03*
X335000D02*
D03*
D59*
X140000Y330000D02*
D03*
X150000D02*
D03*
X160000D02*
D03*
D60*
X52396Y333550D02*
D03*
X70900Y345330D02*
D03*
Y321830D02*
D03*
D61*
X216799Y338078D02*
D03*
X210500D02*
D03*
X204201D02*
D03*
X213650Y342802D02*
D03*
X207350D02*
D03*
D62*
X225067Y360322D02*
D03*
Y341621D02*
D03*
X195933D02*
D03*
Y360322D02*
D03*
D63*
X215000Y287000D02*
D03*
X173000Y126000D02*
D03*
X164152Y139396D02*
D03*
X168000Y133000D02*
D03*
X190000Y117850D02*
D03*
X169300Y139000D02*
D03*
X155000D02*
D03*
X150000D02*
D03*
X210000Y96000D02*
D03*
X233000Y265000D02*
D03*
X227000D02*
D03*
X234000Y257000D02*
D03*
X226000D02*
D03*
X185000Y280000D02*
D03*
Y286000D02*
D03*
X259000Y36000D02*
D03*
Y45000D02*
D03*
X266000Y36000D02*
D03*
Y45000D02*
D03*
X88000Y116000D02*
D03*
X83000Y121000D02*
D03*
X216000Y292000D02*
D03*
X220000Y294850D02*
D03*
Y300350D02*
D03*
X177000Y114000D02*
D03*
X189000Y112000D02*
D03*
X286000Y182000D02*
D03*
Y190000D02*
D03*
X69000Y173000D02*
D03*
X64000Y124000D02*
D03*
Y116000D02*
D03*
X158000Y102000D02*
D03*
X251000Y199000D02*
D03*
X215905Y271095D02*
D03*
X226850Y279000D02*
D03*
X227000Y285000D02*
D03*
X220000Y286000D02*
D03*
X202000Y304000D02*
D03*
X220000Y279000D02*
D03*
X216000Y278000D02*
D03*
X280000Y340000D02*
D03*
X249000Y304000D02*
D03*
X164000Y278000D02*
D03*
X237000Y113000D02*
D03*
Y107000D02*
D03*
X104000Y244000D02*
D03*
X202000Y347000D02*
D03*
X144000Y111000D02*
D03*
X241896Y200104D02*
D03*
X152000Y125000D02*
D03*
Y120700D02*
D03*
X160000Y133000D02*
D03*
X69000Y167000D02*
D03*
X150687Y292000D02*
D03*
X158000D02*
D03*
X192000Y303000D02*
D03*
X215000Y192000D02*
D03*
X112000Y304000D02*
D03*
X192000Y310250D02*
D03*
X103000Y220000D02*
D03*
X168000Y279000D02*
D03*
X365000Y284000D02*
D03*
X306000Y344000D02*
D03*
X158000Y316000D02*
D03*
X184000Y342000D02*
D03*
X236000Y340000D02*
D03*
Y358000D02*
D03*
X186000D02*
D03*
X96000Y278000D02*
D03*
X100000Y338000D02*
D03*
X70000Y358000D02*
D03*
X42000Y326000D02*
D03*
M02*
