G04*
G04 #@! TF.GenerationSoftware,Altium Limited,Altium Designer,20.1.14 (287)*
G04*
G04 Layer_Color=8388736*
%FSLAX25Y25*%
%MOIN*%
G70*
G04*
G04 #@! TF.SameCoordinates,6D664569-D151-4749-B7FC-417D050C6B8F*
G04*
G04*
G04 #@! TF.FilePolarity,Negative*
G04*
G01*
G75*
%ADD22R,0.02362X0.02756*%
%ADD28R,0.02756X0.02362*%
%ADD34R,0.06000X0.02200*%
%ADD35R,0.02200X0.06000*%
%ADD36R,0.05700X0.01570*%
%ADD37R,0.04737X0.03753*%
%ADD38R,0.09068X0.22847*%
%ADD39R,0.05200X0.07900*%
%ADD40R,0.02956X0.02200*%
%ADD41R,0.03753X0.04737*%
%ADD42R,0.06706X0.08674*%
%ADD43R,0.04100X0.07100*%
%ADD44R,0.13000X0.07100*%
%ADD45R,0.06300X0.07100*%
%ADD46R,0.07100X0.06300*%
%ADD47R,0.08280X0.14186*%
%ADD48R,0.03162X0.03556*%
%ADD49C,0.06800*%
%ADD50C,0.07800*%
%ADD51C,0.07296*%
%ADD52C,0.10249*%
%ADD53C,0.05556*%
%ADD54O,0.05950X0.11099*%
%ADD55C,0.03300*%
D22*
X185937Y209000D02*
D03*
X182000D02*
D03*
X241000Y101000D02*
D03*
X237063D02*
D03*
X241000Y119000D02*
D03*
X237063D02*
D03*
X224063Y187000D02*
D03*
X228000D02*
D03*
X112063Y220000D02*
D03*
X116000D02*
D03*
X199063Y203000D02*
D03*
X203000D02*
D03*
X150000Y262000D02*
D03*
X153937D02*
D03*
D28*
X300000Y340000D02*
D03*
Y343937D02*
D03*
D34*
X199393Y105000D02*
D03*
Y108100D02*
D03*
Y111300D02*
D03*
Y114400D02*
D03*
Y117600D02*
D03*
Y120700D02*
D03*
Y123900D02*
D03*
Y127000D02*
D03*
X166993D02*
D03*
Y123900D02*
D03*
Y120700D02*
D03*
Y117600D02*
D03*
Y114400D02*
D03*
Y111300D02*
D03*
Y108100D02*
D03*
Y105000D02*
D03*
D35*
X194193Y132200D02*
D03*
X191093D02*
D03*
X187893D02*
D03*
X184793D02*
D03*
X181593D02*
D03*
X178493D02*
D03*
X175293D02*
D03*
X172193D02*
D03*
Y99800D02*
D03*
X175293D02*
D03*
X178493D02*
D03*
X181593D02*
D03*
X184793D02*
D03*
X187893D02*
D03*
X191093D02*
D03*
X194193D02*
D03*
D36*
X175606Y263366D02*
D03*
Y265925D02*
D03*
Y268484D02*
D03*
Y271043D02*
D03*
Y273602D02*
D03*
Y276161D02*
D03*
Y278720D02*
D03*
Y281279D02*
D03*
Y283839D02*
D03*
Y286398D02*
D03*
Y288957D02*
D03*
Y291516D02*
D03*
Y294075D02*
D03*
Y296634D02*
D03*
X204394Y263366D02*
D03*
Y265925D02*
D03*
Y268484D02*
D03*
Y271043D02*
D03*
Y273602D02*
D03*
Y278720D02*
D03*
Y276161D02*
D03*
Y281279D02*
D03*
Y283839D02*
D03*
Y286398D02*
D03*
Y288957D02*
D03*
Y291516D02*
D03*
Y294075D02*
D03*
Y296634D02*
D03*
D37*
X166000Y284000D02*
D03*
Y289512D02*
D03*
X209000Y110000D02*
D03*
Y104488D02*
D03*
X250000Y315512D02*
D03*
Y310000D02*
D03*
X158000Y126000D02*
D03*
Y120488D02*
D03*
X135000Y122000D02*
D03*
Y116488D02*
D03*
D38*
X224000Y125402D02*
D03*
Y88000D02*
D03*
D39*
X127000Y114000D02*
D03*
X115200D02*
D03*
D40*
X215846Y316000D02*
D03*
Y312260D02*
D03*
Y308520D02*
D03*
X225000D02*
D03*
Y312260D02*
D03*
Y316000D02*
D03*
D41*
X146488Y102000D02*
D03*
X152000D02*
D03*
X104488Y330000D02*
D03*
X110000D02*
D03*
X164488Y312000D02*
D03*
X170000D02*
D03*
X97512Y268000D02*
D03*
X92000D02*
D03*
D42*
X132000Y248504D02*
D03*
X114284D02*
D03*
X132000Y280000D02*
D03*
X114284D02*
D03*
D43*
X279100Y332494D02*
D03*
X270000D02*
D03*
X260900D02*
D03*
D44*
X270000Y307294D02*
D03*
D45*
X229800Y198000D02*
D03*
X218000D02*
D03*
X141800Y220000D02*
D03*
X130000D02*
D03*
X201800Y218000D02*
D03*
X190000D02*
D03*
X233800D02*
D03*
X222000D02*
D03*
D46*
X300000Y308200D02*
D03*
Y320000D02*
D03*
D47*
X180323D02*
D03*
X195677D02*
D03*
D48*
X126000Y298000D02*
D03*
X122063D02*
D03*
D49*
X80000Y60000D02*
D03*
Y70000D02*
D03*
Y80000D02*
D03*
Y90000D02*
D03*
Y100000D02*
D03*
Y110000D02*
D03*
X50000Y60000D02*
D03*
Y70000D02*
D03*
Y80000D02*
D03*
Y90000D02*
D03*
Y100000D02*
D03*
Y110000D02*
D03*
X270000Y60000D02*
D03*
Y70000D02*
D03*
Y80000D02*
D03*
Y90000D02*
D03*
Y100000D02*
D03*
Y110000D02*
D03*
Y120000D02*
D03*
Y130000D02*
D03*
X300000Y146000D02*
D03*
Y156000D02*
D03*
Y166000D02*
D03*
Y176000D02*
D03*
Y186000D02*
D03*
Y196000D02*
D03*
Y206000D02*
D03*
Y216000D02*
D03*
Y226000D02*
D03*
Y236000D02*
D03*
X50000Y200000D02*
D03*
Y190000D02*
D03*
Y180000D02*
D03*
Y170000D02*
D03*
Y160000D02*
D03*
Y150000D02*
D03*
Y140000D02*
D03*
Y130000D02*
D03*
X300000Y60000D02*
D03*
Y70000D02*
D03*
Y80000D02*
D03*
Y90000D02*
D03*
Y100000D02*
D03*
Y110000D02*
D03*
Y120000D02*
D03*
Y130000D02*
D03*
X80000D02*
D03*
Y140000D02*
D03*
Y150000D02*
D03*
Y160000D02*
D03*
Y170000D02*
D03*
Y180000D02*
D03*
Y190000D02*
D03*
Y200000D02*
D03*
X270000Y236000D02*
D03*
Y226000D02*
D03*
Y216000D02*
D03*
Y206000D02*
D03*
Y196000D02*
D03*
Y186000D02*
D03*
Y176000D02*
D03*
Y166000D02*
D03*
Y156000D02*
D03*
Y146000D02*
D03*
D50*
X170000Y49500D02*
D03*
Y59500D02*
D03*
X180000Y49500D02*
D03*
Y59500D02*
D03*
X190000Y49500D02*
D03*
Y59500D02*
D03*
X365000Y300000D02*
D03*
X335000D02*
D03*
D51*
X140000Y330000D02*
D03*
X150000D02*
D03*
X160000D02*
D03*
D52*
X52396Y333550D02*
D03*
X70900Y345330D02*
D03*
Y321830D02*
D03*
D53*
X216799Y338078D02*
D03*
X210500D02*
D03*
X204201D02*
D03*
X213650Y342802D02*
D03*
X207350D02*
D03*
D54*
X225067Y360322D02*
D03*
Y341621D02*
D03*
X195933D02*
D03*
Y360322D02*
D03*
D55*
X215000Y287000D02*
D03*
X173000Y126000D02*
D03*
X164152Y139396D02*
D03*
X168000Y133000D02*
D03*
X190000Y117850D02*
D03*
X169300Y139000D02*
D03*
X155000D02*
D03*
X150000D02*
D03*
X210000Y96000D02*
D03*
X233000Y265000D02*
D03*
X227000D02*
D03*
X234000Y257000D02*
D03*
X226000D02*
D03*
X185000Y280000D02*
D03*
Y286000D02*
D03*
X259000Y36000D02*
D03*
Y45000D02*
D03*
X266000Y36000D02*
D03*
Y45000D02*
D03*
X88000Y116000D02*
D03*
X83000Y121000D02*
D03*
X216000Y292000D02*
D03*
X220000Y294850D02*
D03*
Y300350D02*
D03*
X177000Y114000D02*
D03*
X189000Y112000D02*
D03*
X286000Y182000D02*
D03*
Y190000D02*
D03*
X69000Y173000D02*
D03*
X64000Y124000D02*
D03*
Y116000D02*
D03*
X158000Y102000D02*
D03*
X251000Y199000D02*
D03*
X215905Y271095D02*
D03*
X226850Y279000D02*
D03*
X227000Y285000D02*
D03*
X220000Y286000D02*
D03*
X202000Y304000D02*
D03*
X220000Y279000D02*
D03*
X216000Y278000D02*
D03*
X280000Y340000D02*
D03*
X249000Y304000D02*
D03*
X164000Y278000D02*
D03*
X237000Y113000D02*
D03*
Y107000D02*
D03*
X104000Y244000D02*
D03*
X202000Y347000D02*
D03*
X144000Y111000D02*
D03*
X241896Y200104D02*
D03*
X152000Y125000D02*
D03*
Y120700D02*
D03*
X160000Y133000D02*
D03*
X69000Y167000D02*
D03*
X150687Y292000D02*
D03*
X158000D02*
D03*
X192000Y303000D02*
D03*
X215000Y192000D02*
D03*
X112000Y304000D02*
D03*
X192000Y310250D02*
D03*
X103000Y220000D02*
D03*
X168000Y279000D02*
D03*
X365000Y284000D02*
D03*
X306000Y344000D02*
D03*
X158000Y316000D02*
D03*
X184000Y342000D02*
D03*
X236000Y340000D02*
D03*
Y358000D02*
D03*
X186000D02*
D03*
X96000Y278000D02*
D03*
X100000Y338000D02*
D03*
X70000Y358000D02*
D03*
X42000Y326000D02*
D03*
M02*
