G04*
G04 #@! TF.GenerationSoftware,Altium Limited,Altium Designer,20.1.14 (287)*
G04*
G04 Layer_Physical_Order=4*
G04 Layer_Color=16711680*
%FSLAX25Y25*%
%MOIN*%
G70*
G04*
G04 #@! TF.SameCoordinates,AE2E9B50-125B-4246-99C6-3B409F254E70*
G04*
G04*
G04 #@! TF.FilePolarity,Positive*
G04*
G01*
G75*
%ADD10C,0.00600*%
%ADD56C,0.02000*%
%ADD57C,0.06000*%
%ADD58C,0.07000*%
%ADD59C,0.06496*%
%ADD60C,0.09449*%
%ADD61C,0.04756*%
%ADD62O,0.05150X0.10299*%
%ADD63C,0.02500*%
D10*
X247352Y49500D02*
X288000D01*
X246000Y50852D02*
Y63000D01*
Y50852D02*
X247352Y49500D01*
X290500Y52000D02*
Y251500D01*
X288000Y49500D02*
X290500Y52000D01*
X286500Y59351D02*
Y250000D01*
X270500Y59000D02*
X286149D01*
X286500Y59351D01*
X284500Y252000D02*
X286500Y250000D01*
X258500Y258000D02*
X284000D01*
X290500Y251500D01*
X259351Y252000D02*
X284500D01*
X259000Y234500D02*
Y251648D01*
X259351Y252000D01*
X227000Y202500D02*
X259000Y234500D01*
X253500Y237000D02*
Y253000D01*
X258500Y258000D01*
X226500Y207000D02*
Y210000D01*
X253500Y237000D01*
X171000Y206351D02*
Y206500D01*
Y206351D02*
X225851D01*
X226500Y207000D01*
X168000Y209500D02*
X171000Y206500D01*
X168000Y209500D02*
Y251000D01*
X161000Y208502D02*
Y295000D01*
Y208502D02*
X167001Y202500D01*
X174500Y125216D02*
Y126500D01*
Y125216D02*
X180000Y119716D01*
X167001Y202500D02*
X227000D01*
X270000Y59500D02*
X270500Y59000D01*
X181350Y147350D02*
X270000Y236000D01*
X181350Y114150D02*
Y147350D01*
X263500Y226000D02*
X270000D01*
X185500Y122000D02*
Y148000D01*
X263500Y226000D01*
X175000Y94000D02*
Y109500D01*
X163000Y82000D02*
X175000Y94000D01*
X180000Y59500D02*
Y119716D01*
X181350Y114150D02*
X184000Y111500D01*
X154500Y116609D02*
Y162648D01*
Y116609D02*
X158650Y112459D01*
X154851Y163000D02*
X166000D01*
X154500Y162648D02*
X154851Y163000D01*
X196000Y261649D02*
X196352Y262000D01*
X189500Y228500D02*
X196000Y235000D01*
Y261649D01*
X196352Y262000D02*
X210500D01*
X168177Y55100D02*
X181823D01*
X185600Y58877D02*
X189377D01*
X190000Y59500D01*
X181823Y55100D02*
X185600Y58877D01*
X222000Y255351D02*
Y298000D01*
X216000Y304000D02*
X222000Y298000D01*
X221649Y255000D02*
X222000Y255351D01*
X192000Y106000D02*
X256500D01*
X257000Y105500D01*
X203500Y255000D02*
X221649D01*
X211000Y262197D02*
Y276500D01*
X210651Y261848D02*
X211000Y262197D01*
X210500Y262000D02*
X210651Y261848D01*
X213257Y308500D02*
X232000D01*
X209757Y305000D02*
X213257Y308500D01*
X191000Y305000D02*
X209757D01*
X213847Y343000D02*
X221347Y350500D01*
X236500D01*
X213500Y343000D02*
X213847D01*
X166000Y163000D02*
X169500Y159500D01*
X156000Y57000D02*
Y81877D01*
X158650Y84527D01*
X158150Y116150D02*
X160500Y118500D01*
X158650Y84527D02*
Y112459D01*
X158150Y116000D02*
Y116150D01*
X154500Y110000D02*
X156500Y108000D01*
X163000Y60277D02*
X168177Y55100D01*
X163000Y60277D02*
Y82000D01*
X160500Y118500D02*
Y158500D01*
X80000Y110000D02*
X154500D01*
D56*
X65500Y53000D02*
Y118000D01*
Y53000D02*
X74100Y44400D01*
X184900D01*
X103500Y266500D02*
X117318D01*
X119818Y264000D01*
X134500D02*
X154000Y283500D01*
X119818Y264000D02*
X134500D01*
X190000Y49500D02*
X196364D01*
X184900Y44400D02*
X190000Y49500D01*
X189150Y104820D02*
X196364Y97606D01*
X183500Y116500D02*
X189150Y110850D01*
X196364Y49500D02*
Y97606D01*
X189150Y104820D02*
Y110850D01*
X216500Y267000D02*
Y283000D01*
Y267000D02*
X217000Y266500D01*
X211500Y258500D02*
X217000Y264000D01*
Y266500D01*
X199500Y240500D02*
Y257328D01*
X200672Y258500D01*
X211500D01*
X199500Y240500D02*
X212000Y228000D01*
X335000Y300000D02*
Y310328D01*
X76500Y311500D02*
X333828D01*
X335000Y310328D01*
X69500Y304500D02*
X76500Y311500D01*
X70672Y169500D02*
X79500D01*
X69500Y170672D02*
X70672Y169500D01*
X69500Y170672D02*
Y304500D01*
X79500Y169500D02*
X80000Y170000D01*
X139500Y329500D02*
X140500D01*
X70900Y321830D02*
X131830D01*
X139500Y329500D01*
D57*
X50000Y110000D02*
D03*
Y100000D02*
D03*
Y90000D02*
D03*
Y80000D02*
D03*
Y70000D02*
D03*
Y60000D02*
D03*
X80000D02*
D03*
Y70000D02*
D03*
Y80000D02*
D03*
Y90000D02*
D03*
Y100000D02*
D03*
Y110000D02*
D03*
X270000Y60000D02*
D03*
Y70000D02*
D03*
Y80000D02*
D03*
Y90000D02*
D03*
Y100000D02*
D03*
Y110000D02*
D03*
Y120000D02*
D03*
Y130000D02*
D03*
X300000Y146000D02*
D03*
Y156000D02*
D03*
Y166000D02*
D03*
Y176000D02*
D03*
Y186000D02*
D03*
Y196000D02*
D03*
Y206000D02*
D03*
Y216000D02*
D03*
Y226000D02*
D03*
Y236000D02*
D03*
X50000Y200000D02*
D03*
Y190000D02*
D03*
Y180000D02*
D03*
Y170000D02*
D03*
Y160000D02*
D03*
Y150000D02*
D03*
Y140000D02*
D03*
Y130000D02*
D03*
X300000Y60000D02*
D03*
Y70000D02*
D03*
Y80000D02*
D03*
Y90000D02*
D03*
Y100000D02*
D03*
Y110000D02*
D03*
Y120000D02*
D03*
Y130000D02*
D03*
X80000D02*
D03*
Y140000D02*
D03*
Y150000D02*
D03*
Y160000D02*
D03*
Y170000D02*
D03*
Y180000D02*
D03*
Y190000D02*
D03*
Y200000D02*
D03*
X270000Y236000D02*
D03*
Y226000D02*
D03*
Y216000D02*
D03*
Y206000D02*
D03*
Y196000D02*
D03*
Y186000D02*
D03*
Y176000D02*
D03*
Y166000D02*
D03*
Y156000D02*
D03*
Y146000D02*
D03*
D58*
X170000Y49500D02*
D03*
Y59500D02*
D03*
X180000Y49500D02*
D03*
Y59500D02*
D03*
X190000Y49500D02*
D03*
Y59500D02*
D03*
X365000Y300000D02*
D03*
X335000D02*
D03*
D59*
X140000Y330000D02*
D03*
X150000D02*
D03*
X160000D02*
D03*
D60*
X52396Y333550D02*
D03*
X70900Y345330D02*
D03*
Y321830D02*
D03*
D61*
X216799Y338078D02*
D03*
X210500D02*
D03*
X204201D02*
D03*
X213650Y342802D02*
D03*
X207350D02*
D03*
D62*
X225067Y360322D02*
D03*
Y341621D02*
D03*
X195933D02*
D03*
Y360322D02*
D03*
D63*
X191232Y40011D02*
D03*
X101000Y168000D02*
D03*
X334500Y290500D02*
D03*
X213000Y349000D02*
D03*
X238000Y355500D02*
D03*
X143000Y320000D02*
D03*
X62500Y313000D02*
D03*
X102296Y261444D02*
D03*
X155500Y294000D02*
D03*
X153500Y288500D02*
D03*
X213500Y279500D02*
D03*
X218500Y287500D02*
D03*
X156500Y279500D02*
D03*
X173000Y253000D02*
D03*
X212500Y251500D02*
D03*
X262500Y220000D02*
D03*
Y234000D02*
D03*
X246500Y67500D02*
D03*
X255000Y101000D02*
D03*
X177500Y118000D02*
D03*
X184500Y107000D02*
D03*
X189500Y124000D02*
D03*
X173000Y114000D02*
D03*
Y122000D02*
D03*
X156000Y103000D02*
D03*
X151500Y116500D02*
D03*
X91000Y113000D02*
D03*
X70000Y124000D02*
D03*
X153000Y50500D02*
D03*
X65500Y118000D02*
D03*
X161000Y295000D02*
D03*
X213500Y288500D02*
D03*
X203500Y255000D02*
D03*
X170150Y277901D02*
D03*
X193000Y284000D02*
D03*
X154000Y283500D02*
D03*
X213500Y294500D02*
D03*
X211000Y276500D02*
D03*
X213500Y270000D02*
D03*
X168000Y251000D02*
D03*
X208500Y120000D02*
D03*
X193000Y110500D02*
D03*
X153000Y112500D02*
D03*
X151500Y129000D02*
D03*
X246000Y63000D02*
D03*
X164500Y278000D02*
D03*
X174500Y126500D02*
D03*
X103500Y266500D02*
D03*
X104000Y280000D02*
D03*
X183500Y116500D02*
D03*
X192000Y106000D02*
D03*
X152000Y96000D02*
D03*
X141000Y116000D02*
D03*
X209000Y97500D02*
D03*
X216500Y283000D02*
D03*
X212000Y228000D02*
D03*
X232000Y308500D02*
D03*
X189500Y228500D02*
D03*
X102500Y220500D02*
D03*
X216000Y304000D02*
D03*
X206500Y307500D02*
D03*
X98500Y251000D02*
D03*
X236500Y350500D02*
D03*
X191000Y305000D02*
D03*
X164500D02*
D03*
X249000Y301000D02*
D03*
X104000Y347500D02*
D03*
X120500Y306500D02*
D03*
X296000Y359000D02*
D03*
X280000Y346000D02*
D03*
X212000Y188000D02*
D03*
X169500Y159500D02*
D03*
X158150Y116000D02*
D03*
X156500Y108000D02*
D03*
X156000Y57000D02*
D03*
X175000Y109500D02*
D03*
X160500Y158500D02*
D03*
X185500Y122000D02*
D03*
X184000Y111500D02*
D03*
X238000Y108500D02*
D03*
X238500Y113500D02*
D03*
X257000Y105500D02*
D03*
M02*
