G04*
G04 #@! TF.GenerationSoftware,Altium Limited,Altium Designer,20.1.14 (287)*
G04*
G04 Layer_Physical_Order=1*
G04 Layer_Color=255*
%FSLAX25Y25*%
%MOIN*%
G70*
G04*
G04 #@! TF.SameCoordinates,AE2E9B50-125B-4246-99C6-3B409F254E70*
G04*
G04*
G04 #@! TF.FilePolarity,Positive*
G04*
G01*
G75*
%ADD10C,0.00600*%
%ADD18R,0.05500X0.01370*%
%ADD19R,0.05800X0.02000*%
%ADD20R,0.02000X0.05800*%
%ADD21R,0.03937X0.02953*%
%ADD22R,0.02362X0.02756*%
%ADD23R,0.08268X0.22047*%
%ADD24R,0.04400X0.07100*%
%ADD25R,0.02756X0.02000*%
%ADD26R,0.02953X0.03937*%
%ADD27R,0.05906X0.07874*%
%ADD28R,0.02756X0.02362*%
%ADD29R,0.03300X0.06300*%
%ADD30R,0.12200X0.06300*%
%ADD31R,0.05500X0.06300*%
%ADD32R,0.06300X0.05500*%
%ADD33R,0.07480X0.13386*%
%ADD56C,0.02000*%
%ADD57C,0.06000*%
%ADD58C,0.07000*%
%ADD59C,0.06496*%
%ADD60C,0.09449*%
%ADD61C,0.04756*%
%ADD62O,0.05150X0.10299*%
%ADD63C,0.02500*%
D10*
X60000Y122000D02*
X69176Y131176D01*
X60000Y65351D02*
Y122000D01*
X69176Y131176D02*
Y179676D01*
X60000Y65351D02*
X73352Y52000D01*
X204009Y279105D02*
X204394Y278720D01*
Y288957D02*
X204622Y288728D01*
X172484Y285424D02*
X172567D01*
X168634Y296634D02*
X175606D01*
X204394Y291516D02*
X204652Y291258D01*
X161337Y295337D02*
X163150D01*
X204652Y291258D02*
X210258D01*
X170513Y279608D02*
X172185Y281279D01*
X212986Y270000D02*
X213500D01*
X203500Y255000D02*
Y263000D01*
X161000Y295000D02*
X161337Y295337D01*
X210258Y291258D02*
X213500Y294500D01*
X173541Y286398D02*
X175606D01*
X172567Y285424D02*
X173541Y286398D01*
X205000Y281000D02*
X210500D01*
X200948Y279105D02*
X204009D01*
X163788Y295975D02*
X167975D01*
X213272Y288728D02*
X213500Y288500D01*
X193000Y284000D02*
X196054D01*
X211943Y271043D02*
X212986Y270000D01*
X168000Y251000D02*
Y280940D01*
X170150Y277901D02*
X170513Y278264D01*
X210500Y281000D02*
X211000Y280500D01*
X167975Y295975D02*
X168634Y296634D01*
X204622Y288728D02*
X213272D01*
X196054Y284000D02*
X200948Y279105D01*
X170513Y278264D02*
Y279608D01*
X204394Y271043D02*
X211943D01*
X163150Y295337D02*
X163788Y295975D01*
X168000Y280940D02*
X172484Y285424D01*
X172185Y281279D02*
X175606D01*
X211000Y276500D02*
Y280500D01*
X143500Y52000D02*
X152000Y60500D01*
X73352Y52000D02*
X143500D01*
X199500Y117500D02*
X206000D01*
X208500Y120000D01*
X198600Y110600D02*
X199500Y111500D01*
X193100Y110600D02*
X198600D01*
X193000Y110500D02*
X193100Y110600D01*
X191351Y302000D02*
X202500D01*
X191000Y302351D02*
Y305000D01*
Y302351D02*
X191351Y302000D01*
X202998Y302002D02*
X205500Y299500D01*
X202502Y302002D02*
X202998D01*
X202500Y302000D02*
X202502Y302002D01*
X221000Y273352D02*
Y299149D01*
X220649Y299500D02*
X221000Y299149D01*
X205500Y299500D02*
X220649D01*
X210500Y273000D02*
X220649D01*
X221000Y273352D01*
X204394Y276161D02*
X204779Y275776D01*
X207724D01*
X210500Y273000D01*
X162500Y114500D02*
X167000D01*
X153000Y112500D02*
X160500D01*
X162500Y114500D01*
X151500Y129000D02*
X157000D01*
X157975Y126025D02*
X158000Y126000D01*
X157975Y126025D02*
Y128025D01*
X157000Y129000D02*
X157975Y128025D01*
X148000Y131500D02*
X161000D01*
X146000Y129500D02*
X148000Y131500D01*
X161000D02*
X162500Y130000D01*
X146000Y113000D02*
Y129500D01*
X162500Y124352D02*
Y130000D01*
X246000Y63000D02*
X263000D01*
X211000D02*
X246000D01*
X164500Y278000D02*
Y278041D01*
X166000Y279540D01*
Y284000D01*
X175366Y124326D02*
X177292Y126251D01*
X175366Y128674D02*
X177292Y126749D01*
Y126251D02*
Y126749D01*
X168500Y126500D02*
X174500D01*
X194000Y108000D02*
X199000D01*
X192000Y106000D02*
X194000Y108000D01*
X151500Y102500D02*
X152000Y102000D01*
Y96000D02*
Y102000D01*
X135000Y116500D02*
X135500Y116000D01*
X141000D01*
X209000Y97500D02*
Y104488D01*
X228240Y312260D02*
X232000Y308500D01*
X189500Y218500D02*
X190000Y218000D01*
X189500Y218500D02*
Y228500D01*
X111563Y220500D02*
X112063Y220000D01*
X102500Y220500D02*
X111563D01*
X215846Y308520D02*
X216000Y308366D01*
Y304000D02*
Y308366D01*
X206500Y307500D02*
Y311000D01*
X207760Y312260D02*
X215846D01*
X206500Y311000D02*
X207760Y312260D01*
X98500Y251000D02*
X101000Y248500D01*
X114279D01*
X114284Y248504D01*
X225000Y329100D02*
X236500Y340600D01*
Y350500D01*
X225000Y316000D02*
Y329100D01*
X191000Y305000D02*
Y310500D01*
X225000Y312260D02*
X228240D01*
X165000Y305500D02*
Y311488D01*
X164500Y305000D02*
X165000Y305500D01*
X164488Y312000D02*
X165000Y311488D01*
X192648Y311000D02*
X193000Y311351D01*
X210500Y325000D02*
X216000Y319500D01*
Y316000D02*
Y319500D01*
X210500Y325000D02*
Y338078D01*
X170000Y60000D02*
Y71194D01*
X69176Y179676D02*
X69352Y179500D01*
X69000Y179851D02*
X69176Y179676D01*
X169500Y60500D02*
X170000Y60000D01*
X152000Y60500D02*
X169500D01*
X92000Y268500D02*
Y290500D01*
X91500Y269000D02*
X92000Y268500D01*
X70000Y269000D02*
X91500D01*
X69352Y179500D02*
X79500D01*
X69000Y179851D02*
Y268000D01*
X70000Y269000D01*
X79500Y179500D02*
X80000Y180000D01*
X104000Y280000D02*
X114284D01*
X122000Y298000D02*
Y304960D01*
X120500Y306459D02*
X122000Y304960D01*
X120500Y306459D02*
Y306500D01*
X104488Y330000D02*
Y347498D01*
X104000Y347986D02*
X104488Y347498D01*
X104000Y347986D02*
Y348000D01*
X126000Y293500D02*
X131000D01*
X95000D02*
X126000D01*
Y298000D01*
X132000Y249000D02*
Y280000D01*
Y292500D01*
X131000Y293500D02*
X132000Y292500D01*
X92000Y290500D02*
X95000Y293500D01*
X132000Y248000D02*
X141000D01*
X141500Y248500D01*
Y261000D01*
X142500Y262000D02*
X150000D01*
X141500Y261000D02*
X142500Y262000D01*
X300000Y344500D02*
Y358500D01*
X296000Y359000D02*
X299500D01*
X300000Y358500D01*
X279100Y332494D02*
Y344586D01*
X280000Y345486D01*
Y346000D01*
X249000Y309000D02*
X250000Y310000D01*
X249000Y301000D02*
Y309000D01*
X300000Y320500D02*
X300500Y320000D01*
X300000Y320500D02*
Y340000D01*
X212500Y188000D02*
X217000D01*
X218000Y189000D02*
Y198000D01*
X217000Y188000D02*
X218000Y189000D01*
X163851Y194500D02*
X203500D01*
X160500Y191148D02*
X163851Y194500D01*
X203500D02*
X211500Y202500D01*
X160500Y158500D02*
Y191148D01*
X203000Y202000D02*
X203500Y202500D01*
X208500D02*
X210000Y204000D01*
X203500Y202500D02*
X208500D01*
X210000Y204000D02*
X231500D01*
X256500Y202500D02*
X270000Y216000D01*
X211500Y202500D02*
X256500D01*
X233800Y206300D02*
Y218000D01*
X231500Y204000D02*
X233800Y206300D01*
X230000Y191851D02*
Y198000D01*
X224626Y191500D02*
X229648D01*
X230000Y191851D01*
X224063Y190937D02*
X224626Y191500D01*
X224063Y187000D02*
Y190937D01*
X165500Y162500D02*
X168500Y165500D01*
X166200Y127000D02*
X166993D01*
X165500Y127700D02*
X166200Y127000D01*
X165500Y127700D02*
Y162500D01*
X172000Y159500D02*
Y162648D01*
Y132000D02*
Y159500D01*
X169500D02*
X172000D01*
X158000Y120000D02*
X158150Y119850D01*
Y116000D02*
Y119850D01*
X156000Y56500D02*
Y57000D01*
X175600Y53900D02*
X180000Y49500D01*
X158600Y53900D02*
X175600D01*
X156000Y56500D02*
X158600Y53900D01*
X160500Y70000D02*
X178500Y88000D01*
X88000Y72000D02*
X158000D01*
X80000Y60000D02*
X87500Y67500D01*
X158000Y72000D02*
X175500Y89500D01*
X162000Y67500D02*
X181500Y87000D01*
X95000Y75000D02*
X157649D01*
X80000Y80000D02*
X88000Y72000D01*
X87500Y67500D02*
X162000D01*
X157649Y75000D02*
X172000Y89351D01*
X80000Y70000D02*
X160500D01*
X80000Y90000D02*
X95000Y75000D01*
X172000Y89351D02*
Y99000D01*
X175500Y89500D02*
Y99500D01*
X175366Y110380D02*
Y124326D01*
Y128674D02*
Y131134D01*
X168000Y127000D02*
X168500Y126500D01*
X175000Y110014D02*
X175366Y110380D01*
X175000Y109500D02*
Y110014D01*
X158000Y120000D02*
X162000D01*
X158000D02*
Y120488D01*
X156500Y108000D02*
X167000D01*
X264800Y190800D02*
X270000Y196000D01*
X242000Y166000D02*
Y190800D01*
X235100Y187000D02*
X238900Y190800D01*
X242000D01*
X264800D01*
X228000Y187000D02*
X235100D01*
X168500Y165500D02*
X241500D01*
X172000Y162648D02*
X172352Y163000D01*
X243500D01*
X266452Y185951D01*
X178500Y88000D02*
Y100000D01*
X178000Y101000D02*
X179193Y102193D01*
Y115693D01*
X185500Y122000D01*
X181500Y107852D02*
X184000Y110352D01*
Y111500D01*
X181500Y100500D02*
Y107852D01*
X241500Y165500D02*
X242000Y166000D01*
X266452Y185951D02*
X269952D01*
X270000Y186000D01*
X184793Y99800D02*
X184938Y99655D01*
Y86132D02*
Y99655D01*
X170000Y71194D02*
X184938Y86132D01*
X181500Y87000D02*
Y99500D01*
X217000Y89000D02*
Y114148D01*
X216649Y114500D02*
X217000Y114148D01*
X212500Y114851D02*
Y123649D01*
Y114851D02*
X212852Y114500D01*
X216649D01*
X212148Y124000D02*
X212500Y123649D01*
X199000Y124000D02*
X212148D01*
X238000Y108459D02*
Y108500D01*
X236500Y106959D02*
X238000Y108459D01*
X236500Y101000D02*
Y106959D01*
X237063Y115103D02*
Y119000D01*
Y115103D02*
X238500Y113666D01*
Y113500D02*
Y113666D01*
X175000Y160649D02*
X175352Y161000D01*
X179351Y158500D02*
X262500D01*
X179000Y132707D02*
Y158149D01*
X182352Y156000D02*
X270000D01*
X182000Y132000D02*
Y155649D01*
X182352Y156000D01*
X175000Y133000D02*
Y160649D01*
X175352Y161000D02*
X255000D01*
X179000Y158149D02*
X179351Y158500D01*
X249000Y151000D02*
X270000Y130000D01*
X191351Y148500D02*
X241500D01*
X262500Y158500D02*
X270000Y166000D01*
X194351Y146000D02*
X234000D01*
X185352Y153000D02*
X263000D01*
X191000Y148149D02*
X191351Y148500D01*
X263000Y153000D02*
X270000Y146000D01*
X191000Y133000D02*
Y148149D01*
X188352Y151000D02*
X249000D01*
X241500Y148500D02*
X270000Y120000D01*
X234000Y146000D02*
X270000Y110000D01*
X190500Y132500D02*
X191000Y133000D01*
X185000Y152648D02*
X185352Y153000D01*
X188000Y150648D02*
X188352Y151000D01*
X255000Y161000D02*
X270000Y176000D01*
X188000Y133000D02*
Y150648D01*
X193500Y133500D02*
X194000Y134000D01*
X185000Y132000D02*
Y152648D01*
X194000Y134000D02*
Y145649D01*
X194351Y146000D01*
X264500Y105500D02*
X270000Y100000D01*
X257000Y105500D02*
X264500D01*
X217000Y89000D02*
X218000Y88000D01*
X199000Y104500D02*
X199500Y105000D01*
X199000Y82000D02*
X214000Y67000D01*
X199000Y82000D02*
Y104500D01*
X229769Y67000D02*
X252769Y90000D01*
X227834Y98371D02*
X240649D01*
X241000Y98722D02*
Y101000D01*
X252769Y90000D02*
X270000D01*
X214000Y67000D02*
X229769D01*
X225500Y84500D02*
Y96037D01*
X227834Y98371D01*
X240649D02*
X241000Y98722D01*
X218000Y88000D02*
X224000D01*
X80000Y100000D02*
X88000Y92000D01*
X159000D02*
X167000Y100000D01*
X88000Y92000D02*
X159000D01*
X167000Y100000D02*
Y105000D01*
X165093Y117600D02*
X166993D01*
X163893Y118800D02*
X165093Y117600D01*
X163200Y118800D02*
X163893D01*
X162000Y120000D02*
X163200Y118800D01*
X162852Y124000D02*
X167000D01*
X146000Y113000D02*
X146488Y112512D01*
X145500Y113500D02*
X146000Y113000D01*
X162500Y124352D02*
X162852Y124000D01*
X127500Y113500D02*
X145500D01*
X146488Y102000D02*
Y112512D01*
X225500Y125500D02*
X240500D01*
X241000Y119000D02*
Y125000D01*
X240500Y125500D02*
X241000Y125000D01*
X199393Y127000D02*
X223500D01*
X224000Y126500D01*
X194300Y82700D02*
Y99000D01*
Y82700D02*
X212000Y65000D01*
X232769D01*
X247769Y80000D02*
X270000D01*
X232769Y65000D02*
X247769Y80000D01*
X263000Y63000D02*
X270000Y70000D01*
X191000Y83000D02*
X211000Y63000D01*
X191000Y83000D02*
Y99000D01*
X188000Y82000D02*
Y100000D01*
X210000Y60000D02*
X270000D01*
X188000Y82000D02*
X210000Y60000D01*
X178493Y132200D02*
X179000Y132707D01*
D18*
X204394Y296634D02*
D03*
Y294075D02*
D03*
Y291516D02*
D03*
Y288957D02*
D03*
Y286398D02*
D03*
Y283839D02*
D03*
Y281279D02*
D03*
Y276161D02*
D03*
Y278720D02*
D03*
Y273602D02*
D03*
Y271043D02*
D03*
Y268484D02*
D03*
Y265925D02*
D03*
Y263366D02*
D03*
X175606Y296634D02*
D03*
Y294075D02*
D03*
Y291516D02*
D03*
Y288957D02*
D03*
Y286398D02*
D03*
Y283839D02*
D03*
Y281279D02*
D03*
Y278720D02*
D03*
Y276161D02*
D03*
Y273602D02*
D03*
Y271043D02*
D03*
Y268484D02*
D03*
Y265925D02*
D03*
Y263366D02*
D03*
D19*
X199393Y105000D02*
D03*
Y108100D02*
D03*
Y111300D02*
D03*
Y114400D02*
D03*
Y117600D02*
D03*
Y120700D02*
D03*
Y123900D02*
D03*
Y127000D02*
D03*
X166993D02*
D03*
Y123900D02*
D03*
Y120700D02*
D03*
Y117600D02*
D03*
Y114400D02*
D03*
Y111300D02*
D03*
Y108100D02*
D03*
Y105000D02*
D03*
D20*
X194193Y132200D02*
D03*
X191093D02*
D03*
X187893D02*
D03*
X184793D02*
D03*
X181593D02*
D03*
X178493D02*
D03*
X175293D02*
D03*
X172193D02*
D03*
Y99800D02*
D03*
X175293D02*
D03*
X178493D02*
D03*
X181593D02*
D03*
X184793D02*
D03*
X187893D02*
D03*
X191093D02*
D03*
X194193D02*
D03*
D21*
X166000Y284000D02*
D03*
Y289512D02*
D03*
X209000Y110000D02*
D03*
Y104488D02*
D03*
X250000Y315512D02*
D03*
Y310000D02*
D03*
X158000Y126000D02*
D03*
Y120488D02*
D03*
X135000Y122000D02*
D03*
Y116488D02*
D03*
D22*
X185937Y209000D02*
D03*
X182000D02*
D03*
X241000Y101000D02*
D03*
X237063D02*
D03*
X241000Y119000D02*
D03*
X237063D02*
D03*
X224063Y187000D02*
D03*
X228000D02*
D03*
X112063Y220000D02*
D03*
X116000D02*
D03*
X199063Y203000D02*
D03*
X203000D02*
D03*
X150000Y262000D02*
D03*
X153937D02*
D03*
X126000Y298000D02*
D03*
X122063D02*
D03*
D23*
X224000Y125402D02*
D03*
Y88000D02*
D03*
D24*
X127000Y114000D02*
D03*
X115200D02*
D03*
D25*
X215846Y316000D02*
D03*
Y312260D02*
D03*
Y308520D02*
D03*
X225000D02*
D03*
Y312260D02*
D03*
Y316000D02*
D03*
D26*
X146488Y102000D02*
D03*
X152000D02*
D03*
X104488Y330000D02*
D03*
X110000D02*
D03*
X164488Y312000D02*
D03*
X170000D02*
D03*
X97512Y268000D02*
D03*
X92000D02*
D03*
D27*
X132000Y248504D02*
D03*
X114284D02*
D03*
X132000Y280000D02*
D03*
X114284D02*
D03*
D28*
X300000Y340000D02*
D03*
Y343937D02*
D03*
D29*
X279100Y332494D02*
D03*
X270000D02*
D03*
X260900D02*
D03*
D30*
X270000Y307294D02*
D03*
D31*
X229800Y198000D02*
D03*
X218000D02*
D03*
X141800Y220000D02*
D03*
X130000D02*
D03*
X201800Y218000D02*
D03*
X190000D02*
D03*
X233800D02*
D03*
X222000D02*
D03*
D32*
X300000Y308200D02*
D03*
Y320000D02*
D03*
D33*
X180323D02*
D03*
X195677D02*
D03*
D56*
X84795Y118000D02*
X96621Y129825D01*
X65500Y118000D02*
X84795D01*
X80000Y130000D02*
X108000D01*
X171000Y311000D02*
X192648D01*
X175606Y288957D02*
X175880Y288683D01*
X198500Y269000D02*
X200739D01*
X154000Y283500D02*
X164575Y294075D01*
X179956Y287544D02*
X198500Y269000D01*
X179956Y287544D02*
Y287745D01*
X179019Y288683D02*
X179956Y287745D01*
X164575Y294075D02*
X175606D01*
X200739Y269000D02*
X200981Y268758D01*
X202644D01*
X175880Y288683D02*
X179019D01*
X97512Y268000D02*
X101988D01*
X97500D02*
X97512D01*
X101988D02*
X103488Y266500D01*
X103500D01*
X192672Y114400D02*
X201879D01*
X183500Y116500D02*
X191500D01*
X201879Y114400D02*
X201979Y114500D01*
X204500D01*
X208032Y110968D01*
Y110476D02*
Y110968D01*
Y110476D02*
X208508Y110000D01*
X209000D01*
X211465Y283000D02*
X216500D01*
X210900Y283565D02*
X211465Y283000D01*
X206000Y283565D02*
X210900D01*
X212000Y221000D02*
Y228000D01*
X215000Y218000D02*
X222000D01*
X212000Y221000D02*
X215000Y218000D01*
X231500Y246000D02*
Y297504D01*
X228000Y242500D02*
X231500Y246000D01*
X165500Y242500D02*
X228000D01*
X225000Y270500D02*
Y308520D01*
X231500Y297504D02*
X249508Y315512D01*
X220000Y265500D02*
X225000Y270500D01*
X213076Y265500D02*
X220000D01*
X249508Y315512D02*
X250000D01*
X212924Y265651D02*
X213076Y265500D01*
X206000Y265651D02*
X212924D01*
X159500Y242500D02*
X165500D01*
Y209000D02*
X182000D01*
X142500D02*
X165500D01*
Y242500D01*
X183172Y203000D02*
X199063D01*
X182000Y204172D02*
Y209000D01*
Y204172D02*
X183172Y203000D01*
X154000Y248000D02*
X159500Y242500D01*
X201500Y210500D02*
Y218000D01*
X185937Y209000D02*
X200000D01*
X201500Y210500D01*
X154000Y248000D02*
Y261500D01*
X183500Y289470D02*
Y294438D01*
X177938Y300000D02*
X183500Y294438D01*
Y289470D02*
X199093Y273876D01*
X204120D01*
X150000Y300000D02*
Y330000D01*
Y276150D02*
Y300000D01*
X204120Y273876D02*
X204394Y273602D01*
X150000Y300000D02*
X177938D01*
X193000Y317323D02*
X195677Y320000D01*
X193000Y311351D02*
Y317323D01*
X180000Y371000D02*
X217828D01*
X163000D02*
X180000D01*
X180323Y320000D02*
Y370677D01*
X180000Y371000D02*
X180323Y370677D01*
X166000Y289512D02*
X170968D01*
X171250Y289231D01*
X173856D01*
X116000Y220000D02*
X130000D01*
X160000Y329500D02*
X160500Y330000D01*
Y368500D01*
X163000Y371000D01*
X219000Y341024D02*
Y369828D01*
X217828Y371000D02*
X219000Y369828D01*
X216799Y338078D02*
Y338823D01*
X219000Y341024D01*
X110000Y330000D02*
X140000D01*
X153937Y262000D02*
Y272213D01*
X150000Y276150D02*
X153937Y272213D01*
X300000Y308200D02*
X300400D01*
X308600Y300000D01*
X335000D01*
X251672Y332494D02*
X260900D01*
X250000Y316000D02*
X250500Y316500D01*
Y331322D01*
X251672Y332494D01*
X273700Y308200D02*
X300000D01*
X273000Y307500D02*
X273700Y308200D01*
X270000Y307294D02*
Y331500D01*
X142000Y208500D02*
Y219800D01*
Y191672D02*
Y208500D01*
X142500Y209000D01*
X106500Y188500D02*
X107500Y187500D01*
X105000Y190000D02*
X106500Y188500D01*
X140828Y190500D02*
X142000Y191672D01*
X108500Y190500D02*
X140828D01*
X106500Y188500D02*
X108500Y190500D01*
X141800Y220000D02*
X142000Y219800D01*
X191500Y116500D02*
Y119828D01*
Y115572D02*
Y116500D01*
X106000Y160000D02*
X107500Y158500D01*
Y187500D01*
Y158500D02*
X108000Y158000D01*
X80000Y190000D02*
X105000D01*
X108000Y130000D02*
X108500D01*
X108000D02*
Y158000D01*
X80000Y160000D02*
X106000D01*
X116500Y122000D02*
X135000D01*
X116372D02*
X116500D01*
X108500Y130000D02*
X116500Y122000D01*
X115200Y114000D02*
Y120828D01*
X116372Y122000D01*
X192672Y121000D02*
X199000D01*
X191500Y119828D02*
X192672Y121000D01*
X191500Y115572D02*
X192672Y114400D01*
D57*
X50000Y110000D02*
D03*
Y100000D02*
D03*
Y90000D02*
D03*
Y80000D02*
D03*
Y70000D02*
D03*
Y60000D02*
D03*
X80000D02*
D03*
Y70000D02*
D03*
Y80000D02*
D03*
Y90000D02*
D03*
Y100000D02*
D03*
Y110000D02*
D03*
X270000Y60000D02*
D03*
Y70000D02*
D03*
Y80000D02*
D03*
Y90000D02*
D03*
Y100000D02*
D03*
Y110000D02*
D03*
Y120000D02*
D03*
Y130000D02*
D03*
X300000Y146000D02*
D03*
Y156000D02*
D03*
Y166000D02*
D03*
Y176000D02*
D03*
Y186000D02*
D03*
Y196000D02*
D03*
Y206000D02*
D03*
Y216000D02*
D03*
Y226000D02*
D03*
Y236000D02*
D03*
X50000Y200000D02*
D03*
Y190000D02*
D03*
Y180000D02*
D03*
Y170000D02*
D03*
Y160000D02*
D03*
Y150000D02*
D03*
Y140000D02*
D03*
Y130000D02*
D03*
X300000Y60000D02*
D03*
Y70000D02*
D03*
Y80000D02*
D03*
Y90000D02*
D03*
Y100000D02*
D03*
Y110000D02*
D03*
Y120000D02*
D03*
Y130000D02*
D03*
X80000D02*
D03*
Y140000D02*
D03*
Y150000D02*
D03*
Y160000D02*
D03*
Y170000D02*
D03*
Y180000D02*
D03*
Y190000D02*
D03*
Y200000D02*
D03*
X270000Y236000D02*
D03*
Y226000D02*
D03*
Y216000D02*
D03*
Y206000D02*
D03*
Y196000D02*
D03*
Y186000D02*
D03*
Y176000D02*
D03*
Y166000D02*
D03*
Y156000D02*
D03*
Y146000D02*
D03*
D58*
X170000Y49500D02*
D03*
Y59500D02*
D03*
X180000Y49500D02*
D03*
Y59500D02*
D03*
X190000Y49500D02*
D03*
Y59500D02*
D03*
X365000Y300000D02*
D03*
X335000D02*
D03*
D59*
X140000Y330000D02*
D03*
X150000D02*
D03*
X160000D02*
D03*
D60*
X52396Y333550D02*
D03*
X70900Y345330D02*
D03*
Y321830D02*
D03*
D61*
X216799Y338078D02*
D03*
X210500D02*
D03*
X204201D02*
D03*
X213650Y342802D02*
D03*
X207350D02*
D03*
D62*
X225067Y360322D02*
D03*
Y341621D02*
D03*
X195933D02*
D03*
Y360322D02*
D03*
D63*
X191232Y40011D02*
D03*
X101000Y168000D02*
D03*
X334500Y290500D02*
D03*
X213000Y349000D02*
D03*
X238000Y355500D02*
D03*
X143000Y320000D02*
D03*
X62500Y313000D02*
D03*
X102296Y261444D02*
D03*
X155500Y294000D02*
D03*
X153500Y288500D02*
D03*
X213500Y279500D02*
D03*
X218500Y287500D02*
D03*
X156500Y279500D02*
D03*
X173000Y253000D02*
D03*
X212500Y251500D02*
D03*
X262500Y220000D02*
D03*
Y234000D02*
D03*
X246500Y67500D02*
D03*
X255000Y101000D02*
D03*
X177500Y118000D02*
D03*
X184500Y107000D02*
D03*
X189500Y124000D02*
D03*
X173000Y114000D02*
D03*
Y122000D02*
D03*
X156000Y103000D02*
D03*
X151500Y116500D02*
D03*
X91000Y113000D02*
D03*
X70000Y124000D02*
D03*
X153000Y50500D02*
D03*
X65500Y118000D02*
D03*
X161000Y295000D02*
D03*
X213500Y288500D02*
D03*
X203500Y255000D02*
D03*
X170150Y277901D02*
D03*
X193000Y284000D02*
D03*
X154000Y283500D02*
D03*
X213500Y294500D02*
D03*
X211000Y276500D02*
D03*
X213500Y270000D02*
D03*
X168000Y251000D02*
D03*
X208500Y120000D02*
D03*
X193000Y110500D02*
D03*
X153000Y112500D02*
D03*
X151500Y129000D02*
D03*
X246000Y63000D02*
D03*
X164500Y278000D02*
D03*
X174500Y126500D02*
D03*
X103500Y266500D02*
D03*
X104000Y280000D02*
D03*
X183500Y116500D02*
D03*
X192000Y106000D02*
D03*
X152000Y96000D02*
D03*
X141000Y116000D02*
D03*
X209000Y97500D02*
D03*
X216500Y283000D02*
D03*
X212000Y228000D02*
D03*
X232000Y308500D02*
D03*
X189500Y228500D02*
D03*
X102500Y220500D02*
D03*
X216000Y304000D02*
D03*
X206500Y307500D02*
D03*
X98500Y251000D02*
D03*
X236500Y350500D02*
D03*
X191000Y305000D02*
D03*
X164500D02*
D03*
X249000Y301000D02*
D03*
X104000Y347500D02*
D03*
X120500Y306500D02*
D03*
X296000Y359000D02*
D03*
X280000Y346000D02*
D03*
X212000Y188000D02*
D03*
X169500Y159500D02*
D03*
X158150Y116000D02*
D03*
X156500Y108000D02*
D03*
X156000Y57000D02*
D03*
X175000Y109500D02*
D03*
X160500Y158500D02*
D03*
X185500Y122000D02*
D03*
X184000Y111500D02*
D03*
X238000Y108500D02*
D03*
X238500Y113500D02*
D03*
X257000Y105500D02*
D03*
M02*
