G04*
G04 #@! TF.GenerationSoftware,Altium Limited,Altium Designer,20.1.14 (287)*
G04*
G04 Layer_Color=65535*
%FSLAX25Y25*%
%MOIN*%
G70*
G04*
G04 #@! TF.SameCoordinates,AE2E9B50-125B-4246-99C6-3B409F254E70*
G04*
G04*
G04 #@! TF.FilePolarity,Positive*
G04*
G01*
G75*
%ADD10C,0.00600*%
%ADD11C,0.01000*%
%ADD12C,0.00700*%
%ADD13C,0.01575*%
%ADD14C,0.00787*%
%ADD15C,0.00800*%
%ADD16C,0.01500*%
%ADD17C,0.00500*%
D10*
X176700Y300500D02*
G03*
X176700Y300500I-1200J0D01*
G01*
X216906Y319484D02*
G03*
X216906Y319484I-707J0D01*
G01*
X138106Y280100D02*
G03*
X138106Y280100I-806J0D01*
G01*
X285207Y329500D02*
G03*
X285207Y329500I-707J0D01*
G01*
X201516Y259528D02*
Y300472D01*
X178484Y259528D02*
X201516D01*
X178484D02*
Y300472D01*
X201516D01*
X167500Y129500D02*
Y131500D01*
X169500D01*
X198394Y129101D02*
Y131101D01*
X196394D02*
X198394D01*
X196223Y101045D02*
X198223D01*
Y103045D01*
X168000Y101000D02*
Y103000D01*
Y101000D02*
X170000D01*
X164500Y286000D02*
Y287500D01*
X167500Y286000D02*
Y287500D01*
X183700Y210000D02*
X184200D01*
X183700Y208000D02*
X184200D01*
X210500Y106500D02*
Y108000D01*
X207500Y106500D02*
Y108000D01*
X238763Y102000D02*
X239263D01*
X238763Y100000D02*
X239263D01*
X238763Y120000D02*
X239263D01*
X238763Y118000D02*
X239263D01*
X118600Y110500D02*
X123600D01*
X118600Y117500D02*
X123600D01*
X251500Y312000D02*
Y313500D01*
X248500Y312000D02*
Y313500D01*
X159500Y122488D02*
Y123988D01*
X156500Y122488D02*
Y123988D01*
X148500Y103500D02*
X150000D01*
X148500Y100500D02*
X150000D01*
X225763Y186000D02*
X226263D01*
X225763Y188000D02*
X226263D01*
X136500Y118488D02*
Y119988D01*
X133500Y118488D02*
Y119988D01*
X111300Y253400D02*
Y275000D01*
X135000Y253500D02*
Y275000D01*
X118400Y251350D02*
X120600D01*
Y277250D01*
X118200D02*
X120600D01*
X125800Y277100D02*
X127900D01*
X125800Y251200D02*
Y277100D01*
Y251200D02*
X128100D01*
X124400Y264250D02*
X125800D01*
X120600Y264300D02*
X122200D01*
X123300Y266800D02*
Y268700D01*
Y266800D02*
X124500D01*
X121900D02*
X124500D01*
X301000Y341700D02*
Y342200D01*
X299000Y341700D02*
Y342200D01*
X113763Y219000D02*
X114263D01*
X113763Y221000D02*
X114263D01*
X200763Y202000D02*
X201263D01*
X200763Y204000D02*
X201263D01*
X151700Y261000D02*
X152200D01*
X151700Y263000D02*
X152200D01*
X256800Y312594D02*
Y327194D01*
Y312594D02*
X283200D01*
Y327194D01*
X256800D02*
X283200D01*
X214000Y195000D02*
Y201000D01*
X297000Y324000D02*
X303000D01*
X126000Y217000D02*
Y223000D01*
X186000Y215000D02*
Y221000D01*
X218000Y215000D02*
Y221000D01*
X185000Y326500D02*
X191000D01*
X185000Y313500D02*
X191000D01*
X106500Y331500D02*
X108000D01*
X106500Y328500D02*
X108000D01*
X166500Y313500D02*
X168000D01*
X166500Y310500D02*
X168000D01*
X123800Y299000D02*
X124300D01*
X123800Y297000D02*
X124300D01*
X94000Y266500D02*
X95500D01*
X94000Y269500D02*
X95500D01*
D11*
X203118Y101000D02*
G03*
X203118Y101000I-1118J0D01*
G01*
X214500Y74152D02*
G03*
X218000Y71902I2875J625D01*
G01*
X218500Y140902D02*
G03*
X214500Y137902I-500J-3500D01*
G01*
X229500Y71902D02*
G03*
X233500Y74902I500J3500D01*
G01*
X233500Y137402D02*
G03*
X229000Y140902I-4000J-500D01*
G01*
X132894Y325504D02*
G03*
X132894Y325504I-394J0D01*
G01*
X50000Y55000D02*
X55000D01*
Y65000D01*
X45000D02*
X55000D01*
X45000D02*
Y115000D01*
X55000D01*
Y65000D02*
Y115000D01*
X45000Y55000D02*
Y65000D01*
Y55000D02*
X50000D01*
X104000Y56000D02*
Y112000D01*
Y125000D02*
Y202000D01*
X75000Y115000D02*
X80000D01*
X75000Y105000D02*
Y115000D01*
Y105000D02*
X85000D01*
Y55000D02*
Y105000D01*
X75000Y55000D02*
X85000D01*
X75000D02*
Y105000D01*
X85000D02*
Y115000D01*
X80000D02*
X85000D01*
X253000Y276000D02*
X370000D01*
X252000Y275000D02*
X253000Y276000D01*
X252000Y242000D02*
Y275000D01*
X250000Y240000D02*
X252000Y242000D01*
X43000Y240000D02*
X250000D01*
X218000Y140902D02*
X229000D01*
X214500Y137902D02*
X214500Y74152D01*
X233500Y74902D02*
Y137402D01*
X229500Y71902D02*
Y71902D01*
X218000Y71902D02*
X229500D01*
X195000Y44500D02*
Y62000D01*
X192500Y64500D02*
X195000Y62000D01*
X165000Y64500D02*
X192500D01*
X185000Y54500D02*
X195000D01*
X185000D02*
Y64500D01*
X165000Y44500D02*
X195000D01*
X165000D02*
Y64500D01*
X265000Y65000D02*
X275000D01*
X265000Y55000D02*
Y135000D01*
Y55000D02*
X275000D01*
Y135000D01*
X265000D02*
X275000D01*
X362750Y294000D02*
X367250D01*
X365000D02*
Y295027D01*
X363750Y292500D02*
X366250D01*
X364523Y291000D02*
X365250D01*
X135000Y335000D02*
X166000D01*
Y324500D02*
Y335000D01*
X135000Y324500D02*
Y335000D01*
Y324500D02*
X166000D01*
X70900Y345330D02*
Y345361D01*
X221900Y201000D02*
X225900D01*
X221900Y195000D02*
X225900D01*
X303000Y312100D02*
Y316100D01*
X297000Y312100D02*
Y316100D01*
X133900Y223000D02*
X137900D01*
X133900Y217000D02*
X137900D01*
X193900Y221000D02*
X197900D01*
X193900Y215000D02*
X197900D01*
X225900Y221000D02*
X229900D01*
X225900Y215000D02*
X229900D01*
X295000Y151000D02*
Y241000D01*
X305000Y141000D02*
Y231000D01*
X295000Y141000D02*
X305000D01*
X295000D02*
Y231000D01*
Y151000D02*
X305000D01*
Y241000D01*
X295000D02*
X305000D01*
X45000Y195000D02*
X55000D01*
Y125000D02*
Y205000D01*
X45000D02*
X55000D01*
X45000Y125000D02*
Y205000D01*
Y125000D02*
X55000D01*
X295000Y55000D02*
X305000D01*
X295000D02*
Y135000D01*
X305000D01*
Y55000D02*
Y135000D01*
X295000Y125000D02*
X305000D01*
X75000D02*
X85000D01*
X75000D02*
Y205000D01*
X85000D01*
Y125000D02*
Y205000D01*
X75000Y195000D02*
X85000D01*
X265000Y241000D02*
X275000D01*
Y151000D02*
Y241000D01*
X265000Y151000D02*
X275000D01*
X265000Y141000D02*
Y231000D01*
Y141000D02*
X275000D01*
Y231000D01*
X265000Y151000D02*
Y241000D01*
X44501Y47999D02*
X42502D01*
X43501D01*
Y43001D01*
X42502Y42001D01*
X41502D01*
X40502Y43001D01*
X46501Y42001D02*
X48500D01*
X47500D01*
Y47999D01*
X46501Y46999D01*
X51499D02*
X52499Y47999D01*
X54498D01*
X55498Y46999D01*
Y43001D01*
X54498Y42001D01*
X52499D01*
X51499Y43001D01*
Y46999D01*
X173002Y251998D02*
Y247000D01*
X174001Y246000D01*
X176001D01*
X177000Y247000D01*
Y251998D01*
X182998Y246000D02*
X179000D01*
X182998Y249999D01*
Y250998D01*
X181999Y251998D01*
X179999D01*
X179000Y250998D01*
X296000Y268000D02*
Y270666D01*
X297333Y271999D01*
X298666Y270666D01*
Y268000D01*
Y269999D01*
X296000D01*
X299999Y270666D02*
Y268000D01*
Y269333D01*
X300665Y269999D01*
X301332Y270666D01*
X301998D01*
X306663Y271999D02*
Y268000D01*
X304664D01*
X303997Y268666D01*
Y269999D01*
X304664Y270666D01*
X306663D01*
X307996D02*
Y268666D01*
X308663Y268000D01*
X310662D01*
Y270666D01*
X311995Y268000D02*
X313328D01*
X312661D01*
Y270666D01*
X311995D01*
X315327Y268000D02*
Y270666D01*
X317326D01*
X317993Y269999D01*
Y268000D01*
X319992D02*
X321325D01*
X321992Y268666D01*
Y269999D01*
X321325Y270666D01*
X319992D01*
X319326Y269999D01*
Y268666D01*
X319992Y268000D01*
X327323Y271999D02*
Y268000D01*
X329323D01*
X329989Y268666D01*
Y269333D01*
X329323Y269999D01*
X327323D01*
X329323D01*
X329989Y270666D01*
Y271332D01*
X329323Y271999D01*
X327323D01*
X331988Y268000D02*
X333321D01*
X333988Y268666D01*
Y269999D01*
X333321Y270666D01*
X331988D01*
X331322Y269999D01*
Y268666D01*
X331988Y268000D01*
X335987Y270666D02*
X337320D01*
X337986Y269999D01*
Y268000D01*
X335987D01*
X335321Y268666D01*
X335987Y269333D01*
X337986D01*
X339319Y270666D02*
Y268000D01*
Y269333D01*
X339986Y269999D01*
X340652Y270666D01*
X341319D01*
X345984Y271999D02*
Y268000D01*
X343985D01*
X343318Y268666D01*
Y269999D01*
X343985Y270666D01*
X345984D01*
X41000Y245333D02*
Y249332D01*
X42999D01*
X43666Y248665D01*
Y247332D01*
X42999Y246666D01*
X41000D01*
X45665Y245333D02*
X46998D01*
X47664Y245999D01*
Y247332D01*
X46998Y247999D01*
X45665D01*
X44999Y247332D01*
Y245999D01*
X45665Y245333D01*
X48997Y247999D02*
Y245999D01*
X49664Y245333D01*
X50330Y245999D01*
X50997Y245333D01*
X51663Y245999D01*
Y247999D01*
X54996Y245333D02*
X53663D01*
X52996Y245999D01*
Y247332D01*
X53663Y247999D01*
X54996D01*
X55662Y247332D01*
Y246666D01*
X52996D01*
X56995Y247999D02*
Y245333D01*
Y246666D01*
X57661Y247332D01*
X58328Y247999D01*
X58994D01*
X64992Y245333D02*
Y249332D01*
X66325Y247999D01*
X67658Y249332D01*
Y245333D01*
X69657Y247999D02*
X70990D01*
X71657Y247332D01*
Y245333D01*
X69657D01*
X68991Y245999D01*
X69657Y246666D01*
X71657D01*
X72990Y245333D02*
Y247999D01*
X74989D01*
X75656Y247332D01*
Y245333D01*
X77655Y247999D02*
X78988D01*
X79654Y247332D01*
Y245333D01*
X77655D01*
X76988Y245999D01*
X77655Y246666D01*
X79654D01*
X82320Y244000D02*
X82986D01*
X83653Y244666D01*
Y247999D01*
X81653D01*
X80987Y247332D01*
Y245999D01*
X81653Y245333D01*
X83653D01*
X86985D02*
X85652D01*
X84986Y245999D01*
Y247332D01*
X85652Y247999D01*
X86985D01*
X87652Y247332D01*
Y246666D01*
X84986D01*
X88985Y245333D02*
Y247999D01*
X89651D01*
X90317Y247332D01*
Y245333D01*
Y247332D01*
X90984Y247999D01*
X91650Y247332D01*
Y245333D01*
X94983D02*
X93650D01*
X92983Y245999D01*
Y247332D01*
X93650Y247999D01*
X94983D01*
X95649Y247332D01*
Y246666D01*
X92983D01*
X96982Y245333D02*
Y247999D01*
X98981D01*
X99648Y247332D01*
Y245333D01*
X101647Y248665D02*
Y247999D01*
X100981D01*
X102313D01*
X101647D01*
Y245999D01*
X102313Y245333D01*
X251998Y183000D02*
X246000D01*
Y180001D01*
X247000Y179001D01*
X250998D01*
X251998Y180001D01*
Y183000D01*
Y177002D02*
Y175003D01*
Y176002D01*
X246000D01*
Y177002D01*
Y175003D01*
X250998Y168005D02*
X251998Y169004D01*
Y171004D01*
X250998Y172004D01*
X247000D01*
X246000Y171004D01*
Y169004D01*
X247000Y168005D01*
X248999D01*
Y170004D01*
X251998Y166006D02*
Y164006D01*
Y165006D01*
X246000D01*
Y166006D01*
Y164006D01*
X251998Y161007D02*
Y157008D01*
Y159008D01*
X246000D01*
Y155009D02*
X249999D01*
X251998Y153010D01*
X249999Y151010D01*
X246000D01*
X248999D01*
Y155009D01*
X251998Y149011D02*
X246000D01*
Y145012D01*
X251998Y137015D02*
Y135015D01*
Y136015D01*
X246000D01*
Y137015D01*
Y135015D01*
Y132017D02*
X249999Y128018D01*
X251998Y123019D02*
Y125019D01*
X250998Y126018D01*
X247000D01*
X246000Y125019D01*
Y123019D01*
X247000Y122020D01*
X250998D01*
X251998Y123019D01*
X119000Y63000D02*
X115001D01*
X113002Y64999D01*
X115001Y66999D01*
X119000D01*
X116001D01*
Y63000D01*
X119000Y68998D02*
X113002D01*
X119000Y72997D01*
X113002D01*
X119000Y74996D02*
X115001D01*
X113002Y76995D01*
X115001Y78995D01*
X119000D01*
X116001D01*
Y74996D01*
X113002Y80994D02*
X119000D01*
Y84993D01*
X113002Y89991D02*
Y87992D01*
X114002Y86992D01*
X118000D01*
X119000Y87992D01*
Y89991D01*
X118000Y90991D01*
X114002D01*
X113002Y89991D01*
X114002Y96989D02*
X113002Y95989D01*
Y93990D01*
X114002Y92990D01*
X118000D01*
X119000Y93990D01*
Y95989D01*
X118000Y96989D01*
X116001D01*
Y94990D01*
X119000Y147000D02*
X113002D01*
Y149999D01*
X114002Y150999D01*
X116001D01*
X117001Y149999D01*
Y147000D01*
X113002Y155997D02*
Y153998D01*
X114002Y152998D01*
X118000D01*
X119000Y153998D01*
Y155997D01*
X118000Y156997D01*
X114002D01*
X113002Y155997D01*
Y158996D02*
X119000D01*
X117001Y160995D01*
X119000Y162995D01*
X113002D01*
Y168993D02*
Y164994D01*
X119000D01*
Y168993D01*
X116001Y164994D02*
Y166993D01*
X119000Y170992D02*
X113002D01*
Y173991D01*
X114002Y174991D01*
X116001D01*
X117001Y173991D01*
Y170992D01*
Y172992D02*
X119000Y174991D01*
X19500Y160500D02*
X12835D01*
X9503Y163832D01*
X12835Y167165D01*
X19500D01*
X14502D01*
Y160500D01*
X12835Y170497D02*
X19500D01*
X16168D01*
X14502Y172163D01*
X12835Y173829D01*
Y175495D01*
X9503Y187158D02*
X19500D01*
Y182160D01*
X17834Y180493D01*
X14502D01*
X12835Y182160D01*
Y187158D01*
Y190490D02*
X17834D01*
X19500Y192156D01*
Y197155D01*
X12835D01*
X19500Y200487D02*
Y203819D01*
Y202153D01*
X12835D01*
Y200487D01*
X19500Y208818D02*
X12835D01*
Y213816D01*
X14502Y215482D01*
X19500D01*
Y220481D02*
Y223813D01*
X17834Y225479D01*
X14502D01*
X12835Y223813D01*
Y220481D01*
X14502Y218814D01*
X17834D01*
X19500Y220481D01*
X192999Y251998D02*
X189000D01*
Y248999D01*
X190999D01*
X189000D01*
Y246000D01*
X194998Y251998D02*
X198997D01*
X196997D01*
Y246000D01*
X200996Y251998D02*
Y246000D01*
X203995D01*
X204995Y247000D01*
Y250998D01*
X203995Y251998D01*
X200996D01*
X206994D02*
X208994D01*
X207994D01*
Y246000D01*
X206994D01*
X208994D01*
X336000Y325998D02*
X337000Y326998D01*
X338999D01*
X339999Y325998D01*
Y324999D01*
X338999Y323999D01*
X337999D01*
X338999D01*
X339999Y322999D01*
Y322000D01*
X338999Y321000D01*
X337000D01*
X336000Y322000D01*
X341998Y326998D02*
Y322999D01*
X343997Y321000D01*
X345997Y322999D01*
Y326998D01*
X347996Y325998D02*
X348996Y326998D01*
X350995D01*
X351995Y325998D01*
Y324999D01*
X350995Y323999D01*
X349995D01*
X350995D01*
X351995Y322999D01*
Y322000D01*
X350995Y321000D01*
X348996D01*
X347996Y322000D01*
X260000Y295998D02*
Y290000D01*
X263999D01*
X265998Y295998D02*
Y290000D01*
X268997D01*
X269997Y291000D01*
Y294998D01*
X268997Y295998D01*
X265998D01*
X274995D02*
X272996D01*
X271996Y294998D01*
Y291000D01*
X272996Y290000D01*
X274995D01*
X275995Y291000D01*
Y294998D01*
X274995Y295998D01*
X246000Y367998D02*
Y363000D01*
X247000Y362000D01*
X248999D01*
X249999Y363000D01*
Y367998D01*
X255997Y366998D02*
X254997Y367998D01*
X252998D01*
X251998Y366998D01*
Y365999D01*
X252998Y364999D01*
X254997D01*
X255997Y363999D01*
Y363000D01*
X254997Y362000D01*
X252998D01*
X251998Y363000D01*
X257996Y367998D02*
Y362000D01*
X260995D01*
X261995Y363000D01*
Y363999D01*
X260995Y364999D01*
X257996D01*
X260995D01*
X261995Y365999D01*
Y366998D01*
X260995Y367998D01*
X257996D01*
X43000Y304000D02*
Y309998D01*
X45999D01*
X46999Y308998D01*
Y306999D01*
X45999Y305999D01*
X43000D01*
X49998Y304000D02*
X51997D01*
X52997Y305000D01*
Y306999D01*
X51997Y307999D01*
X49998D01*
X48998Y306999D01*
Y305000D01*
X49998Y304000D01*
X54996Y307999D02*
Y305000D01*
X55996Y304000D01*
X56995Y305000D01*
X57995Y304000D01*
X58995Y305000D01*
Y307999D01*
X63993Y304000D02*
X61994D01*
X60994Y305000D01*
Y306999D01*
X61994Y307999D01*
X63993D01*
X64993Y306999D01*
Y305999D01*
X60994D01*
X66992Y307999D02*
Y304000D01*
Y305999D01*
X67992Y306999D01*
X68992Y307999D01*
X69991D01*
X82987Y309998D02*
X80988D01*
X81987D01*
Y305000D01*
X80988Y304000D01*
X79988D01*
X78988Y305000D01*
X85986Y307999D02*
X87985D01*
X88985Y306999D01*
Y304000D01*
X85986D01*
X84986Y305000D01*
X85986Y305999D01*
X88985D01*
X94983Y307999D02*
X91984D01*
X90984Y306999D01*
Y305000D01*
X91984Y304000D01*
X94983D01*
X96983D02*
Y309998D01*
Y305999D02*
X99982Y307999D01*
X96983Y305999D02*
X99982Y304000D01*
X361002Y119999D02*
X360002Y118999D01*
Y117000D01*
X361002Y116000D01*
X362001D01*
X363001Y117000D01*
Y118999D01*
X364001Y119999D01*
X365000D01*
X366000Y118999D01*
Y117000D01*
X365000Y116000D01*
X362001Y122998D02*
Y124997D01*
X363001Y125997D01*
X366000D01*
Y122998D01*
X365000Y121998D01*
X364001Y122998D01*
Y125997D01*
X366000Y127996D02*
X362001D01*
Y128996D01*
X363001Y129996D01*
X366000D01*
X363001D01*
X362001Y130995D01*
X363001Y131995D01*
X366000D01*
Y139992D02*
X360002D01*
Y142991D01*
X361002Y143991D01*
X363001D01*
X364001Y142991D01*
Y139992D01*
Y141992D02*
X366000Y143991D01*
X362001Y146990D02*
Y148989D01*
X363001Y149989D01*
X366000D01*
Y146990D01*
X365000Y145990D01*
X364001Y146990D01*
Y149989D01*
X366000Y151988D02*
Y153988D01*
Y152988D01*
X362001D01*
Y151988D01*
Y156987D02*
Y160985D01*
X366000Y156987D01*
Y160985D01*
Y162985D02*
X362001D01*
Y163985D01*
X363001Y164984D01*
X366000D01*
X363001D01*
X362001Y165984D01*
X363001Y166983D01*
X366000D01*
X362001Y169983D02*
Y171982D01*
X363001Y172982D01*
X366000D01*
Y169983D01*
X365000Y168983D01*
X364001Y169983D01*
Y172982D01*
X366000Y174981D02*
X362001D01*
Y177980D01*
X363001Y178980D01*
X366000D01*
Y14000D02*
X360002D01*
X366000Y17999D01*
X360002D01*
X366000Y19998D02*
Y21997D01*
Y20998D01*
X362001D01*
Y19998D01*
X361002Y25996D02*
X362001D01*
Y24996D01*
Y26996D01*
Y25996D01*
X365000D01*
X366000Y26996D01*
Y29995D02*
Y31994D01*
Y30994D01*
X362001D01*
Y29995D01*
X366000Y34993D02*
Y37992D01*
X365000Y38992D01*
X364001Y37992D01*
Y35993D01*
X363001Y34993D01*
X362001Y35993D01*
Y38992D01*
X360002Y40991D02*
X366000D01*
X363001D01*
X362001Y41991D01*
Y43990D01*
X363001Y44990D01*
X366000D01*
X360002Y52987D02*
X364001D01*
X366000Y54987D01*
X364001Y56986D01*
X360002D01*
X362001Y59985D02*
Y61984D01*
X363001Y62984D01*
X366000D01*
Y59985D01*
X365000Y58985D01*
X364001Y59985D01*
Y62984D01*
X362001Y64983D02*
Y68982D01*
X366000Y64983D01*
Y68982D01*
X362001Y71981D02*
Y73981D01*
X363001Y74980D01*
X366000D01*
Y71981D01*
X365000Y70982D01*
X364001Y71981D01*
Y74980D01*
X366000Y76980D02*
Y78979D01*
Y77979D01*
X360002D01*
Y76980D01*
X362001Y81978D02*
X365000D01*
X366000Y82978D01*
X365000Y83977D01*
X366000Y84977D01*
X365000Y85977D01*
X362001D01*
Y88976D02*
Y90975D01*
X363001Y91975D01*
X366000D01*
Y88976D01*
X365000Y87976D01*
X364001Y88976D01*
Y91975D01*
X362001Y93974D02*
X366000D01*
X364001D01*
X363001Y94974D01*
X362001Y95973D01*
Y96973D01*
X18336Y26999D02*
Y23000D01*
X24335D01*
Y26999D01*
X21336Y23000D02*
Y24999D01*
X19336Y32997D02*
X18336Y31997D01*
Y29998D01*
X19336Y28998D01*
X23335D01*
X24335Y29998D01*
Y31997D01*
X23335Y32997D01*
X18336Y38995D02*
Y34996D01*
X24335D01*
Y38995D01*
X21336Y34996D02*
Y36996D01*
X24335Y40994D02*
X18336D01*
X24335Y44993D01*
X18336D01*
Y56989D02*
Y52990D01*
X21336D01*
X20336Y54990D01*
Y55989D01*
X21336Y56989D01*
X23335D01*
X24335Y55989D01*
Y53990D01*
X23335Y52990D01*
X18336Y58988D02*
Y62987D01*
X19336D01*
X23335Y58988D01*
X24335D01*
X19336Y64986D02*
X18336Y65986D01*
Y67985D01*
X19336Y68985D01*
X20336D01*
X21336Y67985D01*
Y66986D01*
Y67985D01*
X22335Y68985D01*
X23335D01*
X24335Y67985D01*
Y65986D01*
X23335Y64986D01*
X19336Y70985D02*
X18336Y71984D01*
Y73984D01*
X19336Y74983D01*
X23335D01*
X24335Y73984D01*
Y71984D01*
X23335Y70985D01*
X19336D01*
X215396Y329448D02*
Y323450D01*
X218395D01*
X219395Y324450D01*
Y328448D01*
X218395Y329448D01*
X215396D01*
X221394Y323450D02*
X223394D01*
X222394D01*
Y329448D01*
X221394Y328448D01*
X244001Y109000D02*
X243001Y108001D01*
Y106001D01*
X244001Y105002D01*
X247999D01*
X248999Y106001D01*
Y108001D01*
X247999Y109000D01*
X244001Y111000D02*
X243001Y111999D01*
Y113999D01*
X244001Y114998D01*
X245000D01*
X246000Y113999D01*
Y112999D01*
Y113999D01*
X247000Y114998D01*
X247999D01*
X248999Y113999D01*
Y111999D01*
X247999Y111000D01*
X242000Y91999D02*
X241000Y92999D01*
X239001D01*
X238001Y91999D01*
Y88001D01*
X239001Y87001D01*
X241000D01*
X242000Y88001D01*
X243999Y87001D02*
X245999D01*
X244999D01*
Y92999D01*
X243999Y91999D01*
X152500Y37499D02*
X150501D01*
X151501D01*
Y32501D01*
X150501Y31501D01*
X149501D01*
X148502Y32501D01*
X158498Y37499D02*
X154500D01*
Y34500D01*
X156499Y35500D01*
X157499D01*
X158498Y34500D01*
Y32501D01*
X157499Y31501D01*
X155499D01*
X154500Y32501D01*
X212004Y54499D02*
X216003Y48501D01*
Y54499D02*
X212004Y48501D01*
X218002Y54499D02*
X222001D01*
X220002D01*
Y48501D01*
X224000D02*
Y52500D01*
X226000Y54499D01*
X227999Y52500D01*
Y48501D01*
Y51500D01*
X224000D01*
X229998Y54499D02*
Y48501D01*
X233997D01*
X235997D02*
X237996D01*
X236996D01*
Y54499D01*
X235997Y53499D01*
X158001Y89999D02*
Y85001D01*
X159001Y84001D01*
X161000D01*
X162000Y85001D01*
Y89999D01*
X163999Y84001D02*
X165999D01*
X164999D01*
Y89999D01*
X163999Y88999D01*
X329200Y315198D02*
X333199D01*
X331199D01*
Y309200D01*
X335198D02*
Y315198D01*
X338197D01*
X339197Y314198D01*
Y312199D01*
X338197Y311199D01*
X335198D01*
X341196Y309200D02*
X343196D01*
X342196D01*
Y315198D01*
X341196Y314198D01*
X136599Y343498D02*
X135599Y344498D01*
X133600D01*
X132600Y343498D01*
Y342499D01*
X133600Y341499D01*
X135599D01*
X136599Y340499D01*
Y339500D01*
X135599Y338500D01*
X133600D01*
X132600Y339500D01*
X138598Y344498D02*
Y338500D01*
X140597Y340499D01*
X142597Y338500D01*
Y344498D01*
X148595Y338500D02*
X144596D01*
X148595Y342499D01*
Y343498D01*
X147595Y344498D01*
X145596D01*
X144596Y343498D01*
X115899Y292298D02*
X114899Y293298D01*
X112900D01*
X111900Y292298D01*
Y291299D01*
X112900Y290299D01*
X114899D01*
X115899Y289299D01*
Y288300D01*
X114899Y287300D01*
X112900D01*
X111900Y288300D01*
X117898Y293298D02*
Y287300D01*
X119897Y289299D01*
X121897Y287300D01*
Y293298D01*
X123896Y287300D02*
X125896D01*
X124896D01*
Y293298D01*
X123896Y292298D01*
X215565Y178001D02*
Y183999D01*
X218564D01*
X219564Y182999D01*
Y181000D01*
X218564Y180000D01*
X215565D01*
X217565D02*
X219564Y178001D01*
X221564D02*
X223563D01*
X222563D01*
Y183999D01*
X221564Y182999D01*
X226562D02*
X227561Y183999D01*
X229561D01*
X230561Y182999D01*
Y179001D01*
X229561Y178001D01*
X227561D01*
X226562Y179001D01*
Y182999D01*
X299600Y348100D02*
Y354098D01*
X302599D01*
X303599Y353098D01*
Y351099D01*
X302599Y350099D01*
X299600D01*
X301599D02*
X303599Y348100D01*
X305598Y349100D02*
X306598Y348100D01*
X308597D01*
X309597Y349100D01*
Y353098D01*
X308597Y354098D01*
X306598D01*
X305598Y353098D01*
Y352099D01*
X306598Y351099D01*
X309597D01*
X111913Y224350D02*
Y230348D01*
X114912D01*
X115912Y229348D01*
Y227349D01*
X114912Y226349D01*
X111913D01*
X113912D02*
X115912Y224350D01*
X117911Y229348D02*
X118911Y230348D01*
X120910D01*
X121910Y229348D01*
Y228349D01*
X120910Y227349D01*
X121910Y226349D01*
Y225350D01*
X120910Y224350D01*
X118911D01*
X117911Y225350D01*
Y226349D01*
X118911Y227349D01*
X117911Y228349D01*
Y229348D01*
X118911Y227349D02*
X120910D01*
X198913Y207350D02*
Y213348D01*
X201912D01*
X202912Y212348D01*
Y210349D01*
X201912Y209349D01*
X198913D01*
X200912D02*
X202912Y207350D01*
X204911Y213348D02*
X208910D01*
Y212348D01*
X204911Y208350D01*
Y207350D01*
X171002Y213001D02*
Y218999D01*
X174001D01*
X175000Y217999D01*
Y216000D01*
X174001Y215000D01*
X171002D01*
X173001D02*
X175000Y213001D01*
X180998Y218999D02*
X178999Y217999D01*
X177000Y216000D01*
Y214001D01*
X177999Y213001D01*
X179999D01*
X180998Y214001D01*
Y215000D01*
X179999Y216000D01*
X177000D01*
X149850Y266350D02*
Y272348D01*
X152849D01*
X153849Y271348D01*
Y269349D01*
X152849Y268349D01*
X149850D01*
X151849D02*
X153849Y266350D01*
X155848D02*
X157847D01*
X156848D01*
Y272348D01*
X155848Y271348D01*
X257450Y339050D02*
Y345048D01*
X260449D01*
X261449Y344048D01*
Y342049D01*
X260449Y341049D01*
X257450D01*
X267447Y344048D02*
X266447Y345048D01*
X264448D01*
X263448Y344048D01*
Y343049D01*
X264448Y342049D01*
X266447D01*
X267447Y341049D01*
Y340050D01*
X266447Y339050D01*
X264448D01*
X263448Y340050D01*
X269446Y339050D02*
X271445D01*
X270446D01*
Y345048D01*
X269446Y344048D01*
X42001Y367001D02*
Y372999D01*
X45000D01*
X46000Y371999D01*
Y370000D01*
X45000Y369000D01*
X42001D01*
X47999Y367001D02*
X49999D01*
X48999D01*
Y372999D01*
X47999Y371999D01*
X214700Y210598D02*
Y204600D01*
X218699D01*
X224697Y210598D02*
X220698D01*
Y204600D01*
X224697D01*
X220698Y207599D02*
X222697D01*
X226696Y210598D02*
Y204600D01*
X229695D01*
X230695Y205600D01*
Y209598D01*
X229695Y210598D01*
X226696D01*
X236693D02*
X232694D01*
Y207599D01*
X234694Y208599D01*
X235693D01*
X236693Y207599D01*
Y205600D01*
X235693Y204600D01*
X233694D01*
X232694Y205600D01*
X297450Y333248D02*
Y327250D01*
X301449D01*
X307447Y333248D02*
X303448D01*
Y327250D01*
X307447D01*
X303448Y330249D02*
X305447D01*
X309446Y333248D02*
Y327250D01*
X312445D01*
X313445Y328250D01*
Y332248D01*
X312445Y333248D01*
X309446D01*
X318443Y327250D02*
Y333248D01*
X315444Y330249D01*
X319443D01*
X126700Y232598D02*
Y226600D01*
X130699D01*
X136697Y232598D02*
X132698D01*
Y226600D01*
X136697D01*
X132698Y229599D02*
X134697D01*
X138696Y232598D02*
Y226600D01*
X141695D01*
X142695Y227600D01*
Y231598D01*
X141695Y232598D01*
X138696D01*
X144694Y231598D02*
X145694Y232598D01*
X147693D01*
X148693Y231598D01*
Y230599D01*
X147693Y229599D01*
X146694D01*
X147693D01*
X148693Y228599D01*
Y227600D01*
X147693Y226600D01*
X145694D01*
X144694Y227600D01*
X186700Y230598D02*
Y224600D01*
X190699D01*
X196697Y230598D02*
X192698D01*
Y224600D01*
X196697D01*
X192698Y227599D02*
X194697D01*
X198696Y230598D02*
Y224600D01*
X201695D01*
X202695Y225600D01*
Y229598D01*
X201695Y230598D01*
X198696D01*
X208693Y224600D02*
X204694D01*
X208693Y228599D01*
Y229598D01*
X207693Y230598D01*
X205694D01*
X204694Y229598D01*
X218700Y230598D02*
Y224600D01*
X222699D01*
X228697Y230598D02*
X224698D01*
Y224600D01*
X228697D01*
X224698Y227599D02*
X226697D01*
X230696Y230598D02*
Y224600D01*
X233695D01*
X234695Y225600D01*
Y229598D01*
X233695Y230598D01*
X230696D01*
X236694Y224600D02*
X238693D01*
X237694D01*
Y230598D01*
X236694Y229598D01*
X299449Y250448D02*
X297449D01*
X298449D01*
Y245450D01*
X297449Y244450D01*
X296450D01*
X295450Y245450D01*
X301448D02*
X302448Y244450D01*
X304447D01*
X305447Y245450D01*
Y249448D01*
X304447Y250448D01*
X302448D01*
X301448Y249448D01*
Y248449D01*
X302448Y247449D01*
X305447D01*
X49499Y214498D02*
X47499D01*
X48499D01*
Y209500D01*
X47499Y208500D01*
X46500D01*
X45500Y209500D01*
X51498Y213498D02*
X52498Y214498D01*
X54497D01*
X55497Y213498D01*
Y212499D01*
X54497Y211499D01*
X55497Y210499D01*
Y209500D01*
X54497Y208500D01*
X52498D01*
X51498Y209500D01*
Y210499D01*
X52498Y211499D01*
X51498Y212499D01*
Y213498D01*
X52498Y211499D02*
X54497D01*
X319000Y138999D02*
X317001D01*
X318001D01*
Y134001D01*
X317001Y133001D01*
X316001D01*
X315002Y134001D01*
X321000Y138999D02*
X324998D01*
Y137999D01*
X321000Y134001D01*
Y133001D01*
X181000Y370999D02*
X179001D01*
X180001D01*
Y366001D01*
X179001Y365001D01*
X178001D01*
X177002Y366001D01*
X186998Y370999D02*
X184999Y369999D01*
X183000Y368000D01*
Y366001D01*
X183999Y365001D01*
X185999D01*
X186998Y366001D01*
Y367000D01*
X185999Y368000D01*
X183000D01*
X79498Y214456D02*
X77498D01*
X78498D01*
Y209457D01*
X77498Y208458D01*
X76499D01*
X75499Y209457D01*
X84496Y208458D02*
Y214456D01*
X81497Y211457D01*
X85496D01*
X81000Y46999D02*
X79001D01*
X80001D01*
Y42001D01*
X79001Y41001D01*
X78001D01*
X77002Y42001D01*
X83000Y45999D02*
X83999Y46999D01*
X85999D01*
X86998Y45999D01*
Y45000D01*
X85999Y44000D01*
X84999D01*
X85999D01*
X86998Y43000D01*
Y42001D01*
X85999Y41001D01*
X83999D01*
X83000Y42001D01*
X275000Y50999D02*
X273001D01*
X274001D01*
Y46001D01*
X273001Y45001D01*
X272001D01*
X271002Y46001D01*
X280998Y45001D02*
X277000D01*
X280998Y49000D01*
Y49999D01*
X279999Y50999D01*
X277999D01*
X277000Y49999D01*
X269499Y250498D02*
X267499D01*
X268499D01*
Y245500D01*
X267499Y244500D01*
X266500D01*
X265500Y245500D01*
X271498Y244500D02*
X273497D01*
X272498D01*
Y250498D01*
X271498Y249498D01*
X117001Y127999D02*
X113002D01*
Y125000D01*
X115002D01*
X113002D01*
Y122001D01*
X119000Y127999D02*
Y122001D01*
X121999D01*
X122999Y123001D01*
Y124000D01*
X121999Y125000D01*
X119000D01*
X121999D01*
X122999Y126000D01*
Y126999D01*
X121999Y127999D01*
X119000D01*
X124998Y122001D02*
X126998D01*
X125998D01*
Y127999D01*
X124998Y126999D01*
X181149Y336048D02*
X177150D01*
Y333049D01*
X179149D01*
X177150D01*
Y330050D01*
X183148D02*
X185147D01*
X184148D01*
Y336048D01*
X183148Y335048D01*
X139501Y133999D02*
X138502Y134999D01*
X136502D01*
X135502Y133999D01*
Y130001D01*
X136502Y129001D01*
X138502D01*
X139501Y130001D01*
X141500Y129001D02*
X143500D01*
X142500D01*
Y134999D01*
X141500Y133999D01*
X149498Y129001D02*
Y134999D01*
X146499Y132000D01*
X150498D01*
X238001Y309501D02*
X237001Y308502D01*
Y306502D01*
X238001Y305502D01*
X241999D01*
X242999Y306502D01*
Y308502D01*
X241999Y309501D01*
X242999Y311501D02*
Y313500D01*
Y312500D01*
X237001D01*
X238001Y311501D01*
X242999Y320498D02*
Y316499D01*
X239000Y320498D01*
X238001D01*
X237001Y319498D01*
Y317498D01*
X238001Y316499D01*
X107599Y340398D02*
X106599Y341398D01*
X104600D01*
X103600Y340398D01*
Y336400D01*
X104600Y335400D01*
X106599D01*
X107599Y336400D01*
X109598Y335400D02*
X111597D01*
X110598D01*
Y341398D01*
X109598Y340398D01*
X114596Y335400D02*
X116596D01*
X115596D01*
Y341398D01*
X114596Y340398D01*
X152501Y301999D02*
X151502Y302999D01*
X149502D01*
X148502Y301999D01*
Y298001D01*
X149502Y297001D01*
X151502D01*
X152501Y298001D01*
X154500Y297001D02*
X156500D01*
X155500D01*
Y302999D01*
X154500Y301999D01*
X159499D02*
X160499Y302999D01*
X162498D01*
X163498Y301999D01*
Y298001D01*
X162498Y297001D01*
X160499D01*
X159499Y298001D01*
Y301999D01*
X167599Y322398D02*
X166599Y323398D01*
X164600D01*
X163600Y322398D01*
Y318400D01*
X164600Y317400D01*
X166599D01*
X167599Y318400D01*
X169598D02*
X170598Y317400D01*
X172597D01*
X173597Y318400D01*
Y322398D01*
X172597Y323398D01*
X170598D01*
X169598Y322398D01*
Y321399D01*
X170598Y320399D01*
X173597D01*
X125499Y307798D02*
X124499Y308798D01*
X122500D01*
X121500Y307798D01*
Y303800D01*
X122500Y302800D01*
X124499D01*
X125499Y303800D01*
X127498Y308798D02*
X131497D01*
Y307798D01*
X127498Y303800D01*
Y302800D01*
X95549Y277948D02*
X94549Y278948D01*
X92550D01*
X91550Y277948D01*
Y273950D01*
X92550Y272950D01*
X94549D01*
X95549Y273950D01*
X101547Y278948D02*
X99547Y277948D01*
X97548Y275949D01*
Y273950D01*
X98548Y272950D01*
X100547D01*
X101547Y273950D01*
Y274949D01*
X100547Y275949D01*
X97548D01*
X143001Y116000D02*
X142001Y115001D01*
Y113001D01*
X143001Y112002D01*
X146999D01*
X147999Y113001D01*
Y115001D01*
X146999Y116000D01*
X142001Y121998D02*
Y118000D01*
X145000D01*
X144000Y119999D01*
Y120999D01*
X145000Y121998D01*
X146999D01*
X147999Y120999D01*
Y118999D01*
X146999Y118000D01*
X224000Y107999D02*
X223001Y108999D01*
X221001D01*
X220002Y107999D01*
Y104001D01*
X221001Y103001D01*
X223001D01*
X224000Y104001D01*
X228999Y103001D02*
Y108999D01*
X226000Y106000D01*
X229998D01*
X128000Y96999D02*
X127001Y97999D01*
X125001D01*
X124002Y96999D01*
Y93001D01*
X125001Y92001D01*
X127001D01*
X128000Y93001D01*
X133998Y92001D02*
X130000D01*
X133998Y96000D01*
Y96999D01*
X132999Y97999D01*
X130999D01*
X130000Y96999D01*
D12*
X124959Y264250D02*
G03*
X124959Y264250I-559J0D01*
G01*
X122739Y264300D02*
G03*
X122739Y264300I-538J0D01*
G01*
D13*
X71687Y314330D02*
G03*
X71687Y314330I-787J0D01*
G01*
D14*
X217394Y333621D02*
G03*
X217394Y333621I-394J0D01*
G01*
D15*
X217471Y306748D02*
X223376D01*
X217471Y317772D02*
X223376D01*
D16*
X369500Y294500D02*
X371000D01*
X329000D02*
X360500D01*
X329000D02*
Y305500D01*
X371000Y294500D02*
Y305500D01*
X329000D02*
X371000D01*
D17*
X53183Y340440D02*
Y375676D01*
X77002Y318983D02*
X88616D01*
Y375676D01*
X53183D02*
X88616D01*
X53183Y318983D02*
X65191D01*
X53183D02*
Y326267D01*
X219713Y336897D02*
X222508D01*
X198453D02*
X201327D01*
X225658Y347802D02*
Y354141D01*
X195343Y347802D02*
Y354141D01*
X225658Y366582D02*
Y375676D01*
X195343D02*
X225658D01*
X195343Y366582D02*
Y375676D01*
X38819Y69647D02*
X38819Y68940D01*
X39526Y68233D01*
X40233D01*
X41647Y69647D01*
Y70353D01*
X40940Y71060D01*
X40233Y71060D01*
X39526Y70353D01*
X40233Y69647D01*
X39879Y72121D02*
X37759Y70000D01*
X38466Y73534D01*
X36345Y71414D01*
X35638Y72121D02*
X37759Y74241D01*
X36698Y75302D01*
X35991Y75302D01*
X34578Y73888D01*
Y73181D01*
X35638Y72121D01*
X39319Y58647D02*
X39319Y57940D01*
X40026Y57233D01*
X40733D01*
X42147Y58647D01*
Y59353D01*
X41440Y60060D01*
X40733Y60060D01*
X40026Y59353D01*
X40733Y58647D01*
X40379Y61121D02*
X38259Y59000D01*
X38966Y62534D01*
X36845Y60414D01*
X36138Y61121D02*
X38259Y63241D01*
X37198Y64302D01*
X36492Y64302D01*
X35078Y62888D01*
Y62181D01*
X36138Y61121D01*
X37319Y80147D02*
X37319Y79440D01*
X38026Y78733D01*
X38733D01*
X40147Y80147D01*
Y80853D01*
X39440Y81560D01*
X38733Y81560D01*
X38026Y80853D01*
X38733Y80147D01*
X38379Y82621D02*
X36259Y80500D01*
X36966Y84034D01*
X34845Y81914D01*
X34138Y82621D02*
X36259Y84741D01*
X35198Y85802D01*
X34492Y85802D01*
X33078Y84388D01*
Y83681D01*
X34138Y82621D01*
X38319Y91147D02*
X38319Y90440D01*
X39026Y89733D01*
X39733D01*
X41147Y91147D01*
Y91853D01*
X40440Y92560D01*
X39733Y92560D01*
X39026Y91853D01*
X39733Y91147D01*
X39379Y93621D02*
X37259Y91500D01*
X37966Y95034D01*
X35845Y92914D01*
X35138Y93621D02*
X37259Y95741D01*
X36198Y96802D01*
X35491Y96802D01*
X34078Y95388D01*
Y94681D01*
X35138Y93621D01*
X38819Y100147D02*
X38819Y99440D01*
X39526Y98733D01*
X40233D01*
X41647Y100147D01*
Y100853D01*
X40940Y101560D01*
X40233Y101560D01*
X39526Y100853D01*
X40233Y100147D01*
X39879Y102621D02*
X37759Y100500D01*
X38466Y104034D01*
X36345Y101914D01*
X35638Y102621D02*
X37759Y104741D01*
X36698Y105802D01*
X35991Y105802D01*
X34578Y104388D01*
Y103681D01*
X35638Y102621D01*
X37819Y110647D02*
X37819Y109940D01*
X38526Y109233D01*
X39233D01*
X40647Y110647D01*
Y111353D01*
X39940Y112060D01*
X39233Y112060D01*
X38526Y111353D01*
X39233Y110647D01*
X38879Y113121D02*
X36759Y111000D01*
X37466Y114534D01*
X35345Y112414D01*
X34638Y113121D02*
X36759Y115241D01*
X35698Y116302D01*
X34991Y116302D01*
X33578Y114888D01*
Y114181D01*
X34638Y113121D01*
X280647Y237181D02*
X279940Y237181D01*
X279233Y236474D01*
Y235767D01*
X279586Y235414D01*
X280293Y235414D01*
X281000Y236121D01*
X281707Y236121D01*
X282060Y235767D01*
X282060Y235060D01*
X281353Y234353D01*
X280647D01*
X282767Y239302D02*
X282060Y239302D01*
X281353Y238595D01*
Y237888D01*
X282767Y236474D01*
X283474D01*
X284181Y237181D01*
X284181Y237888D01*
X283121Y240362D02*
X285241Y238241D01*
X286655Y239655D01*
X66707Y61000D02*
X68121Y62414D01*
X69535D01*
Y61000D01*
X68121Y59586D01*
X69181Y60647D01*
X67767Y62060D01*
X72362Y59586D02*
X70948Y61000D01*
X69888Y59940D01*
X70948Y59586D01*
X71302Y59233D01*
Y58526D01*
X70595Y57819D01*
X69888Y57819D01*
X69181Y58526D01*
Y59233D01*
X66707Y71000D02*
X68121Y72414D01*
X69535D01*
Y71000D01*
X68121Y69586D01*
X69181Y70647D01*
X67767Y72060D01*
X69888Y67819D02*
X72009Y69940D01*
X69888Y69940D01*
X71302Y68526D01*
X66707Y81000D02*
X68121Y82414D01*
X69535D01*
Y81000D01*
X68121Y79586D01*
X69181Y80647D01*
X67767Y82060D01*
X70595Y80647D02*
X71302D01*
X72009Y79940D01*
X72009Y79233D01*
X71655Y78879D01*
X70948D01*
X70595Y79233D01*
X70948Y78879D01*
X70948Y78172D01*
X70595Y77819D01*
X69888Y77819D01*
X69181Y78526D01*
Y79233D01*
X66707Y91000D02*
X68121Y92414D01*
X69535D01*
Y91000D01*
X68121Y89586D01*
X69181Y90647D01*
X67767Y92060D01*
X70241Y87466D02*
X68828Y88879D01*
X71655D01*
X72009Y89233D01*
X72009Y89940D01*
X71302Y90647D01*
X70595D01*
X67000Y111000D02*
X68414Y112414D01*
X69828D01*
Y111000D01*
X68414Y109586D01*
X69474Y110647D01*
X68060Y112060D01*
X70888Y110647D02*
X71595D01*
X72302Y109940D01*
X72302Y109233D01*
X70888Y107819D01*
X70181Y107819D01*
X69474Y108526D01*
Y109233D01*
X70888Y110647D01*
X67000Y101000D02*
X68414Y102414D01*
X69828D01*
Y101000D01*
X68414Y99586D01*
X69474Y100647D01*
X68060Y102060D01*
X69121Y98879D02*
X69828Y98172D01*
X69474Y98526D01*
X71595Y100647D01*
X70888D01*
X259879Y81414D02*
X261293Y80000D01*
X258465D01*
X258112Y79647D01*
X258112Y78940D01*
X258819Y78233D01*
X259526D01*
Y88233D02*
X258819D01*
X258112Y88940D01*
X258112Y89647D01*
X258465Y90000D01*
X259172D01*
X259526Y89647D01*
X259172Y90000D01*
X259172Y90707D01*
X259526Y91060D01*
X260233Y91060D01*
X260939Y90353D01*
Y89647D01*
X260233Y101060D02*
X258112Y98940D01*
X260233Y98940D01*
X258819Y100353D01*
X257758Y109293D02*
X259172Y107879D01*
X260233Y108940D01*
X259172Y109293D01*
X258819Y109647D01*
Y110353D01*
X259526Y111060D01*
X260233Y111060D01*
X260939Y110353D01*
Y109647D01*
X257758Y119293D02*
X258819Y118940D01*
X260233Y118940D01*
X260939Y119647D01*
Y120353D01*
X260233Y121060D01*
X259526Y121060D01*
X259172Y120707D01*
X259172Y120000D01*
X260233Y118940D01*
X259172Y127879D02*
X257758Y129293D01*
X258112Y129647D01*
X260939D01*
X261293Y130000D01*
X259526Y58233D02*
X258819D01*
X258112Y58940D01*
X258112Y59647D01*
X259526Y61060D01*
X260233Y61060D01*
X260940Y60353D01*
Y59647D01*
X259526Y58233D01*
X262161Y69000D02*
X261455Y69707D01*
X261808Y69353D01*
X259687Y67233D01*
X260394D01*
X311819Y144371D02*
X311819Y143664D01*
X312526Y142957D01*
X313233D01*
X314647Y144371D01*
Y145078D01*
X313940Y145785D01*
X313233Y145785D01*
X312526Y145078D01*
X313233Y144371D01*
X312879Y146845D02*
X310759Y144724D01*
X311466Y148259D01*
X309345Y146138D01*
X308638Y146845D02*
X310759Y148966D01*
X309698Y150026D01*
X308992Y150026D01*
X307578Y148612D01*
Y147905D01*
X308638Y146845D01*
X312319Y154371D02*
X312319Y153664D01*
X313026Y152957D01*
X313733D01*
X315147Y154371D01*
Y155078D01*
X314440Y155785D01*
X313733Y155785D01*
X313026Y155078D01*
X313733Y154371D01*
X313379Y156845D02*
X311259Y154724D01*
X311966Y158259D01*
X309845Y156138D01*
X309138Y156845D02*
X311259Y158966D01*
X310198Y160026D01*
X309491Y160026D01*
X308078Y158612D01*
Y157905D01*
X309138Y156845D01*
X312819Y163371D02*
X312819Y162664D01*
X313526Y161957D01*
X314233D01*
X315647Y163371D01*
Y164078D01*
X314940Y164785D01*
X314233Y164785D01*
X313526Y164078D01*
X314233Y163371D01*
X313879Y165845D02*
X311759Y163724D01*
X312466Y167259D01*
X310345Y165138D01*
X309638Y165845D02*
X311759Y167966D01*
X310698Y169026D01*
X309992Y169026D01*
X308578Y167612D01*
Y166905D01*
X309638Y165845D01*
X312319Y173871D02*
X312319Y173164D01*
X313026Y172457D01*
X313733D01*
X315147Y173871D01*
Y174578D01*
X314440Y175285D01*
X313733Y175285D01*
X313026Y174578D01*
X313733Y173871D01*
X313379Y176345D02*
X311259Y174224D01*
X311966Y177759D01*
X309845Y175638D01*
X309138Y176345D02*
X311259Y178466D01*
X310198Y179526D01*
X309491Y179526D01*
X308078Y178112D01*
Y177405D01*
X309138Y176345D01*
X312319Y183871D02*
X312319Y183164D01*
X313026Y182457D01*
X313733D01*
X315147Y183871D01*
Y184578D01*
X314440Y185285D01*
X313733Y185285D01*
X313026Y184578D01*
X313733Y183871D01*
X313379Y186345D02*
X311259Y184224D01*
X311966Y187759D01*
X309845Y185638D01*
X309138Y186345D02*
X311259Y188466D01*
X310198Y189526D01*
X309491Y189526D01*
X308078Y188112D01*
Y187405D01*
X309138Y186345D01*
X312819Y194371D02*
X312819Y193664D01*
X313526Y192957D01*
X314233D01*
X315647Y194371D01*
Y195078D01*
X314940Y195785D01*
X314233Y195785D01*
X313526Y195078D01*
X314233Y194371D01*
X313879Y196845D02*
X311759Y194724D01*
X312466Y198259D01*
X310345Y196138D01*
X309638Y196845D02*
X311759Y198966D01*
X310698Y200026D01*
X309992Y200026D01*
X308578Y198612D01*
Y197905D01*
X309638Y196845D01*
X312819Y203871D02*
X312819Y203164D01*
X313526Y202457D01*
X314233D01*
X315647Y203871D01*
Y204578D01*
X314940Y205285D01*
X314233Y205285D01*
X313526Y204578D01*
X314233Y203871D01*
X313879Y206345D02*
X311759Y204224D01*
X312466Y207759D01*
X310345Y205638D01*
X309638Y206345D02*
X311759Y208466D01*
X310698Y209526D01*
X309992Y209526D01*
X308578Y208112D01*
Y207405D01*
X309638Y206345D01*
X313819Y214371D02*
X313819Y213664D01*
X314526Y212957D01*
X315233D01*
X316647Y214371D01*
Y215078D01*
X315940Y215785D01*
X315233Y215785D01*
X314526Y215078D01*
X315233Y214371D01*
X314879Y216845D02*
X312759Y214724D01*
X313466Y218259D01*
X311345Y216138D01*
X310638Y216845D02*
X312759Y218966D01*
X311698Y220026D01*
X310992Y220026D01*
X309578Y218612D01*
Y217905D01*
X310638Y216845D01*
X313319Y224371D02*
X313319Y223664D01*
X314026Y222957D01*
X314733D01*
X316147Y224371D01*
Y225078D01*
X315440Y225785D01*
X314733Y225785D01*
X314026Y225078D01*
X314733Y224371D01*
X314379Y226845D02*
X312259Y224724D01*
X312966Y228259D01*
X310845Y226138D01*
X310138Y226845D02*
X312259Y228966D01*
X311198Y230026D01*
X310491Y230026D01*
X309078Y228612D01*
Y227905D01*
X310138Y226845D01*
X312819Y234371D02*
X312819Y233664D01*
X313526Y232957D01*
X314233D01*
X315647Y234371D01*
Y235078D01*
X314940Y235785D01*
X314233Y235785D01*
X313526Y235078D01*
X314233Y234371D01*
X313879Y236845D02*
X311759Y234724D01*
X312466Y238259D01*
X310345Y236138D01*
X309638Y236845D02*
X311759Y238966D01*
X310698Y240026D01*
X309992Y240026D01*
X308578Y238612D01*
Y237905D01*
X309638Y236845D01*
X61888Y130353D02*
X61888Y131060D01*
X61181Y131767D01*
X60474D01*
X59061Y130353D01*
Y129647D01*
X59767Y128940D01*
X60474Y128940D01*
X61181Y129647D01*
X60474Y130353D01*
X60828Y127879D02*
X62948Y130000D01*
X62242Y126466D01*
X64362Y128586D01*
X65069Y127879D02*
X62948Y125759D01*
X64009Y124698D01*
X64716Y124698D01*
X66129Y126112D01*
Y126819D01*
X65069Y127879D01*
X61888Y140353D02*
X61888Y141060D01*
X61181Y141767D01*
X60474D01*
X59061Y140353D01*
Y139647D01*
X59767Y138940D01*
X60474Y138940D01*
X61181Y139647D01*
X60474Y140353D01*
X60828Y137879D02*
X62948Y140000D01*
X62242Y136466D01*
X64362Y138586D01*
X65069Y137879D02*
X62948Y135759D01*
X64009Y134698D01*
X64716Y134698D01*
X66129Y136112D01*
Y136819D01*
X65069Y137879D01*
X61888Y150353D02*
X61888Y151060D01*
X61181Y151767D01*
X60474D01*
X59061Y150353D01*
Y149647D01*
X59767Y148940D01*
X60474Y148940D01*
X61181Y149647D01*
X60474Y150353D01*
X60828Y147879D02*
X62948Y150000D01*
X62242Y146466D01*
X64362Y148586D01*
X65069Y147879D02*
X62948Y145759D01*
X64009Y144698D01*
X64716Y144698D01*
X66129Y146112D01*
Y146819D01*
X65069Y147879D01*
X61888Y160353D02*
X61888Y161060D01*
X61181Y161767D01*
X60474D01*
X59061Y160353D01*
Y159647D01*
X59767Y158940D01*
X60474Y158940D01*
X61181Y159647D01*
X60474Y160353D01*
X60828Y157879D02*
X62948Y160000D01*
X62242Y156466D01*
X64362Y158586D01*
X65069Y157879D02*
X62948Y155759D01*
X64009Y154698D01*
X64716Y154698D01*
X66129Y156112D01*
Y156819D01*
X65069Y157879D01*
X61888Y170353D02*
X61888Y171060D01*
X61181Y171767D01*
X60474D01*
X59061Y170353D01*
Y169647D01*
X59767Y168940D01*
X60474Y168940D01*
X61181Y169647D01*
X60474Y170353D01*
X60828Y167879D02*
X62948Y170000D01*
X62242Y166466D01*
X64362Y168586D01*
X65069Y167879D02*
X62948Y165759D01*
X64009Y164698D01*
X64716Y164698D01*
X66129Y166112D01*
Y166819D01*
X65069Y167879D01*
X61888Y180353D02*
X61888Y181060D01*
X61181Y181767D01*
X60474D01*
X59061Y180353D01*
Y179647D01*
X59767Y178940D01*
X60474Y178940D01*
X61181Y179647D01*
X60474Y180353D01*
X60828Y177879D02*
X62948Y180000D01*
X62242Y176466D01*
X64362Y178586D01*
X65069Y177879D02*
X62948Y175759D01*
X64009Y174698D01*
X64716Y174698D01*
X66129Y176112D01*
Y176819D01*
X65069Y177879D01*
X61019Y191353D02*
X61019Y192060D01*
X60313Y192767D01*
X59606D01*
X58192Y191353D01*
Y190647D01*
X58899Y189940D01*
X59606Y189940D01*
X60313Y190647D01*
X59606Y191353D01*
X59959Y188879D02*
X62080Y191000D01*
X61373Y187466D01*
X63494Y189586D01*
X64201Y188879D02*
X62080Y186759D01*
X63140Y185698D01*
X63847Y185698D01*
X65261Y187112D01*
Y187819D01*
X64201Y188879D01*
X61888Y200353D02*
X61888Y201060D01*
X61181Y201767D01*
X60474D01*
X59061Y200353D01*
Y199647D01*
X59767Y198940D01*
X60474Y198940D01*
X61181Y199647D01*
X60474Y200353D01*
X60828Y197879D02*
X62948Y200000D01*
X62242Y196466D01*
X64362Y198586D01*
X65069Y197879D02*
X62948Y195759D01*
X64009Y194698D01*
X64716Y194698D01*
X66129Y196112D01*
Y196819D01*
X65069Y197879D01*
X311888Y60353D02*
X311888Y61060D01*
X311181Y61767D01*
X310474D01*
X309061Y60353D01*
Y59647D01*
X309767Y58940D01*
X310474Y58940D01*
X311181Y59647D01*
X310474Y60353D01*
X310828Y57879D02*
X312948Y60000D01*
X312242Y56466D01*
X314362Y58586D01*
X315069Y57879D02*
X312948Y55759D01*
X314009Y54698D01*
X314716Y54698D01*
X316129Y56112D01*
Y56819D01*
X315069Y57879D01*
X311888Y70353D02*
X311888Y71060D01*
X311181Y71767D01*
X310474D01*
X309061Y70353D01*
Y69647D01*
X309767Y68940D01*
X310474Y68940D01*
X311181Y69647D01*
X310474Y70353D01*
X310828Y67879D02*
X312948Y70000D01*
X312242Y66466D01*
X314362Y68586D01*
X315069Y67879D02*
X312948Y65759D01*
X314009Y64698D01*
X314716Y64698D01*
X316129Y66112D01*
Y66819D01*
X315069Y67879D01*
X311888Y80353D02*
X311888Y81060D01*
X311181Y81767D01*
X310474D01*
X309061Y80353D01*
Y79647D01*
X309767Y78940D01*
X310474Y78940D01*
X311181Y79647D01*
X310474Y80353D01*
X310828Y77879D02*
X312948Y80000D01*
X312242Y76466D01*
X314362Y78586D01*
X315069Y77879D02*
X312948Y75759D01*
X314009Y74698D01*
X314716Y74698D01*
X316129Y76112D01*
Y76819D01*
X315069Y77879D01*
X311888Y90353D02*
X311888Y91060D01*
X311181Y91767D01*
X310474D01*
X309061Y90353D01*
Y89647D01*
X309767Y88940D01*
X310474Y88940D01*
X311181Y89647D01*
X310474Y90353D01*
X310828Y87879D02*
X312948Y90000D01*
X312242Y86466D01*
X314362Y88586D01*
X315069Y87879D02*
X312948Y85759D01*
X314009Y84698D01*
X314716Y84698D01*
X316129Y86112D01*
Y86819D01*
X315069Y87879D01*
X311888Y100353D02*
X311888Y101060D01*
X311181Y101767D01*
X310474D01*
X309061Y100353D01*
Y99647D01*
X309767Y98940D01*
X310474Y98940D01*
X311181Y99647D01*
X310474Y100353D01*
X310828Y97879D02*
X312948Y100000D01*
X312242Y96466D01*
X314362Y98586D01*
X315069Y97879D02*
X312948Y95759D01*
X314009Y94698D01*
X314716Y94698D01*
X316129Y96112D01*
Y96819D01*
X315069Y97879D01*
X311888Y110353D02*
X311888Y111060D01*
X311181Y111767D01*
X310474D01*
X309061Y110353D01*
Y109647D01*
X309767Y108940D01*
X310474Y108940D01*
X311181Y109647D01*
X310474Y110353D01*
X310828Y107879D02*
X312948Y110000D01*
X312242Y106466D01*
X314362Y108586D01*
X315069Y107879D02*
X312948Y105759D01*
X314009Y104698D01*
X314716Y104698D01*
X316129Y106112D01*
Y106819D01*
X315069Y107879D01*
X311019Y121353D02*
X311019Y122060D01*
X310313Y122767D01*
X309606D01*
X308192Y121353D01*
Y120647D01*
X308899Y119940D01*
X309606Y119940D01*
X310313Y120647D01*
X309606Y121353D01*
X309959Y118879D02*
X312080Y121000D01*
X311373Y117466D01*
X313494Y119586D01*
X314200Y118879D02*
X312080Y116759D01*
X313140Y115698D01*
X313847Y115698D01*
X315261Y117112D01*
Y117819D01*
X314200Y118879D01*
X311888Y130353D02*
X311888Y131060D01*
X311181Y131767D01*
X310474D01*
X309061Y130353D01*
Y129647D01*
X309767Y128940D01*
X310474Y128940D01*
X311181Y129647D01*
X310474Y130353D01*
X310828Y127879D02*
X312948Y130000D01*
X312242Y126466D01*
X314362Y128586D01*
X315069Y127879D02*
X312948Y125759D01*
X314009Y124698D01*
X314716Y124698D01*
X316129Y126112D01*
Y126819D01*
X315069Y127879D01*
X90828Y132121D02*
X89414Y130707D01*
Y129293D01*
X90828Y129293D01*
X92242Y130707D01*
X90828Y127879D02*
X91535Y127173D01*
X91181Y127526D01*
X92595Y128940D01*
X92242Y129293D01*
X92595Y126112D02*
X94009Y127526D01*
X95069Y126466D01*
Y125759D01*
X94009Y124698D01*
X91888Y140353D02*
X91888Y141060D01*
X91181Y141767D01*
X90474D01*
X89061Y140353D01*
Y139647D01*
X89767Y138940D01*
X90474Y138940D01*
X91181Y139647D01*
X90474Y140353D01*
X90828Y137879D02*
X92948Y140000D01*
X92242Y136466D01*
X94362Y138586D01*
X95069Y137879D02*
X92948Y135759D01*
X94009Y134698D01*
X94716Y134698D01*
X96129Y136112D01*
Y136819D01*
X95069Y137879D01*
X91888Y150353D02*
X91888Y151060D01*
X91181Y151767D01*
X90474D01*
X89061Y150353D01*
Y149647D01*
X89767Y148940D01*
X90474Y148940D01*
X91181Y149647D01*
X90474Y150353D01*
X90828Y147879D02*
X92948Y150000D01*
X92242Y146466D01*
X94362Y148586D01*
X95069Y147879D02*
X92948Y145759D01*
X94009Y144698D01*
X94716Y144698D01*
X96129Y146112D01*
Y146819D01*
X95069Y147879D01*
X92242Y160707D02*
X90828Y162121D01*
X89767Y161060D01*
X90828Y160707D01*
X91181Y160353D01*
Y159647D01*
X90474Y158940D01*
X89767Y158940D01*
X89061Y159647D01*
Y160353D01*
X92242Y159293D02*
X91535Y157173D01*
X93655Y157879D01*
X90474Y171767D02*
X91181D01*
X91888Y171060D01*
X91888Y170353D01*
X91535Y170000D01*
X90828D01*
X90474Y170353D01*
X90828Y170000D01*
X90828Y169293D01*
X90474Y168940D01*
X89767Y168940D01*
X89061Y169647D01*
Y170353D01*
X92242Y169293D02*
X91535Y167173D01*
X93655Y167879D01*
X94716Y167526D02*
X95423D01*
X96129Y166819D01*
Y166112D01*
X95776Y165759D01*
X95069D01*
X94716Y166112D01*
X95069Y165759D01*
X95069Y165052D01*
X94716Y164698D01*
X94009Y164698D01*
X93302Y165405D01*
Y166112D01*
X88707Y180000D02*
X90828Y182121D01*
X91888Y181060D01*
X91888Y180353D01*
X91181Y179647D01*
X90474Y179647D01*
X89414Y180707D01*
X90121Y180000D02*
X90121Y178586D01*
X94362D02*
X92948Y180000D01*
X90828Y177879D01*
X92242Y176466D01*
X91888Y178940D02*
X92595Y178233D01*
X96129Y176112D02*
Y176819D01*
X95423Y177526D01*
X94716D01*
X94362Y177173D01*
X94362Y176466D01*
X95069Y175759D01*
X95069Y175052D01*
X94716Y174698D01*
X94009Y174698D01*
X93302Y175405D01*
Y176112D01*
X98603Y174345D02*
X97190Y175759D01*
X95069Y173638D01*
X96483Y172224D01*
X96129Y174698D02*
X96836Y173992D01*
X99310Y173638D02*
X100724Y172224D01*
X100017Y172931D01*
X97896Y170811D01*
X89959Y193121D02*
X90666Y192414D01*
X90313Y192767D01*
X88192Y190647D01*
X87839Y191000D01*
X88546Y190293D01*
X92787D02*
X92080Y191000D01*
X91373D01*
X89959Y189586D01*
Y188879D01*
X90666Y188172D01*
X91373D01*
X92787Y189586D01*
X92787Y190293D01*
X91726Y187112D02*
X93847Y189233D01*
X94907Y188172D01*
Y187466D01*
X94200Y186759D01*
X93494Y186759D01*
X92433Y187819D01*
X93140Y187112D02*
X93140Y185698D01*
X97381D02*
X95968Y187112D01*
X93847Y184992D01*
X95261Y183578D01*
X94907Y186052D02*
X95614Y185345D01*
X99502Y183578D02*
X98088Y184992D01*
X97028Y183931D01*
X97735Y183224D01*
X97028Y183931D01*
X95968Y182871D01*
X88707Y200000D02*
X90828Y202121D01*
X90121Y198586D01*
X92242Y200707D01*
X94009Y198233D02*
X94009Y198940D01*
X93302Y199647D01*
X92595D01*
X91181Y198233D01*
Y197526D01*
X91888Y196819D01*
X92595Y196819D01*
X279233Y147767D02*
Y148474D01*
X279940Y149181D01*
X280646Y149181D01*
X281000Y148828D01*
Y148121D01*
X281707Y148121D01*
X282060Y147767D01*
X282060Y147060D01*
X281353Y146353D01*
X280646D01*
X280293Y146707D01*
Y147414D01*
X279586Y147414D01*
X279233Y147767D01*
X280293Y147414D02*
X281000Y148121D01*
X280646Y155078D02*
X281353D01*
X282060Y155785D01*
X282060Y156492D01*
X280646Y157905D01*
X279940Y157905D01*
X279233Y157199D01*
Y156492D01*
X279586Y156138D01*
X280293Y156138D01*
X281353Y157199D01*
X281000Y163724D02*
X281707Y164431D01*
X281353Y164078D01*
X279233Y166199D01*
Y165492D01*
X281000Y167259D02*
Y167966D01*
X281707Y168673D01*
X282414Y168673D01*
X283827Y167259D01*
Y166552D01*
X283121Y165845D01*
X282414D01*
X281000Y167259D01*
Y174224D02*
X281707Y174931D01*
X281353Y174578D01*
X279233Y176699D01*
Y175992D01*
X282767D02*
X283474Y176699D01*
X283121Y176345D01*
X281000Y178466D01*
Y177759D01*
Y184224D02*
X281707Y184931D01*
X281353Y184578D01*
X279233Y186698D01*
Y185992D01*
X284181Y187405D02*
X282767Y185992D01*
Y188819D01*
X282414Y189173D01*
X281707Y189173D01*
X281000Y188466D01*
Y187759D01*
Y193000D02*
X278879Y195121D01*
X279940Y196181D01*
X280646Y196181D01*
X281353Y195474D01*
X281353Y194767D01*
X280293Y193707D01*
X281000Y197241D02*
X281707Y197948D01*
X281353Y197595D01*
X283474Y195474D01*
X283121Y195121D01*
X283827Y195827D01*
X284888Y196888D02*
X282767Y199009D01*
X286302Y198302D01*
X284181Y200422D01*
X287008Y199009D02*
X287715Y199715D01*
X287362Y199362D01*
X285241Y201483D01*
Y200776D01*
X287008Y202543D02*
Y203250D01*
X287715Y203957D01*
X288422D01*
X288776Y203603D01*
Y202896D01*
X288422Y202543D01*
X288776Y202896D01*
X289482Y202896D01*
X289836Y202543D01*
X289836Y201836D01*
X289129Y201129D01*
X288422D01*
X280647Y207181D02*
X279940Y207181D01*
X279233Y206474D01*
Y205767D01*
X280647Y204353D01*
X281353D01*
X282060Y205060D01*
X282060Y205767D01*
X281353Y206474D01*
X280647Y205767D01*
X283121Y206121D02*
X281000Y208241D01*
X284534Y207534D01*
X282414Y209655D01*
X283121Y210362D02*
X285241Y208241D01*
X286302Y209302D01*
X286302Y210009D01*
X284888Y211422D01*
X284181D01*
X283121Y210362D01*
X281000Y213000D02*
X279586Y214414D01*
Y215827D01*
X281000D01*
X282414Y214414D01*
X281353Y215474D01*
X279940Y214060D01*
X283121Y215121D02*
X281000Y217241D01*
X282060Y218302D01*
X282767Y218302D01*
X283474Y217595D01*
Y216888D01*
X282414Y215827D01*
X283121Y216534D02*
X284534Y216534D01*
Y220776D02*
X283121Y219362D01*
X285241Y217241D01*
X286655Y218655D01*
X284181Y218302D02*
X284888Y219008D01*
X286655Y222896D02*
X285241Y221482D01*
X286302Y220422D01*
X287009Y221129D01*
X286302Y220422D01*
X287362Y219362D01*
X280647Y227181D02*
X279940Y227181D01*
X279233Y226474D01*
Y225767D01*
X279586Y225414D01*
X280293Y225414D01*
X281000Y226121D01*
X281707Y226121D01*
X282060Y225767D01*
X282060Y225060D01*
X281353Y224353D01*
X280647D01*
X281000Y228241D02*
X283121Y226121D01*
X284181Y227181D01*
X284181Y227888D01*
X282767Y229302D01*
X282060Y229302D01*
X281000Y228241D01*
X285241D02*
X283827Y229655D01*
Y231069D01*
X285241D01*
X286655Y229655D01*
X285595Y230715D01*
X284181Y229302D01*
M02*
