M48
;Layer_Color=9474304
;FILE_FORMAT=2:5
INCH,LZ
;TYPE=PLATED
T1F00S00C0.01300
T2F00S00C0.02756
T4F00S00C0.04000
T5F00S00C0.04331
T6F00S00C0.06299
%
T01
X0153Y00505
X0191232Y0040011
X0246Y0063
X02465Y00675
X0255Y0101
X0257Y01055
X0238Y01085
X02385Y01135
X02085Y012
X01895Y0124
X01855Y0122
X01835Y01165
X0184Y01115
X01845Y0107
X0192Y0106
X0193Y01105
X0175Y01095
X0173Y0114
Y0122
X01745Y01265
X01775Y0118
X015815Y0116
X01515Y01165
X0153Y01125
X01565Y0108
X0156Y0103
X0152Y0096
X0141Y0116
X01515Y0129
X01605Y01585
X01695Y01595
X0212Y0188
X0209Y00975
X0156Y0057
X0091Y0113
X00655Y0118
X007Y0124
X0101Y0168
X01025Y02205
X00985Y0251
X0102296Y0261444
X01035Y02665
X0104Y028
X01205Y03065
X0143Y032
X01645Y0305
X0161Y0295
X01555Y0294
X01535Y02885
X0154Y02835
X01565Y02795
X01645Y0278
X017015Y0277901
X0173Y0253
X0168Y0251
X02035Y0255
X0211Y02765
X0193Y0284
X0191Y0305
X02065Y03075
X0212Y0228
X01895Y02285
X0104Y03475
X00625Y0313
X0216Y0304
X02135Y02945
Y02885
X02185Y02875
X02165Y0283
X02135Y02795
Y027
X02125Y02515
X02625Y0234
Y022
X0249Y0301
X0232Y03085
X02365Y03505
X0238Y03555
X0213Y0349
X028Y0346
X0296Y0359
X03345Y02905
T02
X0204201Y0338078
X02105
X020735Y0342802
X021365
X0216799Y0338078
T04
X0335Y03
X0365
T05
X017Y00495
X018
X019
X027Y006
Y007
Y008
Y009
Y01
Y011
Y012
Y013
Y0146
Y0156
Y0166
Y0176
Y0186
Y0196
Y0206
X03
Y0196
Y0186
Y0176
Y0166
Y0156
Y0146
Y013
Y012
Y011
Y01
Y009
Y008
Y007
Y006
X019Y00595
X018
X017
X008Y006
Y007
Y008
Y009
Y01
Y011
Y013
Y014
Y015
Y016
Y017
Y018
Y019
Y02
X005
Y019
Y018
Y017
Y016
Y015
Y014
Y013
Y011
Y01
Y009
Y008
Y007
Y006
X014Y033
X015
X016
X027Y0236
Y0226
Y0216
X03
Y0226
Y0236
T06
X0052396Y033355
X00709Y032183
Y034533
M30
