G04*
G04 #@! TF.GenerationSoftware,Altium Limited,Altium Designer,20.1.14 (287)*
G04*
G04 Layer_Color=16711935*
%FSLAX25Y25*%
%MOIN*%
G70*
G04*
G04 #@! TF.SameCoordinates,AE2E9B50-125B-4246-99C6-3B409F254E70*
G04*
G04*
G04 #@! TF.FilePolarity,Negative*
G04*
G01*
G75*
%ADD49C,0.06800*%
%ADD50C,0.07800*%
%ADD51C,0.07296*%
%ADD52C,0.10249*%
%ADD53C,0.05556*%
%ADD54O,0.05950X0.11099*%
%ADD55C,0.03300*%
D49*
X50000Y110000D02*
D03*
Y100000D02*
D03*
Y90000D02*
D03*
Y80000D02*
D03*
Y70000D02*
D03*
Y60000D02*
D03*
X80000D02*
D03*
Y70000D02*
D03*
Y80000D02*
D03*
Y90000D02*
D03*
Y100000D02*
D03*
Y110000D02*
D03*
X270000Y60000D02*
D03*
Y70000D02*
D03*
Y80000D02*
D03*
Y90000D02*
D03*
Y100000D02*
D03*
Y110000D02*
D03*
Y120000D02*
D03*
Y130000D02*
D03*
X300000Y146000D02*
D03*
Y156000D02*
D03*
Y166000D02*
D03*
Y176000D02*
D03*
Y186000D02*
D03*
Y196000D02*
D03*
Y206000D02*
D03*
Y216000D02*
D03*
Y226000D02*
D03*
Y236000D02*
D03*
X50000Y200000D02*
D03*
Y190000D02*
D03*
Y180000D02*
D03*
Y170000D02*
D03*
Y160000D02*
D03*
Y150000D02*
D03*
Y140000D02*
D03*
Y130000D02*
D03*
X300000Y60000D02*
D03*
Y70000D02*
D03*
Y80000D02*
D03*
Y90000D02*
D03*
Y100000D02*
D03*
Y110000D02*
D03*
Y120000D02*
D03*
Y130000D02*
D03*
X80000D02*
D03*
Y140000D02*
D03*
Y150000D02*
D03*
Y160000D02*
D03*
Y170000D02*
D03*
Y180000D02*
D03*
Y190000D02*
D03*
Y200000D02*
D03*
X270000Y236000D02*
D03*
Y226000D02*
D03*
Y216000D02*
D03*
Y206000D02*
D03*
Y196000D02*
D03*
Y186000D02*
D03*
Y176000D02*
D03*
Y166000D02*
D03*
Y156000D02*
D03*
Y146000D02*
D03*
D50*
X170000Y49500D02*
D03*
Y59500D02*
D03*
X180000Y49500D02*
D03*
Y59500D02*
D03*
X190000Y49500D02*
D03*
Y59500D02*
D03*
X365000Y300000D02*
D03*
X335000D02*
D03*
D51*
X140000Y330000D02*
D03*
X150000D02*
D03*
X160000D02*
D03*
D52*
X52396Y333550D02*
D03*
X70900Y345330D02*
D03*
Y321830D02*
D03*
D53*
X216799Y338078D02*
D03*
X210500D02*
D03*
X204201D02*
D03*
X213650Y342802D02*
D03*
X207350D02*
D03*
D54*
X225067Y360322D02*
D03*
Y341621D02*
D03*
X195933D02*
D03*
Y360322D02*
D03*
D55*
X191232Y40011D02*
D03*
X101000Y168000D02*
D03*
X334500Y290500D02*
D03*
X213000Y349000D02*
D03*
X238000Y355500D02*
D03*
X143000Y320000D02*
D03*
X62500Y313000D02*
D03*
X102296Y261444D02*
D03*
X155500Y294000D02*
D03*
X153500Y288500D02*
D03*
X213500Y279500D02*
D03*
X218500Y287500D02*
D03*
X156500Y279500D02*
D03*
X173000Y253000D02*
D03*
X212500Y251500D02*
D03*
X262500Y220000D02*
D03*
Y234000D02*
D03*
X246500Y67500D02*
D03*
X255000Y101000D02*
D03*
X177500Y118000D02*
D03*
X184500Y107000D02*
D03*
X189500Y124000D02*
D03*
X173000Y114000D02*
D03*
Y122000D02*
D03*
X156000Y103000D02*
D03*
X151500Y116500D02*
D03*
X91000Y113000D02*
D03*
X70000Y124000D02*
D03*
X153000Y50500D02*
D03*
X65500Y118000D02*
D03*
X161000Y295000D02*
D03*
X213500Y288500D02*
D03*
X203500Y255000D02*
D03*
X170150Y277901D02*
D03*
X193000Y284000D02*
D03*
X154000Y283500D02*
D03*
X213500Y294500D02*
D03*
X211000Y276500D02*
D03*
X213500Y270000D02*
D03*
X168000Y251000D02*
D03*
X208500Y120000D02*
D03*
X193000Y110500D02*
D03*
X153000Y112500D02*
D03*
X151500Y129000D02*
D03*
X246000Y63000D02*
D03*
X164500Y278000D02*
D03*
X174500Y126500D02*
D03*
X103500Y266500D02*
D03*
X104000Y280000D02*
D03*
X183500Y116500D02*
D03*
X192000Y106000D02*
D03*
X152000Y96000D02*
D03*
X141000Y116000D02*
D03*
X209000Y97500D02*
D03*
X216500Y283000D02*
D03*
X212000Y228000D02*
D03*
X232000Y308500D02*
D03*
X189500Y228500D02*
D03*
X102500Y220500D02*
D03*
X216000Y304000D02*
D03*
X206500Y307500D02*
D03*
X98500Y251000D02*
D03*
X236500Y350500D02*
D03*
X191000Y305000D02*
D03*
X164500D02*
D03*
X249000Y301000D02*
D03*
X104000Y347500D02*
D03*
X120500Y306500D02*
D03*
X296000Y359000D02*
D03*
X280000Y346000D02*
D03*
X212000Y188000D02*
D03*
X169500Y159500D02*
D03*
X158150Y116000D02*
D03*
X156500Y108000D02*
D03*
X156000Y57000D02*
D03*
X175000Y109500D02*
D03*
X160500Y158500D02*
D03*
X185500Y122000D02*
D03*
X184000Y111500D02*
D03*
X238000Y108500D02*
D03*
X238500Y113500D02*
D03*
X257000Y105500D02*
D03*
M02*
