G04*
G04 #@! TF.GenerationSoftware,Altium Limited,Altium Designer,20.1.14 (287)*
G04*
G04 Layer_Color=16711935*
%FSLAX25Y25*%
%MOIN*%
G70*
G04*
G04 #@! TF.SameCoordinates,6D664569-D151-4749-B7FC-417D050C6B8F*
G04*
G04*
G04 #@! TF.FilePolarity,Negative*
G04*
G01*
G75*
%ADD49C,0.06800*%
%ADD50C,0.07800*%
%ADD51C,0.07296*%
%ADD52C,0.10249*%
%ADD53C,0.05556*%
%ADD54O,0.05950X0.11099*%
%ADD55C,0.03300*%
D49*
X80000Y60000D02*
D03*
Y70000D02*
D03*
Y80000D02*
D03*
Y90000D02*
D03*
Y100000D02*
D03*
Y110000D02*
D03*
X50000Y60000D02*
D03*
Y70000D02*
D03*
Y80000D02*
D03*
Y90000D02*
D03*
Y100000D02*
D03*
Y110000D02*
D03*
X270000Y60000D02*
D03*
Y70000D02*
D03*
Y80000D02*
D03*
Y90000D02*
D03*
Y100000D02*
D03*
Y110000D02*
D03*
Y120000D02*
D03*
Y130000D02*
D03*
X300000Y146000D02*
D03*
Y156000D02*
D03*
Y166000D02*
D03*
Y176000D02*
D03*
Y186000D02*
D03*
Y196000D02*
D03*
Y206000D02*
D03*
Y216000D02*
D03*
Y226000D02*
D03*
Y236000D02*
D03*
X50000Y200000D02*
D03*
Y190000D02*
D03*
Y180000D02*
D03*
Y170000D02*
D03*
Y160000D02*
D03*
Y150000D02*
D03*
Y140000D02*
D03*
Y130000D02*
D03*
X300000Y60000D02*
D03*
Y70000D02*
D03*
Y80000D02*
D03*
Y90000D02*
D03*
Y100000D02*
D03*
Y110000D02*
D03*
Y120000D02*
D03*
Y130000D02*
D03*
X80000D02*
D03*
Y140000D02*
D03*
Y150000D02*
D03*
Y160000D02*
D03*
Y170000D02*
D03*
Y180000D02*
D03*
Y190000D02*
D03*
Y200000D02*
D03*
X270000Y236000D02*
D03*
Y226000D02*
D03*
Y216000D02*
D03*
Y206000D02*
D03*
Y196000D02*
D03*
Y186000D02*
D03*
Y176000D02*
D03*
Y166000D02*
D03*
Y156000D02*
D03*
Y146000D02*
D03*
D50*
X170000Y49500D02*
D03*
Y59500D02*
D03*
X180000Y49500D02*
D03*
Y59500D02*
D03*
X190000Y49500D02*
D03*
Y59500D02*
D03*
X365000Y300000D02*
D03*
X335000D02*
D03*
D51*
X140000Y330000D02*
D03*
X150000D02*
D03*
X160000D02*
D03*
D52*
X52396Y333550D02*
D03*
X70900Y345330D02*
D03*
Y321830D02*
D03*
D53*
X216799Y338078D02*
D03*
X210500D02*
D03*
X204201D02*
D03*
X213650Y342802D02*
D03*
X207350D02*
D03*
D54*
X225067Y360322D02*
D03*
Y341621D02*
D03*
X195933D02*
D03*
Y360322D02*
D03*
D55*
X215000Y287000D02*
D03*
X173000Y126000D02*
D03*
X164152Y139396D02*
D03*
X168000Y133000D02*
D03*
X190000Y117850D02*
D03*
X169300Y139000D02*
D03*
X155000D02*
D03*
X150000D02*
D03*
X210000Y96000D02*
D03*
X233000Y265000D02*
D03*
X227000D02*
D03*
X234000Y257000D02*
D03*
X226000D02*
D03*
X185000Y280000D02*
D03*
Y286000D02*
D03*
X259000Y36000D02*
D03*
Y45000D02*
D03*
X266000Y36000D02*
D03*
Y45000D02*
D03*
X88000Y116000D02*
D03*
X83000Y121000D02*
D03*
X216000Y292000D02*
D03*
X220000Y294850D02*
D03*
Y300350D02*
D03*
X177000Y114000D02*
D03*
X189000Y112000D02*
D03*
X286000Y182000D02*
D03*
Y190000D02*
D03*
X69000Y173000D02*
D03*
X64000Y124000D02*
D03*
Y116000D02*
D03*
X158000Y102000D02*
D03*
X251000Y199000D02*
D03*
X215905Y271095D02*
D03*
X226850Y279000D02*
D03*
X227000Y285000D02*
D03*
X220000Y286000D02*
D03*
X202000Y304000D02*
D03*
X220000Y279000D02*
D03*
X216000Y278000D02*
D03*
X280000Y340000D02*
D03*
X249000Y304000D02*
D03*
X164000Y278000D02*
D03*
X237000Y113000D02*
D03*
Y107000D02*
D03*
X104000Y244000D02*
D03*
X202000Y347000D02*
D03*
X144000Y111000D02*
D03*
X241896Y200104D02*
D03*
X152000Y125000D02*
D03*
Y120700D02*
D03*
X160000Y133000D02*
D03*
X69000Y167000D02*
D03*
X150687Y292000D02*
D03*
X158000D02*
D03*
X192000Y303000D02*
D03*
X215000Y192000D02*
D03*
X112000Y304000D02*
D03*
X192000Y310250D02*
D03*
X103000Y220000D02*
D03*
X168000Y279000D02*
D03*
X365000Y284000D02*
D03*
X306000Y344000D02*
D03*
X158000Y316000D02*
D03*
X184000Y342000D02*
D03*
X236000Y340000D02*
D03*
Y358000D02*
D03*
X186000D02*
D03*
X96000Y278000D02*
D03*
X100000Y338000D02*
D03*
X70000Y358000D02*
D03*
X42000Y326000D02*
D03*
M02*
